G04*
G04 #@! TF.GenerationSoftware,Altium Limited,Altium Designer,25.8.1 (18)*
G04*
G04 Layer_Color=2752767*
%FSLAX25Y25*%
%MOIN*%
G70*
G04*
G04 #@! TF.SameCoordinates,4AC38C5C-1B46-43B7-816B-83FC85482749*
G04*
G04*
G04 #@! TF.FilePolarity,Positive*
G04*
G01*
G75*
%ADD77C,0.00500*%
%ADD90C,0.00667*%
D77*
X306183Y250055D02*
X307183D01*
X308183Y251055D01*
X309183Y250055D01*
X310183D01*
Y251055D01*
X309183Y252055D01*
X310183Y253055D01*
Y254055D01*
X309183D01*
X308183Y253055D01*
X307183Y254055D01*
X306183D01*
Y253055D01*
X307183Y252055D01*
X306183Y251055D01*
Y250055D01*
X298309D02*
X299309D01*
X300309Y251055D01*
X301309Y250055D01*
X302309D01*
Y251055D01*
X301309Y252055D01*
X302309Y253055D01*
Y254055D01*
X301309D01*
X300309Y253055D01*
X299309Y254055D01*
X298309D01*
Y253055D01*
X299309Y252055D01*
X298309Y251055D01*
Y250055D01*
X326480Y222740D02*
Y226740D01*
X330480D01*
Y222740D01*
X326480D01*
X353252D02*
Y226740D01*
X357252D01*
Y222740D01*
X353252D01*
X377736Y177520D02*
X378736Y179520D01*
X377736Y181520D01*
X379736Y180520D01*
X381736Y181520D01*
X380736Y179520D01*
X381736Y177520D01*
X379736Y178520D01*
X377736Y177520D01*
X313791Y226646D02*
X314791Y227646D01*
X315791D01*
X314791Y228646D01*
X315791Y229646D01*
X314791D01*
X313791Y230646D01*
X312791Y229646D01*
X311791D01*
X312791Y228646D01*
X311791Y227646D01*
X312791D01*
X313791Y226646D01*
X311905Y235264D02*
X312905Y236264D01*
X313905D01*
X312905Y237264D01*
X313905Y238264D01*
X312905D01*
X311905Y239264D01*
X310905Y238264D01*
X309905D01*
X310905Y237264D01*
X309905Y236264D01*
X310905D01*
X311905Y235264D01*
X388425Y243386D02*
X389425Y244386D01*
X390425D01*
X389425Y245386D01*
X390425Y246386D01*
X389425D01*
X388425Y247386D01*
X387425Y246386D01*
X386425D01*
X387425Y245386D01*
X386425Y244386D01*
X387425D01*
X388425Y243386D01*
X450236Y243634D02*
X451236Y244634D01*
X452236D01*
X451236Y245634D01*
X452236Y246634D01*
X451236D01*
X450236Y247634D01*
X449236Y246634D01*
X448236D01*
X449236Y245634D01*
X448236Y244634D01*
X449236D01*
X450236Y243634D01*
X381563Y231587D02*
X382563Y232587D01*
X383563D01*
X382563Y233587D01*
X383563Y234587D01*
X382563D01*
X381563Y235587D01*
X380563Y234587D01*
X379563D01*
X380563Y233587D01*
X379563Y232587D01*
X380563D01*
X381563Y231587D01*
X389244Y227909D02*
X390244Y228909D01*
X391244D01*
X390244Y229909D01*
X391244Y230909D01*
X390244D01*
X389244Y231909D01*
X388244Y230909D01*
X387244D01*
X388244Y229909D01*
X387244Y228909D01*
X388244D01*
X389244Y227909D01*
X353870Y232283D02*
X354870Y233283D01*
X355870D01*
X354870Y234283D01*
X355870Y235283D01*
X354870D01*
X353870Y236283D01*
X352870Y235283D01*
X351870D01*
X352870Y234283D01*
X351870Y233283D01*
X352870D01*
X353870Y232283D01*
X333059Y232217D02*
X334059Y233217D01*
X335059D01*
X334059Y234216D01*
X335059Y235216D01*
X334059D01*
X333059Y236216D01*
X332059Y235216D01*
X331059D01*
X332059Y234216D01*
X331059Y233217D01*
X332059D01*
X333059Y232217D01*
X323721Y231421D02*
X324721Y232421D01*
X325721D01*
X324721Y233421D01*
X325721Y234421D01*
X324721D01*
X323721Y235421D01*
X322721Y234421D01*
X321721D01*
X322721Y233421D01*
X321721Y232421D01*
X322721D01*
X323721Y231421D01*
X415428Y213766D02*
X416428Y214766D01*
X417428D01*
X416428Y215766D01*
X417428Y216766D01*
X416428D01*
X415428Y217766D01*
X414428Y216766D01*
X413428D01*
X414428Y215766D01*
X413428Y214766D01*
X414428D01*
X415428Y213766D01*
X428106Y211894D02*
X429106Y212894D01*
X430106D01*
X429106Y213894D01*
X430106Y214894D01*
X429106D01*
X428106Y215894D01*
X427106Y214894D01*
X426106D01*
X427106Y213894D01*
X426106Y212894D01*
X427106D01*
X428106Y211894D01*
X415795Y206858D02*
X416795Y207858D01*
X417795D01*
X416795Y208858D01*
X417795Y209858D01*
X416795D01*
X415795Y210858D01*
X414795Y209858D01*
X413795D01*
X414795Y208858D01*
X413795Y207858D01*
X414795D01*
X415795Y206858D01*
X414614Y228516D02*
X415614Y229516D01*
X416614D01*
X415614Y230516D01*
X416614Y231516D01*
X415614D01*
X414614Y232516D01*
X413614Y231516D01*
X412614D01*
X413614Y230516D01*
X412614Y229516D01*
X413614D01*
X414614Y228516D01*
X430318Y228055D02*
X431318Y229055D01*
X432318D01*
X431318Y230055D01*
X432318Y231055D01*
X431318D01*
X430318Y232055D01*
X429318Y231055D01*
X428318D01*
X429318Y230055D01*
X428318Y229055D01*
X429318D01*
X430318Y228055D01*
X418661Y224158D02*
X419661Y225157D01*
X420661D01*
X419661Y226157D01*
X420661Y227157D01*
X419661D01*
X418661Y228157D01*
X417661Y227157D01*
X416661D01*
X417661Y226157D01*
X416661Y225157D01*
X417661D01*
X418661Y224158D01*
X422162Y227519D02*
X423162Y228519D01*
X424162D01*
X423162Y229519D01*
X424162Y230519D01*
X423162D01*
X422162Y231519D01*
X421162Y230519D01*
X420162D01*
X421162Y229519D01*
X420162Y228519D01*
X421162D01*
X422162Y227519D01*
X428429Y220406D02*
X429429Y221406D01*
X430429D01*
X429429Y222406D01*
X430429Y223406D01*
X429429D01*
X428429Y224406D01*
X427429Y223406D01*
X426429D01*
X427429Y222406D01*
X426429Y221406D01*
X427429D01*
X428429Y220406D01*
X-118681Y245788D02*
X-117681Y246788D01*
X-116681D01*
X-117681Y247787D01*
X-116681Y248787D01*
X-117681D01*
X-118681Y249787D01*
X-119681Y248787D01*
X-120681D01*
X-119681Y247787D01*
X-120681Y246788D01*
X-119681D01*
X-118681Y245788D01*
X-131772Y245165D02*
X-130772Y246165D01*
X-129772D01*
X-130772Y247165D01*
X-129772Y248165D01*
X-130772D01*
X-131772Y249165D01*
X-132772Y248165D01*
X-133772D01*
X-132772Y247165D01*
X-133772Y246165D01*
X-132772D01*
X-131772Y245165D01*
X-138512Y243937D02*
X-137512Y244937D01*
X-136512D01*
X-137512Y245937D01*
X-136512Y246937D01*
X-137512D01*
X-138512Y247937D01*
X-139512Y246937D01*
X-140512D01*
X-139512Y245937D01*
X-140512Y244937D01*
X-139512D01*
X-138512Y243937D01*
X324177Y203244D02*
X325177Y204244D01*
X326177D01*
X325177Y205244D01*
X326177Y206244D01*
X325177D01*
X324177Y207244D01*
X323177Y206244D01*
X322177D01*
X323177Y205244D01*
X322177Y204244D01*
X323177D01*
X324177Y203244D01*
X327720Y204992D02*
X328720Y205992D01*
X329720D01*
X328720Y206992D01*
X329720Y207992D01*
X328720D01*
X327720Y208992D01*
X326720Y207992D01*
X325721D01*
X326720Y206992D01*
X325721Y205992D01*
X326720D01*
X327720Y204992D01*
X373055Y169787D02*
X374055Y170787D01*
X375055D01*
X374055Y171787D01*
X375055Y172787D01*
X374055D01*
X373055Y173787D01*
X372055Y172787D01*
X371055D01*
X372055Y171787D01*
X371055Y170787D01*
X372055D01*
X373055Y169787D01*
X393358Y173329D02*
X394358Y174329D01*
X395358D01*
X394358Y175329D01*
X395358Y176329D01*
X394358D01*
X393358Y177329D01*
X392358Y176329D01*
X391358D01*
X392358Y175329D01*
X391358Y174329D01*
X392358D01*
X393358Y173329D01*
X320685Y189831D02*
X321685Y190831D01*
X322685D01*
X321685Y191831D01*
X322685Y192831D01*
X321685D01*
X320685Y193831D01*
X319685Y192831D01*
X318685D01*
X319685Y191831D01*
X318685Y190831D01*
X319685D01*
X320685Y189831D01*
X333910Y192417D02*
X334910Y193417D01*
X335910D01*
X334910Y194417D01*
X335910Y195417D01*
X334910D01*
X333910Y196417D01*
X332910Y195417D01*
X331910D01*
X332910Y194417D01*
X331910Y193417D01*
X332910D01*
X333910Y192417D01*
X391519Y179972D02*
X392519Y180972D01*
X393519D01*
X392519Y181972D01*
X393519Y182972D01*
X392519D01*
X391519Y183972D01*
X390519Y182972D01*
X389519D01*
X390519Y181972D01*
X389519Y180972D01*
X390519D01*
X391519Y179972D01*
X382461Y184882D02*
X383461Y185882D01*
X384461D01*
X383461Y186882D01*
X384461Y187882D01*
X383461D01*
X382461Y188882D01*
X381461Y187882D01*
X380461D01*
X381461Y186882D01*
X380461Y185882D01*
X381461D01*
X382461Y184882D01*
X328803Y201689D02*
X329803Y202689D01*
X330803D01*
X329803Y203689D01*
X330803Y204689D01*
X329803D01*
X328803Y205689D01*
X327803Y204689D01*
X326803D01*
X327803Y203689D01*
X326803Y202689D01*
X327803D01*
X328803Y201689D01*
X395933Y199657D02*
X396933Y200658D01*
X397933D01*
X396933Y201658D01*
X397933Y202658D01*
X396933D01*
X395933Y203658D01*
X394933Y202658D01*
X393933D01*
X394933Y201658D01*
X393933Y200658D01*
X394933D01*
X395933Y199657D01*
X406216Y201630D02*
X407217Y202630D01*
X408216D01*
X407217Y203630D01*
X408216Y204630D01*
X407217D01*
X406216Y205630D01*
X405217Y204630D01*
X404216D01*
X405217Y203630D01*
X404216Y202630D01*
X405217D01*
X406216Y201630D01*
X915510Y241837D02*
X916510Y242837D01*
X917510D01*
X916510Y243837D01*
X917510Y244837D01*
X916510D01*
X915510Y245837D01*
X914510Y244837D01*
X913510D01*
X914510Y243837D01*
X913510Y242837D01*
X914510D01*
X915510Y241837D01*
X912600D02*
X913600Y242837D01*
X914600D01*
X913600Y243837D01*
X914600Y244837D01*
X913600D01*
X912600Y245837D01*
X911600Y244837D01*
X910600D01*
X911600Y243837D01*
X910600Y242837D01*
X911600D01*
X912600Y241837D01*
X898008Y243831D02*
X899008Y244831D01*
X900008D01*
X899008Y245831D01*
X900008Y246831D01*
X899008D01*
X898008Y247831D01*
X897008Y246831D01*
X896008D01*
X897008Y245831D01*
X896008Y244831D01*
X897008D01*
X898008Y243831D01*
X927800Y240640D02*
X928800Y241640D01*
X929800D01*
X928800Y242640D01*
X929800Y243640D01*
X928800D01*
X927800Y244640D01*
X926800Y243640D01*
X925800D01*
X926800Y242640D01*
X925800Y241640D01*
X926800D01*
X927800Y240640D01*
X376377Y242498D02*
X377377Y243498D01*
X378377D01*
X377377Y244498D01*
X378377Y245498D01*
X377377D01*
X376377Y246498D01*
X375377Y245498D01*
X374377D01*
X375377Y244498D01*
X374377Y243498D01*
X375377D01*
X376377Y242498D01*
X369366Y225047D02*
X370366Y226047D01*
X371366D01*
X370366Y227047D01*
X371366Y228047D01*
X370366D01*
X369366Y229047D01*
X368366Y228047D01*
X367366D01*
X368366Y227047D01*
X367366Y226047D01*
X368366D01*
X369366Y225047D01*
X-151939Y226504D02*
X-150939Y227504D01*
X-149939D01*
X-150939Y228504D01*
X-149939Y229504D01*
X-150939D01*
X-151939Y230504D01*
X-152939Y229504D01*
X-153939D01*
X-152939Y228504D01*
X-153939Y227504D01*
X-152939D01*
X-151939Y226504D01*
X-126303Y223197D02*
X-125303Y224197D01*
X-124303D01*
X-125303Y225197D01*
X-124303Y226197D01*
X-125303D01*
X-126303Y227197D01*
X-127303Y226197D01*
X-128303D01*
X-127303Y225197D01*
X-128303Y224197D01*
X-127303D01*
X-126303Y223197D01*
X413346Y187709D02*
X414346Y188709D01*
X415346D01*
X414346Y189709D01*
X415346Y190709D01*
X414346D01*
X413346Y191709D01*
X412346Y190709D01*
X411346D01*
X412346Y189709D01*
X411346Y188709D01*
X412346D01*
X413346Y187709D01*
X315339Y165358D02*
X316339Y166358D01*
X317339D01*
X316339Y167358D01*
X317339Y168358D01*
X316339D01*
X315339Y169358D01*
X314339Y168358D01*
X313339D01*
X314339Y167358D01*
X313339Y166358D01*
X314339D01*
X315339Y165358D01*
X512347Y220268D02*
X513346Y221268D01*
X514347D01*
X513346Y222268D01*
X514347Y223268D01*
X513346D01*
X512347Y224268D01*
X511346Y223268D01*
X510347D01*
X511346Y222268D01*
X510347Y221268D01*
X511346D01*
X512347Y220268D01*
X509205Y224335D02*
X510205Y225335D01*
X511205D01*
X510205Y226335D01*
X511205Y227335D01*
X510205D01*
X509205Y228335D01*
X508205Y227335D01*
X507205D01*
X508205Y226335D01*
X507205Y225335D01*
X508205D01*
X509205Y224335D01*
X368791Y177937D02*
X369791Y178937D01*
X370791D01*
X369791Y179937D01*
X370791Y180937D01*
X369791D01*
X368791Y181937D01*
X367791Y180937D01*
X366791D01*
X367791Y179937D01*
X366791Y178937D01*
X367791D01*
X368791Y177937D01*
X334303Y184346D02*
X335303Y185346D01*
X336303D01*
X335303Y186346D01*
X336303Y187346D01*
X335303D01*
X334303Y188347D01*
X333303Y187346D01*
X332303D01*
X333303Y186346D01*
X332303Y185346D01*
X333303D01*
X334303Y184346D01*
X312421Y194957D02*
X313421Y195957D01*
X314421D01*
X313421Y196957D01*
X314421Y197957D01*
X313421D01*
X312421Y198957D01*
X311421Y197957D01*
X310421D01*
X311421Y196957D01*
X310421Y195957D01*
X311421D01*
X312421Y194957D01*
X346264Y205232D02*
X347264Y206232D01*
X348264D01*
X347264Y207232D01*
X348264Y208232D01*
X347264D01*
X346264Y209232D01*
X345264Y208232D01*
X344264D01*
X345264Y207232D01*
X344264Y206232D01*
X345264D01*
X346264Y205232D01*
X334283Y208335D02*
X335283Y209335D01*
X336283D01*
X335283Y210335D01*
X336283Y211335D01*
X335283D01*
X334283Y212335D01*
X333283Y211335D01*
X332283D01*
X333283Y210335D01*
X332283Y209335D01*
X333283D01*
X334283Y208335D01*
X288016Y225610D02*
X289016Y226610D01*
X290016D01*
X289016Y227610D01*
X290016Y228610D01*
X289016D01*
X288016Y229610D01*
X287016Y228610D01*
X286016D01*
X287016Y227610D01*
X286016Y226610D01*
X287016D01*
X288016Y225610D01*
X268803Y238756D02*
X269803Y239756D01*
X270803D01*
X269803Y240756D01*
X270803Y241756D01*
X269803D01*
X268803Y242756D01*
X267803Y241756D01*
X266803D01*
X267803Y240756D01*
X266803Y239756D01*
X267803D01*
X268803Y238756D01*
X295434Y209186D02*
X296434Y210186D01*
X297434D01*
X296434Y211186D01*
X297434Y212186D01*
X296434D01*
X295434Y213186D01*
X294434Y212186D01*
X293434D01*
X294434Y211186D01*
X293434Y210186D01*
X294434D01*
X295434Y209186D01*
X365823Y182924D02*
X366823Y183924D01*
X367823D01*
X366823Y184924D01*
X367823Y185924D01*
X366823D01*
X365823Y186924D01*
X364823Y185924D01*
X363823D01*
X364823Y184924D01*
X363823Y183924D01*
X364823D01*
X365823Y182924D01*
X338256Y202012D02*
X339256Y203012D01*
X340256D01*
X339256Y204012D01*
X340256Y205012D01*
X339256D01*
X338256Y206012D01*
X337256Y205012D01*
X336256D01*
X337256Y204012D01*
X336256Y203012D01*
X337256D01*
X338256Y202012D01*
X340783Y202075D02*
X341783Y203075D01*
X342783D01*
X341783Y204075D01*
X342783Y205075D01*
X341783D01*
X340783Y206075D01*
X339783Y205075D01*
X338783D01*
X339783Y204075D01*
X338783Y203075D01*
X339783D01*
X340783Y202075D01*
X333984Y201772D02*
X334984Y202772D01*
X335984D01*
X334984Y203772D01*
X335984Y204772D01*
X334984D01*
X333984Y205772D01*
X332984Y204772D01*
X331984D01*
X332984Y203772D01*
X331984Y202772D01*
X332984D01*
X333984Y201772D01*
X339039Y184343D02*
X340039Y185343D01*
X341039D01*
X340039Y186343D01*
X341039Y187343D01*
X340039D01*
X339039Y188342D01*
X338039Y187343D01*
X337039D01*
X338039Y186343D01*
X337039Y185343D01*
X338039D01*
X339039Y184343D01*
X358878Y182689D02*
X359878Y183689D01*
X360878D01*
X359878Y184689D01*
X360878Y185689D01*
X359878D01*
X358878Y186689D01*
X357878Y185689D01*
X356878D01*
X357878Y184689D01*
X356878Y183689D01*
X357878D01*
X358878Y182689D01*
X358942Y186613D02*
X359942Y187613D01*
X360942D01*
X359942Y188613D01*
X360942Y189613D01*
X359942D01*
X358942Y190613D01*
X357942Y189613D01*
X356942D01*
X357942Y188613D01*
X356942Y187613D01*
X357942D01*
X358942Y186613D01*
X328791Y187299D02*
X329791Y188299D01*
X330791D01*
X329791Y189299D01*
X330791Y190299D01*
X329791D01*
X328791Y191299D01*
X327791Y190299D01*
X326791D01*
X327791Y189299D01*
X326791Y188299D01*
X327791D01*
X328791Y187299D01*
Y189858D02*
X329791Y190858D01*
X330791D01*
X329791Y191858D01*
X330791Y192858D01*
X329791D01*
X328791Y193858D01*
X327791Y192858D01*
X326791D01*
X327791Y191858D01*
X326791Y190858D01*
X327791D01*
X328791Y189858D01*
X339028Y187299D02*
X340028Y188299D01*
X341028D01*
X340028Y189299D01*
X341028Y190299D01*
X340028D01*
X339028Y191299D01*
X338028Y190299D01*
X337028D01*
X338028Y189299D01*
X337028Y188299D01*
X338028D01*
X339028Y187299D01*
X336469D02*
X337469Y188299D01*
X338469D01*
X337469Y189299D01*
X338469Y190299D01*
X337469D01*
X336469Y191299D01*
X335469Y190299D01*
X334469D01*
X335469Y189299D01*
X334469Y188299D01*
X335469D01*
X336469Y187299D01*
X333910Y189858D02*
X334910Y190858D01*
X335910D01*
X334910Y191858D01*
X335910Y192858D01*
X334910D01*
X333910Y193858D01*
X332910Y192858D01*
X331910D01*
X332910Y191858D01*
X331910Y190858D01*
X332910D01*
X333910Y189858D01*
X421835Y185669D02*
X422835Y186669D01*
X423835D01*
X422835Y187669D01*
X423835Y188669D01*
X422835D01*
X421835Y189669D01*
X420835Y188669D01*
X419835D01*
X420835Y187669D01*
X419835Y186669D01*
X420835D01*
X421835Y185669D01*
X371500Y187244D02*
X372500Y188244D01*
X373500D01*
X372500Y189244D01*
X373500Y190244D01*
X372500D01*
X371500Y191244D01*
X370500Y190244D01*
X369500D01*
X370500Y189244D01*
X369500Y188244D01*
X370500D01*
X371500Y187244D01*
X341398Y182673D02*
X342398Y183673D01*
X343398D01*
X342398Y184673D01*
X343398Y185673D01*
X342398D01*
X341398Y186673D01*
X340398Y185673D01*
X339398D01*
X340398Y184673D01*
X339398Y183673D01*
X340398D01*
X341398Y182673D01*
X347543Y181098D02*
X348543Y182098D01*
X349543D01*
X348543Y183098D01*
X349543Y184098D01*
X348543D01*
X347543Y185099D01*
X346543Y184098D01*
X345543D01*
X346543Y183098D01*
X345543Y182098D01*
X346543D01*
X347543Y181098D01*
X331350Y184740D02*
X332350Y185740D01*
X333350D01*
X332350Y186740D01*
X333350Y187740D01*
X332350D01*
X331350Y188740D01*
X330350Y187740D01*
X329350D01*
X330350Y186740D01*
X329350Y185740D01*
X330350D01*
X331350Y184740D01*
X370858Y220197D02*
X371858Y221197D01*
X372858D01*
X371858Y222197D01*
X372858Y223197D01*
X371858D01*
X370858Y224197D01*
X369858Y223197D01*
X368858D01*
X369858Y222197D01*
X368858Y221197D01*
X369858D01*
X370858Y220197D01*
X373098Y225051D02*
X374098Y226051D01*
X375098D01*
X374098Y227051D01*
X375098Y228051D01*
X374098D01*
X373098Y229051D01*
X372098Y228051D01*
X371098D01*
X372098Y227051D01*
X371098Y226051D01*
X372098D01*
X373098Y225051D01*
X915362Y229756D02*
X916362Y230756D01*
X917362D01*
X916362Y231756D01*
X917362Y232756D01*
X916362D01*
X915362Y233756D01*
X914362Y232756D01*
X913362D01*
X914362Y231756D01*
X913362Y230756D01*
X914362D01*
X915362Y229756D01*
X902681Y221642D02*
X903681Y222642D01*
X904681D01*
X903681Y223642D01*
X904681Y224642D01*
X903681D01*
X902681Y225642D01*
X901681Y224642D01*
X900681D01*
X901681Y223642D01*
X900681Y222642D01*
X901681D01*
X902681Y221642D01*
X363968Y192280D02*
X364968Y193280D01*
X365968D01*
X364968Y194280D01*
X365968Y195280D01*
X364968D01*
X363968Y196280D01*
X362968Y195280D01*
X361968D01*
X362968Y194280D01*
X361968Y193280D01*
X362968D01*
X363968Y192280D01*
X-130724Y231221D02*
X-129724Y232221D01*
X-128724D01*
X-129724Y233221D01*
X-128724Y234221D01*
X-129724D01*
X-130724Y235221D01*
X-131724Y234221D01*
X-132724D01*
X-131724Y233221D01*
X-132724Y232221D01*
X-131724D01*
X-130724Y231221D01*
X-144132Y231137D02*
X-143132Y232137D01*
X-142132D01*
X-143132Y233137D01*
X-142132Y234137D01*
X-143132D01*
X-144132Y235137D01*
X-145132Y234137D01*
X-146132D01*
X-145132Y233137D01*
X-146132Y232137D01*
X-145132D01*
X-144132Y231137D01*
X377594Y192961D02*
X378594Y193961D01*
X379594D01*
X378594Y194961D01*
X379594Y195961D01*
X378594D01*
X377594Y196961D01*
X376594Y195961D01*
X375594D01*
X376594Y194961D01*
X375594Y193961D01*
X376594D01*
X377594Y192961D01*
X892669Y215965D02*
X893669Y216965D01*
X894669D01*
X893669Y217965D01*
X894669Y218965D01*
X893669D01*
X892669Y219965D01*
X891669Y218965D01*
X890669D01*
X891669Y217965D01*
X890669Y216965D01*
X891669D01*
X892669Y215965D01*
X908051Y228204D02*
X909051Y229204D01*
X910051D01*
X909051Y230204D01*
X910051Y231204D01*
X909051D01*
X908051Y232204D01*
X907051Y231204D01*
X906051D01*
X907051Y230204D01*
X906051Y229204D01*
X907051D01*
X908051Y228204D01*
X-139992Y237736D02*
X-138992Y238736D01*
X-137992D01*
X-138992Y239736D01*
X-137992Y240736D01*
X-138992D01*
X-139992Y241736D01*
X-140992Y240736D01*
X-141992D01*
X-140992Y239736D01*
X-141992Y238736D01*
X-140992D01*
X-139992Y237736D01*
X346705Y194976D02*
X347705Y195976D01*
X348705D01*
X347705Y196976D01*
X348705Y197976D01*
X347705D01*
X346705Y198976D01*
X345705Y197976D01*
X344705D01*
X345705Y196976D01*
X344705Y195976D01*
X345705D01*
X346705Y194976D01*
X1040402Y246118D02*
X1041402Y247118D01*
X1042402D01*
X1041402Y248118D01*
X1042402Y249118D01*
X1041402D01*
X1040402Y250118D01*
X1039402Y249118D01*
X1038402D01*
X1039402Y248118D01*
X1038402Y247118D01*
X1039402D01*
X1040402Y246118D01*
X422241Y205077D02*
X423241Y206077D01*
X424241D01*
X423241Y207077D01*
X424241Y208077D01*
X423241D01*
X422241Y209076D01*
X421241Y208077D01*
X420241D01*
X421241Y207077D01*
X420241Y206077D01*
X421241D01*
X422241Y205077D01*
Y198784D02*
X423241Y199784D01*
X424241D01*
X423241Y200784D01*
X424241Y201784D01*
X423241D01*
X422241Y202784D01*
X421241Y201784D01*
X420241D01*
X421241Y200784D01*
X420241Y199784D01*
X421241D01*
X422241Y198784D01*
X402756Y187043D02*
X403756Y188043D01*
X404756D01*
X403756Y189043D01*
X404756Y190043D01*
X403756D01*
X402756Y191043D01*
X401756Y190043D01*
X400756D01*
X401756Y189043D01*
X400756Y188043D01*
X401756D01*
X402756Y187043D01*
X379441Y194968D02*
X380441Y195968D01*
X381441D01*
X380441Y196968D01*
X381441Y197968D01*
X380441D01*
X379441Y198969D01*
X378441Y197968D01*
X377441D01*
X378441Y196968D01*
X377441Y195968D01*
X378441D01*
X379441Y194968D01*
X424382Y233122D02*
X425382Y234122D01*
X426382D01*
X425382Y235122D01*
X426382Y236122D01*
X425382D01*
X424382Y237122D01*
X423382Y236122D01*
X422382D01*
X423382Y235122D01*
X422382Y234122D01*
X423382D01*
X424382Y233122D01*
X364209Y199819D02*
X365209Y200819D01*
X366209D01*
X365209Y201819D01*
X366209Y202819D01*
X365209D01*
X364209Y203819D01*
X363209Y202819D01*
X362209D01*
X363209Y201819D01*
X362209Y200819D01*
X363209D01*
X364209Y199819D01*
X341587Y189858D02*
X342587Y190858D01*
X343587D01*
X342587Y191858D01*
X343587Y192858D01*
X342587D01*
X341587Y193858D01*
X340587Y192858D01*
X339587D01*
X340587Y191858D01*
X339587Y190858D01*
X340587D01*
X341587Y189858D01*
X912500Y237037D02*
X913500Y238037D01*
X914500D01*
X913500Y239037D01*
X914500Y240037D01*
X913500D01*
X912500Y241037D01*
X911500Y240037D01*
X910500D01*
X911500Y239037D01*
X910500Y238037D01*
X911500D01*
X912500Y237037D01*
X1093248Y248134D02*
X1094248Y249134D01*
X1095248D01*
X1094248Y250134D01*
X1095248Y251134D01*
X1094248D01*
X1093248Y252134D01*
X1092248Y251134D01*
X1091248D01*
X1092248Y250134D01*
X1091248Y249134D01*
X1092248D01*
X1093248Y248134D01*
X499803Y219874D02*
X500803Y220874D01*
X501803D01*
X500803Y221874D01*
X501803Y222874D01*
X500803D01*
X499803Y223874D01*
X498803Y222874D01*
X497803D01*
X498803Y221874D01*
X497803Y220874D01*
X498803D01*
X499803Y219874D01*
X343270Y205028D02*
X344270Y206028D01*
X345270D01*
X344270Y207028D01*
X345270Y208028D01*
X344270D01*
X343270Y209028D01*
X342270Y208028D01*
X341270D01*
X342270Y207028D01*
X341270Y206028D01*
X342270D01*
X343270Y205028D01*
X351823Y192417D02*
X352823Y193417D01*
X353823D01*
X352823Y194417D01*
X353823Y195417D01*
X352823D01*
X351823Y196417D01*
X350823Y195417D01*
X349823D01*
X350823Y194417D01*
X349823Y193417D01*
X350823D01*
X351823Y192417D01*
X343665Y202075D02*
X344665Y203075D01*
X345665D01*
X344665Y204075D01*
X345665Y205075D01*
X344665D01*
X343665Y206075D01*
X342665Y205075D01*
X341665D01*
X342665Y204075D01*
X341665Y203075D01*
X342665D01*
X343665Y202075D01*
X-137142Y222087D02*
X-136142Y223087D01*
X-135142D01*
X-136142Y224087D01*
X-135142Y225087D01*
X-136142D01*
X-137142Y226087D01*
X-138142Y225087D01*
X-139142D01*
X-138142Y224087D01*
X-139142Y223087D01*
X-138142D01*
X-137142Y222087D01*
X-135236Y216122D02*
X-134236Y217122D01*
X-133236D01*
X-134236Y218122D01*
X-133236Y219122D01*
X-134236D01*
X-135236Y220122D01*
X-136236Y219122D01*
X-137236D01*
X-136236Y218122D01*
X-137236Y217122D01*
X-136236D01*
X-135236Y216122D01*
X359150Y197146D02*
X360150Y198146D01*
X361150D01*
X360150Y199146D01*
X361150Y200146D01*
X360150D01*
X359150Y201146D01*
X358150Y200146D01*
X357150D01*
X358150Y199146D01*
X357150Y198146D01*
X358150D01*
X359150Y197146D01*
X363429Y197547D02*
X364429Y198547D01*
X365429D01*
X364429Y199547D01*
X365429Y200547D01*
X364429D01*
X363429Y201547D01*
X362429Y200547D01*
X361429D01*
X362429Y199547D01*
X361429Y198547D01*
X362429D01*
X363429Y197547D01*
X348949Y202075D02*
X349949Y203075D01*
X350949D01*
X349949Y204075D01*
X350949Y205075D01*
X349949D01*
X348949Y206075D01*
X347949Y205075D01*
X346949D01*
X347949Y204075D01*
X346949Y203075D01*
X347949D01*
X348949Y202075D01*
X344146Y189858D02*
X345146Y190858D01*
X346146D01*
X345146Y191858D01*
X346146Y192858D01*
X345146D01*
X344146Y193858D01*
X343146Y192858D01*
X342146D01*
X343146Y191858D01*
X342146Y190858D01*
X343146D01*
X344146Y189858D01*
X920075Y245957D02*
X921075Y246957D01*
X922075D01*
X921075Y247957D01*
X922075Y248957D01*
X921075D01*
X920075Y249957D01*
X919075Y248957D01*
X918075D01*
X919075Y247957D01*
X918075Y246957D01*
X919075D01*
X920075Y245957D01*
X345988Y212850D02*
X346988Y213850D01*
X347988D01*
X346988Y214850D01*
X347988Y215850D01*
X346988D01*
X345988Y216850D01*
X344988Y215850D01*
X343988D01*
X344988Y214850D01*
X343988Y213850D01*
X344988D01*
X345988Y212850D01*
X410539Y209776D02*
X411539Y210776D01*
X412539D01*
X411539Y211776D01*
X412539Y212776D01*
X411539D01*
X410539Y213776D01*
X409539Y212776D01*
X408539D01*
X409539Y211776D01*
X408539Y210776D01*
X409539D01*
X410539Y209776D01*
X358854Y191141D02*
X359854Y192141D01*
X360854D01*
X359854Y193141D01*
X360854Y194141D01*
X359854D01*
X358854Y195141D01*
X357854Y194141D01*
X356854D01*
X357854Y193141D01*
X356854Y192141D01*
X357854D01*
X358854Y191141D01*
X336469Y194976D02*
X337469Y195976D01*
X338469D01*
X337469Y196976D01*
X338469Y197976D01*
X337469D01*
X336469Y198976D01*
X335469Y197976D01*
X334469D01*
X335469Y196976D01*
X334469Y195976D01*
X335469D01*
X336469Y194976D01*
X385221Y218370D02*
X386221Y219370D01*
X387221D01*
X386221Y220370D01*
X387221Y221370D01*
X386221D01*
X385221Y222370D01*
X384221Y221370D01*
X383221D01*
X384221Y220370D01*
X383221Y219370D01*
X384221D01*
X385221Y218370D01*
X406787Y212835D02*
X407787Y213835D01*
X408787D01*
X407787Y214835D01*
X408787Y215835D01*
X407787D01*
X406787Y216835D01*
X405787Y215835D01*
X404787D01*
X405787Y214835D01*
X404787Y213835D01*
X405787D01*
X406787Y212835D01*
X416390Y242028D02*
X417390Y243028D01*
X418390D01*
X417390Y244028D01*
X418390Y245028D01*
X417390D01*
X416390Y246028D01*
X415390Y245028D01*
X414390D01*
X415390Y244028D01*
X414390Y243028D01*
X415390D01*
X416390Y242028D01*
X-227248Y223185D02*
X-226248Y224185D01*
X-225248D01*
X-226248Y225185D01*
X-225248Y226185D01*
X-226248D01*
X-227248Y227185D01*
X-228248Y226185D01*
X-229248D01*
X-228248Y225185D01*
X-229248Y224185D01*
X-228248D01*
X-227248Y223185D01*
X346705Y189858D02*
X347705Y190858D01*
X348705D01*
X347705Y191858D01*
X348705Y192858D01*
X347705D01*
X346705Y193858D01*
X345705Y192858D01*
X344705D01*
X345705Y191858D01*
X344705Y190858D01*
X345705D01*
X346705Y189858D01*
X-140012Y240047D02*
X-139012Y241047D01*
X-138012D01*
X-139012Y242047D01*
X-138012Y243047D01*
X-139012D01*
X-140012Y244047D01*
X-141012Y243047D01*
X-142012D01*
X-141012Y242047D01*
X-142012Y241047D01*
X-141012D01*
X-140012Y240047D01*
X339028Y189858D02*
X340028Y190858D01*
X341028D01*
X340028Y191858D01*
X341028Y192858D01*
X340028D01*
X339028Y193858D01*
X338028Y192858D01*
X337028D01*
X338028Y191858D01*
X337028Y190858D01*
X338028D01*
X339028Y189858D01*
X-132705Y238374D02*
X-131705Y239374D01*
X-130705D01*
X-131705Y240374D01*
X-130705Y241374D01*
X-131705D01*
X-132705Y242374D01*
X-133705Y241374D01*
X-134705D01*
X-133705Y240374D01*
X-134705Y239374D01*
X-133705D01*
X-132705Y238374D01*
X1076799Y244331D02*
X1077799Y245331D01*
X1078799D01*
X1077799Y246331D01*
X1078799Y247331D01*
X1077799D01*
X1076799Y248331D01*
X1075799Y247331D01*
X1074799D01*
X1075799Y246331D01*
X1074799Y245331D01*
X1075799D01*
X1076799Y244331D01*
X922787Y234437D02*
X923787Y235437D01*
X924787D01*
X923787Y236437D01*
X924787Y237437D01*
X923787D01*
X922787Y238437D01*
X921787Y237437D01*
X920787D01*
X921787Y236437D01*
X920787Y235437D01*
X921787D01*
X922787Y234437D01*
X1028102Y245516D02*
X1029102Y246516D01*
X1030102D01*
X1029102Y247516D01*
X1030102Y248516D01*
X1029102D01*
X1028102Y249516D01*
X1027102Y248516D01*
X1026102D01*
X1027102Y247516D01*
X1026102Y246516D01*
X1027102D01*
X1028102Y245516D01*
X925687Y242288D02*
X926687Y243288D01*
X927687D01*
X926687Y244288D01*
X927687Y245288D01*
X926687D01*
X925687Y246288D01*
X924687Y245288D01*
X923687D01*
X924687Y244288D01*
X923687Y243288D01*
X924687D01*
X925687Y242288D01*
X1045925Y238583D02*
X1046925Y239583D01*
X1047925D01*
X1046925Y240583D01*
X1047925Y241583D01*
X1046925D01*
X1045925Y242583D01*
X1044925Y241583D01*
X1043925D01*
X1044925Y240583D01*
X1043925Y239583D01*
X1044925D01*
X1045925Y238583D01*
X907059Y248925D02*
X908059Y249925D01*
X909059D01*
X908059Y250925D01*
X909059Y251925D01*
X908059D01*
X907059Y252925D01*
X906059Y251925D01*
X905059D01*
X906059Y250925D01*
X905059Y249925D01*
X906059D01*
X907059Y248925D01*
X445299Y206780D02*
X446299Y207780D01*
X447299D01*
X446299Y208780D01*
X447299Y209780D01*
X446299D01*
X445299Y210780D01*
X444299Y209780D01*
X443299D01*
X444299Y208780D01*
X443299Y207780D01*
X444299D01*
X445299Y206780D01*
X462016Y224811D02*
X463016Y225811D01*
X464016D01*
X463016Y226811D01*
X464016Y227811D01*
X463016D01*
X462016Y228811D01*
X461016Y227811D01*
X460016D01*
X461016Y226811D01*
X460016Y225811D01*
X461016D01*
X462016Y224811D01*
X395862Y191693D02*
X396862Y192693D01*
X397862D01*
X396862Y193693D01*
X397862Y194693D01*
X396862D01*
X395862Y195693D01*
X394862Y194693D01*
X393862D01*
X394862Y193693D01*
X393862Y192693D01*
X394862D01*
X395862Y191693D01*
X419209Y196110D02*
X420209Y197110D01*
X421209D01*
X420209Y198110D01*
X421209Y199110D01*
X420209D01*
X419209Y200110D01*
X418209Y199110D01*
X417209D01*
X418209Y198110D01*
X417209Y197110D01*
X418209D01*
X419209Y196110D01*
X382311Y249606D02*
X383311Y250606D01*
X384311D01*
X383311Y251606D01*
X384311Y252606D01*
X383311D01*
X382311Y253606D01*
X381311Y252606D01*
X380311D01*
X381311Y251606D01*
X380311Y250606D01*
X381311D01*
X382311Y249606D01*
X405358Y247791D02*
X406358Y248791D01*
X407358D01*
X406358Y249791D01*
X407358Y250791D01*
X406358D01*
X405358Y251791D01*
X404358Y250791D01*
X403358D01*
X404358Y249791D01*
X403358Y248791D01*
X404358D01*
X405358Y247791D01*
D90*
X-144500Y240283D02*
G03*
X-144500Y240283I-2000J0D01*
G01*
Y243433D02*
G03*
X-144500Y243433I-2000J0D01*
G01*
X915646Y248602D02*
G03*
X915646Y248602I-2000J0D01*
G01*
Y251752D02*
G03*
X915646Y251752I-2000J0D01*
G01*
X913792Y225850D02*
G03*
X913792Y225850I-2000J0D01*
G01*
Y222701D02*
G03*
X913792Y222701I-2000J0D01*
G01*
X-143575Y223201D02*
G03*
X-143575Y223201I-2000J0D01*
G01*
Y226350D02*
G03*
X-143575Y226350I-2000J0D01*
G01*
M02*
