G04*
G04 #@! TF.GenerationSoftware,Altium Limited,Altium Designer,25.4.2 (15)*
G04*
G04 Layer_Physical_Order=1*
G04 Layer_Color=255*
%FSLAX25Y25*%
%MOIN*%
G70*
G04*
G04 #@! TF.SameCoordinates,B381EF2E-10D5-482A-8D50-A371A0F0C416*
G04*
G04*
G04 #@! TF.FilePolarity,Positive*
G04*
G01*
G75*
%ADD10R,0.02047X0.02205*%
%ADD14R,0.02362X0.02362*%
%ADD15R,0.01575X0.01575*%
%ADD16R,0.02205X0.02047*%
%ADD17P,0.03229X4X180.0*%
%ADD18C,0.00988*%
%ADD19C,0.01098*%
%ADD20C,0.00591*%
%ADD21C,0.01575*%
G36*
X-228228Y-58933D02*
X-229213D01*
X-230039Y-58106D01*
X-230039Y-57713D01*
X-228228Y-57713D01*
X-228228Y-58933D01*
D02*
G37*
G36*
X-231614Y-57713D02*
X-231614Y-58106D01*
X-232441Y-58933D01*
X-233425Y-58933D01*
X-233425Y-57713D01*
X-231614Y-57713D01*
D02*
G37*
G36*
X-176042Y-56075D02*
X-175489Y-56629D01*
X-175189Y-57353D01*
Y-57744D01*
Y-58136D01*
X-175489Y-58859D01*
X-176042Y-59413D01*
X-176766Y-59713D01*
X-177549D01*
X-178273Y-59413D01*
X-178826Y-58859D01*
X-179126Y-58136D01*
Y-57744D01*
Y-57353D01*
X-178826Y-56629D01*
X-178273Y-56075D01*
X-177549Y-55776D01*
X-176766D01*
X-176042Y-56075D01*
D02*
G37*
G36*
X-228228Y-61532D02*
X-230039D01*
X-230039Y-61138D01*
X-229213Y-60311D01*
X-228228Y-60311D01*
X-228228Y-61532D01*
D02*
G37*
G36*
X-231614Y-61138D02*
X-231614Y-61532D01*
X-233425Y-61532D01*
X-233425Y-60311D01*
X-232441D01*
X-231614Y-61138D01*
D02*
G37*
G36*
X-176042Y-61981D02*
X-175489Y-62534D01*
X-175189Y-63258D01*
Y-63650D01*
Y-64041D01*
X-175489Y-64765D01*
X-176042Y-65318D01*
X-176766Y-65618D01*
X-177549D01*
X-178273Y-65318D01*
X-178826Y-64765D01*
X-179126Y-64041D01*
Y-63650D01*
Y-63258D01*
X-178826Y-62534D01*
X-178273Y-61981D01*
X-177549Y-61681D01*
X-176766D01*
X-176042Y-61981D01*
D02*
G37*
G36*
X-230338Y-67280D02*
X-229784Y-67834D01*
X-229484Y-68557D01*
Y-68949D01*
Y-69340D01*
X-229784Y-70064D01*
X-230338Y-70618D01*
X-231061Y-70917D01*
X-231844D01*
X-232568Y-70618D01*
X-233122Y-70064D01*
X-233421Y-69340D01*
Y-68949D01*
Y-68557D01*
X-233122Y-67834D01*
X-232568Y-67280D01*
X-231844Y-66980D01*
X-231061D01*
X-230338Y-67280D01*
D02*
G37*
G36*
X-176243Y-70056D02*
X-175689Y-70609D01*
X-175390Y-71333D01*
Y-71724D01*
Y-72116D01*
X-175689Y-72839D01*
X-176243Y-73393D01*
X-176967Y-73693D01*
X-177750D01*
X-178473Y-73393D01*
X-179027Y-72839D01*
X-179327Y-72116D01*
Y-71724D01*
Y-71333D01*
X-179027Y-70609D01*
X-178473Y-70056D01*
X-177750Y-69756D01*
X-176967D01*
X-176243Y-70056D01*
D02*
G37*
D10*
X-225169Y-61020D02*
D03*
Y-57949D02*
D03*
D14*
X-192705Y-57323D02*
D03*
X-219083D02*
D03*
X-192705Y-83701D02*
D03*
X-219083D02*
D03*
D15*
X-193098Y-62047D02*
D03*
X-195657D02*
D03*
Y-59488D02*
D03*
Y-56929D02*
D03*
Y-64606D02*
D03*
X-198216Y-59488D02*
D03*
Y-62047D02*
D03*
Y-56929D02*
D03*
X-200775D02*
D03*
Y-59488D02*
D03*
X-200776Y-62047D02*
D03*
X-203335Y-59488D02*
D03*
Y-56929D02*
D03*
Y-62047D02*
D03*
X-205894Y-56929D02*
D03*
Y-59488D02*
D03*
Y-62047D02*
D03*
X-208453Y-59488D02*
D03*
Y-56929D02*
D03*
Y-62047D02*
D03*
X-211012Y-56929D02*
D03*
Y-59488D02*
D03*
Y-62047D02*
D03*
X-213571Y-59488D02*
D03*
Y-62047D02*
D03*
Y-56929D02*
D03*
X-216130Y-59488D02*
D03*
Y-56929D02*
D03*
Y-62047D02*
D03*
X-218689D02*
D03*
X-193098Y-64606D02*
D03*
Y-67165D02*
D03*
Y-79961D02*
D03*
Y-69724D02*
D03*
Y-74843D02*
D03*
X-195657Y-69724D02*
D03*
Y-67165D02*
D03*
X-198216Y-69724D02*
D03*
Y-67165D02*
D03*
Y-84095D02*
D03*
Y-64606D02*
D03*
X-200775Y-67165D02*
D03*
Y-69724D02*
D03*
Y-64606D02*
D03*
X-203335Y-67165D02*
D03*
Y-64606D02*
D03*
X-205894D02*
D03*
X-208453D02*
D03*
X-211012D02*
D03*
X-213571D02*
D03*
X-216130D02*
D03*
X-218689D02*
D03*
X-205894Y-67165D02*
D03*
X-208453D02*
D03*
X-218689D02*
D03*
X-211012D02*
D03*
X-213571D02*
D03*
X-216130D02*
D03*
X-203335Y-69724D02*
D03*
X-205894D02*
D03*
X-208453D02*
D03*
X-216130D02*
D03*
X-218689D02*
D03*
X-211012D02*
D03*
X-213571D02*
D03*
X-218689Y-74843D02*
D03*
Y-79961D02*
D03*
X-203335Y-84095D02*
D03*
X-208453D02*
D03*
X-213571D02*
D03*
D16*
X-232031Y-54154D02*
D03*
X-228961D02*
D03*
D17*
X-230827Y-59622D02*
D03*
D18*
X-232635Y-60982D02*
D03*
Y-58262D02*
D03*
D19*
X-228838Y-58323D02*
D03*
Y-60921D02*
D03*
D20*
Y-58323D02*
X-228701D01*
X-228327Y-57949D01*
X-225169D01*
X-224543Y-57323D01*
X-219083D01*
X-193098Y-62047D02*
X-191122Y-60071D01*
X-179724D02*
X-177492Y-57839D01*
X-179402Y-69724D02*
X-177433Y-71693D01*
X-185150Y-69724D02*
X-179402D01*
X-193098D02*
X-185150D01*
X-191122Y-60071D02*
X-179724D01*
X-192613Y-57414D02*
X-188161D01*
X-192705Y-57323D02*
X-192613Y-57414D01*
X-193098Y-64606D02*
X-178252D01*
X-177311Y-63665D01*
X-203335Y-69724D02*
X-200775D01*
X-192705Y-57323D02*
Y-54791D01*
X-193315Y-54181D02*
X-192705Y-54791D01*
X-217067Y-54181D02*
X-193315D01*
X-218098Y-55212D02*
X-217067Y-54181D01*
X-218098Y-56339D02*
Y-55212D01*
X-219083Y-57323D02*
X-218098Y-56339D01*
X-219083Y-57323D02*
X-216523D01*
X-216130Y-56929D01*
X-224465Y-61157D02*
X-223835Y-61787D01*
X-223756D01*
X-223496Y-62047D01*
X-218689D01*
X-224622Y-60921D02*
X-224465Y-61079D01*
X-230827Y-59622D02*
X-230138D01*
X-228838Y-58323D01*
X-233752Y-59865D02*
Y-59539D01*
Y-59865D02*
X-232635Y-60982D01*
X-233752Y-59539D02*
X-232635Y-58422D01*
X-232796Y-58262D02*
X-232635Y-58422D01*
X-232655Y-54777D02*
X-232031Y-54154D01*
X-228838Y-58323D02*
Y-56555D01*
X-229413Y-55980D02*
X-228838Y-56555D01*
X-232635Y-67716D02*
Y-60982D01*
Y-67716D02*
X-231508Y-68843D01*
X-223394Y-69728D02*
X-218693D01*
X-218689Y-69724D01*
X-229413Y-54606D02*
X-228961Y-54154D01*
X-232635Y-54757D02*
X-232031Y-54154D01*
X-232635Y-58262D02*
Y-54757D01*
X-229413Y-55980D02*
Y-54606D01*
X-228838Y-60921D02*
X-224622D01*
D21*
X-223394Y-69728D02*
D03*
X-205894Y-69724D02*
D03*
X-203335Y-67165D02*
D03*
X-198216Y-69724D02*
D03*
X-188161Y-57414D02*
D03*
X-185150Y-69724D02*
D03*
M02*
