G04*
G04 #@! TF.GenerationSoftware,Altium Limited,Altium Designer,25.4.2 (15)*
G04*
G04 Layer_Color=8388736*
%FSLAX25Y25*%
%MOIN*%
G70*
G04*
G04 #@! TF.SameCoordinates,B381EF2E-10D5-482A-8D50-A371A0F0C416*
G04*
G04*
G04 #@! TF.FilePolarity,Negative*
G04*
G01*
G75*
%ADD10R,0.02047X0.02205*%
%ADD14R,0.02362X0.02362*%
%ADD15R,0.01575X0.01575*%
%ADD16R,0.02205X0.02047*%
%ADD17P,0.03229X4X180.0*%
%ADD18C,0.00988*%
%ADD19C,0.01098*%
G36*
X-228425Y-58736D02*
X-229134Y-58736D01*
X-229842Y-58028D01*
X-229842Y-57910D01*
X-228425D01*
Y-58736D01*
D02*
G37*
G36*
X-231811Y-57910D02*
X-231811Y-58028D01*
X-232520Y-58736D01*
X-233228Y-58736D01*
X-233228Y-57910D01*
X-231811Y-57910D01*
D02*
G37*
G36*
X-176042Y-56075D02*
X-175489Y-56629D01*
X-175189Y-57353D01*
Y-57744D01*
Y-58136D01*
X-175489Y-58859D01*
X-176042Y-59413D01*
X-176766Y-59713D01*
X-177549D01*
X-178273Y-59413D01*
X-178826Y-58859D01*
X-179126Y-58136D01*
Y-57744D01*
Y-57353D01*
X-178826Y-56629D01*
X-178273Y-56075D01*
X-177549Y-55776D01*
X-176766D01*
X-176042Y-56075D01*
D02*
G37*
G36*
X-230688Y-58425D02*
X-229630Y-59483D01*
X-229630Y-59762D01*
X-230688Y-60819D01*
X-230966D01*
X-232024Y-59761D01*
X-232024Y-59483D01*
X-230966Y-58425D01*
X-230688Y-58425D01*
D02*
G37*
G36*
X-228425Y-60508D02*
Y-61335D01*
X-229842D01*
Y-61216D01*
X-229134Y-60508D01*
X-228425Y-60508D01*
D02*
G37*
G36*
X-232520D02*
X-231811Y-61216D01*
X-231811Y-61335D01*
X-233228Y-61335D01*
X-233228Y-60508D01*
X-232520Y-60508D01*
D02*
G37*
G36*
X-176042Y-61981D02*
X-175489Y-62534D01*
X-175189Y-63258D01*
Y-63650D01*
Y-64041D01*
X-175489Y-64765D01*
X-176042Y-65318D01*
X-176766Y-65618D01*
X-177549D01*
X-178273Y-65318D01*
X-178826Y-64765D01*
X-179126Y-64041D01*
Y-63650D01*
Y-63258D01*
X-178826Y-62534D01*
X-178273Y-61981D01*
X-177549Y-61681D01*
X-176766D01*
X-176042Y-61981D01*
D02*
G37*
G36*
X-230338Y-67280D02*
X-229784Y-67834D01*
X-229484Y-68557D01*
Y-68949D01*
Y-69340D01*
X-229784Y-70064D01*
X-230338Y-70618D01*
X-231061Y-70917D01*
X-231844D01*
X-232568Y-70618D01*
X-233122Y-70064D01*
X-233421Y-69340D01*
Y-68949D01*
Y-68557D01*
X-233122Y-67834D01*
X-232568Y-67280D01*
X-231844Y-66980D01*
X-231061D01*
X-230338Y-67280D01*
D02*
G37*
G36*
X-176243Y-70056D02*
X-175689Y-70609D01*
X-175390Y-71333D01*
Y-71724D01*
Y-72116D01*
X-175689Y-72839D01*
X-176243Y-73393D01*
X-176967Y-73693D01*
X-177750D01*
X-178473Y-73393D01*
X-179027Y-72839D01*
X-179327Y-72116D01*
Y-71724D01*
Y-71333D01*
X-179027Y-70609D01*
X-178473Y-70056D01*
X-177750Y-69756D01*
X-176967D01*
X-176243Y-70056D01*
D02*
G37*
D10*
X-225169Y-61020D02*
D03*
Y-57949D02*
D03*
D14*
X-192705Y-57323D02*
D03*
X-219083D02*
D03*
X-192705Y-83701D02*
D03*
X-219083D02*
D03*
D15*
X-193098Y-62047D02*
D03*
X-195657D02*
D03*
Y-59488D02*
D03*
Y-56929D02*
D03*
Y-64606D02*
D03*
X-198216Y-59488D02*
D03*
Y-62047D02*
D03*
Y-56929D02*
D03*
X-200775D02*
D03*
Y-59488D02*
D03*
X-200776Y-62047D02*
D03*
X-203335Y-59488D02*
D03*
Y-56929D02*
D03*
Y-62047D02*
D03*
X-205894Y-56929D02*
D03*
Y-59488D02*
D03*
Y-62047D02*
D03*
X-208453Y-59488D02*
D03*
Y-56929D02*
D03*
Y-62047D02*
D03*
X-211012Y-56929D02*
D03*
Y-59488D02*
D03*
Y-62047D02*
D03*
X-213571Y-59488D02*
D03*
Y-62047D02*
D03*
Y-56929D02*
D03*
X-216130Y-59488D02*
D03*
Y-56929D02*
D03*
Y-62047D02*
D03*
X-218689D02*
D03*
X-193098Y-64606D02*
D03*
Y-67165D02*
D03*
Y-79961D02*
D03*
Y-69724D02*
D03*
Y-74843D02*
D03*
X-195657Y-69724D02*
D03*
Y-67165D02*
D03*
X-198216Y-69724D02*
D03*
Y-67165D02*
D03*
Y-84095D02*
D03*
Y-64606D02*
D03*
X-200775Y-67165D02*
D03*
Y-69724D02*
D03*
Y-64606D02*
D03*
X-203335Y-67165D02*
D03*
Y-64606D02*
D03*
X-205894D02*
D03*
X-208453D02*
D03*
X-211012D02*
D03*
X-213571D02*
D03*
X-216130D02*
D03*
X-218689D02*
D03*
X-205894Y-67165D02*
D03*
X-208453D02*
D03*
X-218689D02*
D03*
X-211012D02*
D03*
X-213571D02*
D03*
X-216130D02*
D03*
X-203335Y-69724D02*
D03*
X-205894D02*
D03*
X-208453D02*
D03*
X-216130D02*
D03*
X-218689D02*
D03*
X-211012D02*
D03*
X-213571D02*
D03*
X-218689Y-74843D02*
D03*
Y-79961D02*
D03*
X-203335Y-84095D02*
D03*
X-208453D02*
D03*
X-213571D02*
D03*
D16*
X-232031Y-54154D02*
D03*
X-228961D02*
D03*
D17*
X-230827Y-59622D02*
D03*
D18*
X-232635Y-60982D02*
D03*
Y-58262D02*
D03*
D19*
X-228838Y-58323D02*
D03*
Y-60921D02*
D03*
M02*
