G04*
G04 #@! TF.GenerationSoftware,Altium Limited,Altium Designer,25.8.1 (18)*
G04*
G04 Layer_Color=8388736*
%FSLAX25Y25*%
%MOIN*%
G70*
G04*
G04 #@! TF.SameCoordinates,4AC38C5C-1B46-43B7-816B-83FC85482749*
G04*
G04*
G04 #@! TF.FilePolarity,Positive*
G04*
G01*
G75*
%ADD13C,0.00051*%
%ADD69C,0.00394*%
D13*
X320484Y263114D02*
X363004D01*
D69*
X373744Y263795D02*
Y262615D01*
X373154D01*
X372957Y262811D01*
Y263205D01*
X373154Y263402D01*
X373744D01*
X371776Y262811D02*
X371973Y262615D01*
X372366D01*
X372563Y262811D01*
Y263599D01*
X372366Y263795D01*
X371973D01*
X371776Y263599D01*
X371382Y262615D02*
Y263795D01*
X370792D01*
X370595Y263599D01*
Y263402D01*
X370792Y263205D01*
X371382D01*
X370792D01*
X370595Y263008D01*
Y262811D01*
X370792Y262615D01*
X371382D01*
X368234D02*
X369021D01*
Y263795D01*
X368234D01*
X369021Y263205D02*
X368628D01*
X367840Y262615D02*
Y263795D01*
X367250D01*
X367053Y263599D01*
Y262811D01*
X367250Y262615D01*
X367840D01*
X365873Y262811D02*
X366069Y262615D01*
X366463D01*
X366660Y262811D01*
Y263599D01*
X366463Y263795D01*
X366069D01*
X365873Y263599D01*
Y263205D01*
X366266D01*
X364692Y262615D02*
X365479D01*
Y263795D01*
X364692D01*
X365479Y263205D02*
X365085D01*
M02*
