G04*
G04 #@! TF.GenerationSoftware,Altium Limited,Altium Designer,25.8.1 (18)*
G04*
G04 Layer_Physical_Order=1*
G04 Layer_Color=255*
%FSLAX25Y25*%
%MOIN*%
G70*
G04*
G04 #@! TF.SameCoordinates,0636D6F4-90F1-4F74-A5AB-28ACEA2C2FB7*
G04*
G04*
G04 #@! TF.FilePolarity,Positive*
G04*
G01*
G75*
%ADD12C,0.00787*%
%ADD16R,0.04168X0.03985*%
%ADD17R,0.03504X0.03661*%
%ADD18R,0.02362X0.02362*%
%ADD19R,0.01575X0.01575*%
%ADD20R,0.04724X0.03543*%
%ADD21R,0.01968X0.00984*%
G04:AMPARAMS|DCode=22|XSize=52.69mil|YSize=22.75mil|CornerRadius=11.38mil|HoleSize=0mil|Usage=FLASHONLY|Rotation=180.000|XOffset=0mil|YOffset=0mil|HoleType=Round|Shape=RoundedRectangle|*
%AMROUNDEDRECTD22*
21,1,0.05269,0.00000,0,0,180.0*
21,1,0.02993,0.02275,0,0,180.0*
1,1,0.02275,-0.01497,0.00000*
1,1,0.02275,0.01497,0.00000*
1,1,0.02275,0.01497,0.00000*
1,1,0.02275,-0.01497,0.00000*
%
%ADD22ROUNDEDRECTD22*%
%ADD23R,0.02047X0.02047*%
%ADD24R,0.04724X0.05512*%
%ADD25R,0.02913X0.03071*%
G04:AMPARAMS|DCode=26|XSize=21.65mil|YSize=19.68mil|CornerRadius=2.46mil|HoleSize=0mil|Usage=FLASHONLY|Rotation=90.000|XOffset=0mil|YOffset=0mil|HoleType=Round|Shape=RoundedRectangle|*
%AMROUNDEDRECTD26*
21,1,0.02165,0.01476,0,0,90.0*
21,1,0.01673,0.01968,0,0,90.0*
1,1,0.00492,0.00738,0.00837*
1,1,0.00492,0.00738,-0.00837*
1,1,0.00492,-0.00738,-0.00837*
1,1,0.00492,-0.00738,0.00837*
%
%ADD26ROUNDEDRECTD26*%
%ADD27R,0.05269X0.02275*%
%ADD28R,0.04331X0.05709*%
%ADD29R,0.15748X0.05709*%
%ADD30R,0.02047X0.02047*%
%ADD31R,0.03937X0.03937*%
%ADD32R,0.01870X0.00984*%
%ADD33R,0.00984X0.01870*%
%ADD34R,0.09449X0.02992*%
G04:AMPARAMS|DCode=35|XSize=57.87mil|YSize=11.02mil|CornerRadius=1.38mil|HoleSize=0mil|Usage=FLASHONLY|Rotation=0.000|XOffset=0mil|YOffset=0mil|HoleType=Round|Shape=RoundedRectangle|*
%AMROUNDEDRECTD35*
21,1,0.05787,0.00827,0,0,0.0*
21,1,0.05512,0.01102,0,0,0.0*
1,1,0.00276,0.02756,-0.00413*
1,1,0.00276,-0.02756,-0.00413*
1,1,0.00276,-0.02756,0.00413*
1,1,0.00276,0.02756,0.00413*
%
%ADD35ROUNDEDRECTD35*%
%ADD36R,0.03071X0.02913*%
%ADD37R,0.03150X0.06693*%
%ADD38R,0.07087X0.07480*%
%ADD39R,0.01575X0.05512*%
%ADD40R,0.04331X0.05118*%
%ADD41R,0.09055X0.07480*%
%ADD42R,0.03400X0.04300*%
%ADD64C,0.03543*%
%ADD65C,0.02953*%
%ADD69C,0.00394*%
%ADD70C,0.00394*%
%ADD71C,0.03937*%
%ADD72R,0.00197X0.00197*%
%ADD73R,0.00394X0.00394*%
%ADD74R,0.03543X0.06299*%
%ADD75C,0.01968*%
%ADD76C,0.01181*%
%ADD77C,0.00500*%
%ADD78C,0.01000*%
%ADD79C,0.04724*%
%ADD80R,0.04724X0.04724*%
%ADD81C,0.01968*%
%ADD82C,0.01772*%
%ADD83C,0.00591*%
G36*
X504608Y254468D02*
X508917Y250159D01*
X508720Y247106D01*
X500335Y238720D01*
X494744D01*
Y247854D01*
X501555Y254665D01*
X504608Y254468D01*
D02*
G37*
G36*
X469153Y247854D02*
Y238720D01*
X463563D01*
X455177Y247106D01*
Y254665D01*
X462343D01*
X469153Y247854D01*
D02*
G37*
G36*
X987108Y253413D02*
X991417Y249104D01*
X991220Y246051D01*
X982835Y237665D01*
X977244D01*
Y246799D01*
X984055Y253610D01*
X987108Y253413D01*
D02*
G37*
G36*
X951653Y246799D02*
Y237665D01*
X946063D01*
X937677Y246051D01*
Y253610D01*
X944843D01*
X951653Y246799D01*
D02*
G37*
G36*
X-163495Y249165D02*
X-159185Y244856D01*
X-159382Y241803D01*
X-167768Y233417D01*
X-173358D01*
Y242551D01*
X-166547Y249362D01*
X-163495Y249165D01*
D02*
G37*
G36*
X-198949Y242551D02*
Y233417D01*
X-204539D01*
X-212925Y241803D01*
Y249362D01*
X-205760D01*
X-198949Y242551D01*
D02*
G37*
G36*
X384705Y230161D02*
X384390D01*
X383485Y231067D01*
Y231972D01*
X384705D01*
Y230161D01*
D02*
G37*
G36*
X382146Y231067D02*
X381241Y230161D01*
X380926D01*
Y231972D01*
X382146D01*
Y231067D01*
D02*
G37*
G36*
X384430Y229374D02*
X382815Y227759D01*
X381201Y229374D01*
X382815Y230989D01*
X384430Y229374D01*
D02*
G37*
G36*
X384705Y226776D02*
X383485D01*
Y227681D01*
X384390Y228587D01*
X384705D01*
Y226776D01*
D02*
G37*
G36*
X382146Y227681D02*
Y226776D01*
X380926D01*
Y228587D01*
X381241D01*
X382146Y227681D01*
D02*
G37*
G36*
X508720Y208681D02*
Y201122D01*
X501555D01*
X494744Y207933D01*
Y217067D01*
X500335D01*
X508720Y208681D01*
D02*
G37*
G36*
X469153Y207933D02*
X462343Y201122D01*
X455177D01*
Y208681D01*
X463563Y217067D01*
X469153D01*
Y207933D01*
D02*
G37*
G36*
X991220Y207626D02*
Y200067D01*
X984055D01*
X977244Y206878D01*
Y216012D01*
X982835D01*
X991220Y207626D01*
D02*
G37*
G36*
X951653Y206878D02*
X944843Y200067D01*
X937677D01*
Y207626D01*
X946063Y216012D01*
X951653D01*
Y206878D01*
D02*
G37*
G36*
X-159382Y203378D02*
Y195819D01*
X-166547D01*
X-173358Y202630D01*
Y211764D01*
X-167768D01*
X-159382Y203378D01*
D02*
G37*
G36*
X-198949Y202630D02*
X-205760Y195819D01*
X-212925D01*
Y203378D01*
X-204539Y211764D01*
X-198949D01*
Y202630D01*
D02*
G37*
D12*
X381980Y228960D02*
X382815D01*
X366929Y229374D02*
X381567D01*
X363931Y229361D02*
X366916D01*
X361917Y229374D02*
X363918D01*
X363931Y229361D01*
X366916D02*
X366929Y229374D01*
X381567D02*
X381980Y228960D01*
X361880Y229492D02*
Y232018D01*
D16*
X415428Y215766D02*
D03*
X422331D02*
D03*
X308502Y179602D02*
D03*
X315406D02*
D03*
X429204Y207136D02*
D03*
X422301D02*
D03*
X401835Y230047D02*
D03*
X394931D02*
D03*
D17*
X-300488Y248541D02*
D03*
X-306898D02*
D03*
X398264Y222197D02*
D03*
X391855D02*
D03*
X399457Y216067D02*
D03*
X432677Y199795D02*
D03*
X426267D02*
D03*
X425323Y223106D02*
D03*
X418913D02*
D03*
X425366Y230055D02*
D03*
X418957D02*
D03*
X1074240Y252366D02*
D03*
X1080650D02*
D03*
X393048Y216067D02*
D03*
D18*
X354776Y199142D02*
D03*
X328398D02*
D03*
X354776Y172764D02*
D03*
X328398D02*
D03*
D19*
X354382Y194417D02*
D03*
X351823D02*
D03*
Y196976D02*
D03*
Y199535D02*
D03*
Y191858D02*
D03*
X349264Y196976D02*
D03*
Y194417D02*
D03*
Y199535D02*
D03*
X346705D02*
D03*
Y196976D02*
D03*
Y194417D02*
D03*
X344146Y196976D02*
D03*
Y199535D02*
D03*
Y194417D02*
D03*
X341587Y199535D02*
D03*
Y196976D02*
D03*
Y194417D02*
D03*
X339028Y196976D02*
D03*
Y199535D02*
D03*
Y194417D02*
D03*
X336469Y199535D02*
D03*
Y196976D02*
D03*
Y194417D02*
D03*
X333910Y196976D02*
D03*
Y194417D02*
D03*
Y199535D02*
D03*
X331350Y196976D02*
D03*
Y199535D02*
D03*
Y194417D02*
D03*
X328791D02*
D03*
X354382Y191858D02*
D03*
Y189299D02*
D03*
Y176504D02*
D03*
Y186740D02*
D03*
Y181622D02*
D03*
X351823Y186740D02*
D03*
Y189299D02*
D03*
X349264Y186740D02*
D03*
Y189299D02*
D03*
Y172370D02*
D03*
Y191858D02*
D03*
X346705Y189299D02*
D03*
Y186740D02*
D03*
Y191858D02*
D03*
X344146Y189299D02*
D03*
Y191858D02*
D03*
X341587D02*
D03*
X339028D02*
D03*
X336469D02*
D03*
X333910D02*
D03*
X331350D02*
D03*
X328791D02*
D03*
X341587Y189299D02*
D03*
X339028D02*
D03*
X328791D02*
D03*
X336469D02*
D03*
X333910D02*
D03*
X331350D02*
D03*
X344146Y186740D02*
D03*
X341587D02*
D03*
X339028D02*
D03*
X331350D02*
D03*
X328791D02*
D03*
X336469D02*
D03*
X333910D02*
D03*
X328791Y181622D02*
D03*
Y176504D02*
D03*
X339028Y172370D02*
D03*
X333910D02*
D03*
X344146D02*
D03*
D20*
X411941Y203063D02*
D03*
X400918D02*
D03*
X411941Y197354D02*
D03*
X400918D02*
D03*
D21*
X909905Y253130D02*
D03*
X915532Y221323D02*
D03*
X-150240Y244811D02*
D03*
X-149315Y227728D02*
D03*
X-150240Y240874D02*
D03*
Y242842D02*
D03*
X917386Y253130D02*
D03*
X908051Y221323D02*
D03*
X-142760Y244811D02*
D03*
X-141835Y227728D02*
D03*
X909905Y247224D02*
D03*
X915532Y227228D02*
D03*
X-150240Y238905D02*
D03*
X-149315Y221823D02*
D03*
X908051Y227228D02*
D03*
X-142760Y238905D02*
D03*
X917386Y249193D02*
D03*
X-141835Y223791D02*
D03*
X917386Y247224D02*
D03*
X908051Y225260D02*
D03*
X-142760Y240874D02*
D03*
X-141835Y221823D02*
D03*
X915532Y223291D02*
D03*
Y225260D02*
D03*
X909905Y249193D02*
D03*
Y251161D02*
D03*
X-142760Y242842D02*
D03*
X917386Y251161D02*
D03*
X908051Y223291D02*
D03*
X-149315Y225760D02*
D03*
Y223791D02*
D03*
X-141835Y225760D02*
D03*
D22*
X378729Y245031D02*
D03*
X369940D02*
D03*
Y237551D02*
D03*
X378729Y241291D02*
D03*
D23*
X913394Y241720D02*
D03*
X998213Y219382D02*
D03*
X-125551Y229240D02*
D03*
X-125673Y221705D02*
D03*
X1001382Y223768D02*
D03*
X-125921Y243571D02*
D03*
X-125429Y236035D02*
D03*
X367451Y212456D02*
D03*
X364203Y216948D02*
D03*
X910244Y241720D02*
D03*
X1001362Y219382D02*
D03*
X998232Y223768D02*
D03*
X367353Y216948D02*
D03*
X364302Y212456D02*
D03*
X-129071Y243571D02*
D03*
X-128579Y236035D02*
D03*
X-128701Y229240D02*
D03*
X-128823Y221705D02*
D03*
D24*
X341866Y233402D02*
D03*
X332024Y216079D02*
D03*
X351709D02*
D03*
D25*
X319992Y237264D02*
D03*
Y233405D02*
D03*
D26*
X365461Y227075D02*
D03*
X361917D02*
D03*
X361880Y232018D02*
D03*
X365423D02*
D03*
D27*
X378729Y237551D02*
D03*
D28*
X399650Y254174D02*
D03*
X392563D02*
D03*
D29*
X-240106Y247091D02*
D03*
Y237445D02*
D03*
X1028217Y213347D02*
D03*
X-239764Y224756D02*
D03*
X1028217Y222992D02*
D03*
X-239764Y215110D02*
D03*
X1027409Y243067D02*
D03*
Y252713D02*
D03*
X1028028Y194906D02*
D03*
Y185260D02*
D03*
X-239673Y195020D02*
D03*
Y185374D02*
D03*
D30*
X911697Y234795D02*
D03*
Y231646D02*
D03*
D31*
X438198Y254094D02*
D03*
X438374Y246457D02*
D03*
X431899Y254094D02*
D03*
X432075Y246457D02*
D03*
D32*
X420817Y247435D02*
D03*
X411663Y253341D02*
D03*
X420817D02*
D03*
Y249404D02*
D03*
Y251372D02*
D03*
X411663Y247435D02*
D03*
Y249404D02*
D03*
Y251372D02*
D03*
D33*
X414272Y246795D02*
D03*
X418209D02*
D03*
X416240D02*
D03*
Y253980D02*
D03*
X414272D02*
D03*
X418209D02*
D03*
D34*
X535520Y222500D02*
D03*
Y242500D02*
D03*
Y232500D02*
D03*
Y227500D02*
D03*
X520165Y242500D02*
D03*
Y227500D02*
D03*
Y222500D02*
D03*
Y232500D02*
D03*
Y237500D02*
D03*
X535520D02*
D03*
D35*
X389059Y199500D02*
D03*
Y195563D02*
D03*
X372130Y197531D02*
D03*
Y191626D02*
D03*
Y195563D02*
D03*
Y193594D02*
D03*
X389059Y197531D02*
D03*
Y193594D02*
D03*
Y191626D02*
D03*
X372130Y199500D02*
D03*
D36*
X366368Y222161D02*
D03*
X362510D02*
D03*
X362502Y207724D02*
D03*
X366361D02*
D03*
D37*
X386429Y179520D02*
D03*
X373043D02*
D03*
D38*
X346271Y257406D02*
D03*
X337216D02*
D03*
D39*
X336626Y246185D02*
D03*
X339185D02*
D03*
X341744D02*
D03*
X344303D02*
D03*
X346862D02*
D03*
D40*
X1097382Y252102D02*
D03*
X-298650Y255327D02*
D03*
X1089114Y252102D02*
D03*
X-306917Y255327D02*
D03*
D41*
X326980Y257406D02*
D03*
X356508D02*
D03*
D42*
X370728Y254106D02*
D03*
X378028D02*
D03*
D64*
X328480Y224740D02*
D03*
X355252D02*
D03*
D65*
X379736Y179520D02*
D03*
D69*
X328855Y208096D02*
G03*
X327707Y208575I-1135J-1103D01*
G01*
X912240Y244161D02*
X912504Y243898D01*
Y243241D02*
X912567Y243178D01*
X912504Y243241D02*
Y243898D01*
X912567Y242547D02*
Y243178D01*
X914878Y244020D02*
X915142Y244284D01*
X914878Y243205D02*
Y244020D01*
X913394Y241720D02*
X914878Y243205D01*
X912567Y242547D02*
X913394Y241720D01*
X417756Y250811D02*
Y251184D01*
X418209Y251637D02*
Y253980D01*
X417756Y251184D02*
X418209Y251637D01*
X416240Y246795D02*
Y250200D01*
X414685Y251756D02*
X416240Y250200D01*
X413681Y251756D02*
X414685D01*
X414272Y246795D02*
X414272Y246795D01*
Y249618D02*
X414272Y249618D01*
X414272Y246795D02*
Y249618D01*
X414272Y241909D02*
Y246795D01*
X412402Y253035D02*
X413681Y251756D01*
X412402Y253035D02*
Y253045D01*
X412106Y253341D02*
X412402Y253045D01*
X411600Y253341D02*
X412106D01*
X392264Y254473D02*
X392563Y254174D01*
X389673Y254473D02*
X392264D01*
X389673D02*
X389727Y250689D01*
X908051Y221323D02*
Y223291D01*
X917386Y251161D02*
Y253130D01*
X-142760Y242842D02*
Y244811D01*
X-141835Y225760D02*
Y227728D01*
X910244Y241720D02*
Y247224D01*
X411600Y253341D02*
Y253937D01*
X361917Y229374D02*
Y229492D01*
Y227075D02*
Y229374D01*
X-129248Y235366D02*
X-128579D01*
X364338Y230345D02*
X366508D01*
X366998Y230835D01*
X363652Y231032D02*
X364338Y230345D01*
X389672Y250486D02*
X389727Y250578D01*
X384317Y241462D02*
X389672Y250486D01*
X384145Y241291D02*
X384317Y241462D01*
X450236Y239873D02*
Y245634D01*
X388425Y241685D02*
Y245386D01*
X389943Y235036D02*
Y235132D01*
Y235036D02*
X393044Y231934D01*
X375889Y235362D02*
X389712D01*
X373700Y237551D02*
X375889Y235362D01*
X389712D02*
X389943Y235132D01*
X381535Y231067D02*
Y233559D01*
X381563Y233587D01*
X354028Y234441D02*
X362215D01*
X353870Y234283D02*
X354028Y234441D01*
X362215D02*
X363652Y233005D01*
X346271Y252687D02*
X361350D01*
X291406Y231594D02*
X299835Y223165D01*
X291406Y231594D02*
Y236402D01*
X376349Y244548D02*
X377232Y245031D01*
X376310Y244527D02*
X376349Y244548D01*
X298344Y219421D02*
X307217D01*
X308620Y220825D02*
Y223478D01*
X307217Y219421D02*
X308620Y220825D01*
X288525Y229240D02*
X298344Y219421D01*
X-125551Y229240D02*
X288525D01*
X425539Y199067D02*
X426267Y199795D01*
X425539Y197605D02*
Y199067D01*
X393994Y166059D02*
X425539Y197605D01*
X320955Y166059D02*
X393994D01*
X432241Y203063D02*
X432677Y202627D01*
Y199795D02*
Y202627D01*
X411941Y203063D02*
X432241D01*
X428106Y213894D02*
X432457Y218244D01*
X490851D01*
X411226Y208611D02*
X412455Y207382D01*
X395500Y208537D02*
X411152D01*
X416407Y207382D02*
X417272Y208247D01*
X417633Y208611D02*
X418811D01*
X411152Y208537D02*
X411226Y208611D01*
X408400Y211437D02*
X411226Y208611D01*
X410539Y211776D02*
X413457Y208858D01*
X415795D01*
X417272Y208249D02*
X417633Y208611D01*
X412455Y207382D02*
X416407D01*
X417272Y208247D02*
Y208249D01*
X418817Y209106D02*
X418869Y212877D01*
X418811Y208611D02*
X418817Y209106D01*
X416573Y206437D02*
X417996Y207860D01*
X418061Y207862D01*
X418157Y207957D01*
X409650Y206437D02*
X416573D01*
X418157Y207957D02*
X418502Y208302D01*
X393358Y175329D02*
X393358Y175329D01*
X384712Y166847D02*
X393127Y175099D01*
X419656Y209658D02*
Y217592D01*
X393358Y175329D02*
X393358Y175329D01*
X393358Y175329D02*
X408400Y190372D01*
Y197837D01*
X418502Y208302D02*
X418811Y208611D01*
X418860Y217777D02*
X418869Y213203D01*
X419656Y209658D02*
X419775Y209539D01*
X321281Y166847D02*
X384712D01*
X419775Y209539D02*
X420413Y208932D01*
X419647Y218103D02*
X419656Y217596D01*
X420413Y208932D02*
X422301Y207136D01*
X418869Y212877D02*
Y213203D01*
X393127Y175099D02*
X393358Y175329D01*
X419656Y217596D02*
X419656Y217592D01*
X419600Y219182D02*
X419647Y218103D01*
X418752Y217885D02*
X418860Y217777D01*
X412646Y223991D02*
X418752Y217885D01*
X419600Y219182D02*
Y219506D01*
X412646Y223991D02*
Y231324D01*
X411858Y223665D02*
Y232308D01*
X415428Y215766D02*
Y220096D01*
X411858Y223665D02*
X415428Y220096D01*
X414614Y230516D02*
X417669Y233571D01*
X418055D01*
X440134D02*
X442978Y236415D01*
X418055Y233571D02*
X440134D01*
X418055D02*
X422891Y238408D01*
X424819Y230055D02*
X430318D01*
X418661Y223905D02*
X419461Y223106D01*
X418661Y223905D02*
Y226157D01*
X421294Y230055D02*
X421831Y229519D01*
X422162D01*
X419504Y230055D02*
X421294D01*
X424776Y223106D02*
X425858Y222406D01*
X428429D01*
X412646Y231324D02*
X419600Y238278D01*
X422891Y238408D02*
X424026D01*
X411858Y232308D02*
X416400Y236849D01*
X424026Y238408D02*
X432075Y246457D01*
X-298650Y255327D02*
X-296268Y257709D01*
X-276364Y248541D02*
X-252579Y224756D01*
X-300488Y248541D02*
X-276364D01*
X-252579Y224756D02*
X-239764D01*
X-306917Y248561D02*
X-306898Y248541D01*
X-306917Y248561D02*
Y255327D01*
X-131772Y247165D02*
Y247264D01*
X-250902Y257709D02*
X-247270Y254078D01*
X-296268Y257709D02*
X-250902D01*
X-247270Y254078D02*
X-161838D01*
X-107295Y236402D02*
X291406D01*
X-135365Y243571D02*
X-131772Y247165D01*
X-118681Y247787D02*
X-107295Y236402D01*
X-129154Y249170D02*
X-125921Y245937D01*
X-114854Y251095D02*
X-104516Y240756D01*
X-133523Y249170D02*
X-129154D01*
X-150240Y244811D02*
X-145094Y249957D01*
X-146756Y251095D02*
X-114854D01*
X-152642Y245208D02*
X-146756Y251095D01*
X-138512Y245937D02*
X-135728Y248721D01*
X-145094Y249957D02*
X-127120D01*
X-142760Y244811D02*
X-139638D01*
X-138512Y245937D01*
X-133972Y248721D02*
X-133523Y249170D01*
X-127120Y249957D02*
X-123800Y246637D01*
X389000Y199500D02*
Y202037D01*
X304776Y205244D02*
X324177D01*
X304061Y205958D02*
X304776Y205244D01*
X303987Y206017D02*
X304061Y205958D01*
X295434Y211186D02*
X303987Y206017D01*
X326047Y206886D02*
X327720Y206992D01*
X304398Y206886D02*
X326047D01*
X285295Y225988D02*
X304398Y206886D01*
X304794Y208382D02*
X305120D01*
X304679Y208497D02*
X304794Y208382D01*
X288016Y225160D02*
X304679Y208497D01*
X328855Y208096D02*
X330161Y206757D01*
X305120Y208382D02*
X327707Y208575D01*
X330161Y204698D02*
Y206757D01*
X315497Y174857D02*
Y179602D01*
Y174857D02*
X321728Y168626D01*
X315497Y187363D02*
X319701Y191567D01*
X315497Y179602D02*
Y187363D01*
X320421Y191567D02*
X320685Y191831D01*
X319701Y191567D02*
X320421D01*
X373055Y171787D02*
Y179508D01*
X383740Y167634D02*
X389449Y173343D01*
X321607Y167634D02*
X383740D01*
X389449Y173343D02*
Y177110D01*
X386096Y172360D02*
X386283Y176370D01*
X382362Y168626D02*
X386096Y172360D01*
X386283Y176370D02*
X386429Y179520D01*
X305423Y174280D02*
X310082Y169622D01*
X318505D01*
X318831Y170409D02*
X321607Y167634D01*
X309657Y168835D02*
X318179D01*
X318505Y169622D02*
X321281Y166847D01*
X318179Y168835D02*
X320955Y166059D01*
X304571Y173921D02*
X309657Y168835D01*
X307764Y173750D02*
X311105Y170409D01*
X318831D01*
X321728Y168626D02*
X382362D01*
X315406Y179602D02*
X315497D01*
X319464Y193555D02*
X321976D01*
X319134Y194339D02*
X319213Y194417D01*
X319460Y193551D02*
X319464Y193555D01*
X319213Y194417D02*
X328791D01*
X321976Y193555D02*
X328791Y186740D01*
X311826Y194339D02*
X319134D01*
X312152Y193551D02*
X319460D01*
X393358Y181020D02*
Y183005D01*
X389449Y177110D02*
X389874Y177536D01*
X393358Y181020D01*
X389874Y177536D02*
Y183529D01*
X389544Y184973D02*
X391382Y183135D01*
X389218Y184185D02*
X389874Y183529D01*
X388856Y187508D02*
X393358Y183005D01*
X391382Y182110D02*
Y183135D01*
Y182110D02*
X391519Y181972D01*
X379405Y186048D02*
X380480Y184973D01*
X385047Y187508D02*
X388856D01*
X380480Y184973D02*
X389544D01*
X378732Y184185D02*
X389218D01*
X370835Y184185D02*
X378732D01*
X378732Y184185D01*
X377594Y194961D02*
X385047Y187508D01*
X367534Y183448D02*
X370969Y186882D01*
X382461D01*
X371584Y186048D02*
X379405D01*
X308323Y189722D02*
X312152Y193551D01*
X308323Y179874D02*
Y189722D01*
X307764Y178864D02*
X308502Y179602D01*
X307764Y173750D02*
Y178864D01*
X303783Y173594D02*
X310142Y167236D01*
X305423Y174280D02*
Y187936D01*
X310142Y167236D02*
X315216D01*
X304571Y173921D02*
Y188197D01*
X303783Y173594D02*
Y188523D01*
X305423Y187936D02*
X311826Y194339D01*
X304571Y188197D02*
X311500Y195126D01*
X303783Y188523D02*
X312217Y196957D01*
X329152Y203689D02*
X330161Y204698D01*
X328803Y203689D02*
X329152D01*
X328784Y201299D02*
X328819D01*
X348800Y221280D02*
Y225318D01*
X328398Y200914D02*
X328784Y201299D01*
X328819D02*
X348800Y221280D01*
X328398Y199142D02*
Y200914D01*
X399512Y201658D02*
X400918Y203063D01*
X395933Y201658D02*
X399512D01*
X-126303Y225570D02*
X-125587Y226286D01*
X-123800Y230991D02*
Y246637D01*
X-126303Y224824D02*
Y225197D01*
X-125551Y229240D02*
X-123800Y230991D01*
X-126303Y225197D02*
Y225570D01*
X-125587Y229205D02*
X-125551Y229240D01*
X-125673Y221705D02*
X-125587Y221791D01*
Y224107D01*
Y226286D02*
Y229205D01*
X-126303Y224824D02*
X-125587Y224107D01*
X-135728Y248721D02*
X-133972D01*
X-125921Y243571D02*
Y245937D01*
X-123828Y225988D02*
X285295D01*
X-124059Y225758D02*
X-123828Y225988D01*
X-126374Y218122D02*
X-124059Y220437D01*
Y225758D01*
X-135236Y218122D02*
X-126374D01*
X-161838Y254078D02*
X-152968Y245208D01*
X-152642D01*
X382815Y228960D02*
Y229374D01*
X362510Y222161D02*
Y224237D01*
X396894Y250537D02*
X404600Y242831D01*
X367353Y215507D02*
Y216948D01*
X397958Y197354D02*
X400918D01*
X377594Y194961D02*
Y203643D01*
X541437Y242500D02*
X545000Y238937D01*
X535520Y232500D02*
X541063D01*
X360762Y186484D02*
X361772Y185475D01*
X360762Y186484D02*
Y188990D01*
X896459Y242319D02*
X902782D01*
X914200Y227228D02*
Y229142D01*
X353791Y186150D02*
X354382Y186740D01*
X1018000Y214597D02*
X1019250Y213347D01*
X349854Y186150D02*
X350214D01*
X395500Y260437D02*
X396894Y259043D01*
X382815Y228960D02*
X384094Y227681D01*
X429862Y258228D02*
X514772D01*
X367954Y181304D02*
X370835Y184185D01*
X541063Y232500D02*
X545000Y236437D01*
X909905Y247224D02*
X910244D01*
X360596Y189156D02*
X360762Y188990D01*
X359732Y190089D02*
X360596Y189225D01*
X910000Y233342D02*
X911697Y231646D01*
X914200Y227228D02*
X915532D01*
X353201Y185708D02*
Y185919D01*
X342965Y185362D02*
X347886D01*
X1001362Y198937D02*
X1008862Y191437D01*
X1001362Y198937D02*
Y219382D01*
X361350Y252687D02*
X369100Y260437D01*
X395500D01*
X361917Y224830D02*
X362510Y224237D01*
X383598Y197465D02*
X385500Y195563D01*
X410500Y253341D02*
X411600D01*
X399100Y227437D02*
X404600D01*
X429075Y257441D02*
X429862Y258228D01*
X545000Y236437D02*
Y238937D01*
X361772Y181535D02*
Y185475D01*
X907687Y247224D02*
X909905D01*
X910000Y236437D02*
X910244Y236681D01*
X350791Y185362D02*
X352855D01*
X350445Y185708D02*
X350791Y185362D01*
X350214Y186150D02*
X350445Y185919D01*
X1008862Y191437D02*
X1036500D01*
X361880Y229492D02*
X361917D01*
X383598Y227185D02*
X384094Y227681D01*
X396894Y257637D02*
X406204D01*
X366720Y210037D02*
X371200D01*
X362502Y207724D02*
Y210037D01*
X416240Y246795D02*
X418209D01*
X910244Y236681D02*
Y241720D01*
X910000Y233342D02*
Y236437D01*
X360596Y189156D02*
Y189225D01*
X354382Y186740D02*
X357731Y190089D01*
X898572Y259337D02*
X1003000D01*
X1036500Y191437D02*
Y213347D01*
Y191437D02*
X1074787Y229724D01*
X341587Y186740D02*
Y186827D01*
X348800Y225318D02*
X355500Y232018D01*
X383598Y197465D02*
Y227185D01*
X362510Y214247D02*
Y222161D01*
Y214247D02*
X364302Y212456D01*
X366720Y210037D01*
X362502D02*
X366720D01*
X399100Y227437D02*
Y243337D01*
X392563Y249874D02*
Y254174D01*
X514772Y258228D02*
X530500Y242500D01*
X535520D02*
X541437D01*
X353432Y186150D02*
X353791D01*
X1003000Y259337D02*
X1018000Y244337D01*
X347886Y185362D02*
X349264Y186740D01*
X998232Y222512D02*
Y223768D01*
X361917Y224830D02*
Y227075D01*
X396894Y257637D02*
Y259043D01*
X389059Y195563D02*
X396167D01*
X411600Y253937D02*
X415104Y257441D01*
X530500Y242500D02*
X535520D01*
X361772Y181535D02*
X362002Y181304D01*
X535520Y227500D02*
Y232500D01*
X353201Y185919D02*
X353432Y186150D01*
X895128Y255894D02*
X898572Y259337D01*
X352855Y185362D02*
X353201Y185708D01*
X1028217Y213347D02*
X1036500D01*
X344059Y189299D02*
X344146D01*
X998232Y222512D02*
X1001362Y219382D01*
X406204Y257637D02*
X410500Y253341D01*
X404600Y227437D02*
Y242831D01*
X371200Y210037D02*
X377594Y203643D01*
X415104Y257441D02*
X429075D01*
X902782Y242319D02*
X907687Y247224D01*
X357731Y190089D02*
X359732D01*
X911697Y231646D02*
X914200Y229142D01*
X895128Y243650D02*
X896459Y242319D01*
X349264Y186740D02*
X349854Y186150D01*
X1019250Y213347D02*
X1028217D01*
X341587Y186740D02*
X342965Y185362D01*
X341587Y186827D02*
X344059Y189299D01*
X396894Y250537D02*
Y257637D01*
X385500Y195563D02*
X389059D01*
X364302Y212456D02*
X367353Y215507D01*
X396167Y195563D02*
X397958Y197354D01*
X392563Y249874D02*
X399100Y243337D01*
X362002Y181304D02*
X367954D01*
X545000Y236437D02*
X550283Y241720D01*
X910244D01*
X895128Y243650D02*
Y255894D01*
X1018000Y214597D02*
Y244337D01*
X350445Y185708D02*
Y185919D01*
X1074787Y229724D02*
Y252366D01*
X905307Y253130D02*
X909905D01*
X898008Y245831D02*
X905307Y253130D01*
X377232Y245031D02*
X378729D01*
X915532Y221323D02*
X916000D01*
X927800Y242640D02*
X951058Y219382D01*
X916000Y221323D02*
X917941Y219382D01*
X976705D02*
X998213D01*
X972201Y214878D02*
X976705Y219382D01*
X951058D02*
X955562Y214878D01*
X917941Y219382D02*
X951058D01*
X955562Y214878D02*
X972201D01*
X-152098Y228504D02*
X-151939D01*
X-151779D01*
X365488Y227047D02*
X369366D01*
X365461Y227075D02*
X365488Y227047D01*
X-151779Y228504D02*
X-151003Y227728D01*
X-149315D01*
X430100Y219737D02*
X450236Y239873D01*
X419831Y219737D02*
X430100D01*
X419600Y219506D02*
X419831Y219737D01*
X442098Y199110D02*
X472831D01*
X429204Y207136D02*
X434072D01*
X442098Y199110D01*
X428543Y187669D02*
X438701Y197827D01*
X421835Y187669D02*
X428543D01*
X438701Y197827D02*
X474145D01*
X422241Y198604D02*
Y200784D01*
X413346Y189709D02*
X422241Y198604D01*
X315216Y167236D02*
X315339Y167358D01*
X512347Y222268D02*
X519933D01*
X520165Y222500D01*
X509205Y226335D02*
X510370Y227500D01*
X520165D01*
X368685Y180043D02*
X368791Y179937D01*
X361919Y180043D02*
X368685D01*
X360846Y181116D02*
X361919Y180043D01*
X362790Y182660D02*
X368197D01*
X371584Y186048D01*
X364373Y183448D02*
X367534D01*
X334303Y186346D02*
Y186347D01*
X333910Y186740D02*
X334303Y186347D01*
X392709Y212983D02*
X392940Y212752D01*
X392709Y215729D02*
X393048Y216067D01*
X392940Y212752D02*
X401015D01*
X392709Y212983D02*
Y215729D01*
X401015Y212752D02*
X407200Y218937D01*
X388867Y211921D02*
X403874D01*
X388636Y212152D02*
X388867Y211921D01*
X403874D02*
X406787Y214835D01*
X388636Y212152D02*
Y216954D01*
X399457Y216067D02*
X400783Y217394D01*
Y218351D01*
X400553Y218582D02*
X400783Y218351D01*
X396167Y218582D02*
X400553D01*
X397536Y220007D02*
Y221469D01*
X398264Y222197D01*
X396167Y218637D02*
X397536Y220007D01*
X312217Y196957D02*
X312421D01*
X315875Y195126D02*
X317726Y196976D01*
X311500Y195126D02*
X315875D01*
X346264Y206996D02*
Y207232D01*
X348949Y204075D02*
Y204311D01*
X346264Y206996D02*
X348949Y204311D01*
X288016Y225160D02*
Y227610D01*
X317726Y196976D02*
X331350D01*
X-104516Y240756D02*
X268803D01*
X336469Y184136D02*
X336699Y183905D01*
X336469Y184136D02*
Y186740D01*
X336699Y183905D02*
X340077D01*
X362559Y182891D02*
X362790Y182660D01*
X362559Y182891D02*
Y185801D01*
X365823Y185251D02*
X366842Y186271D01*
Y190649D01*
X365823Y184924D02*
Y185251D01*
X363347Y184475D02*
X364373Y183448D01*
X363347Y184475D02*
Y186127D01*
X366842Y190649D02*
X369788Y193594D01*
X362337Y187137D02*
X363347Y186127D01*
X338091Y203847D02*
X338256Y204012D01*
X334059Y203847D02*
X338091D01*
X333910Y199535D02*
X336819Y202445D01*
X361571D01*
X362197Y201819D01*
X333984Y203772D02*
X334059Y203847D01*
X340783Y204075D02*
Y209646D01*
X389356Y218582D02*
X396167D01*
X389125Y218812D02*
Y221262D01*
Y218812D02*
X389356Y218582D01*
X389122Y221265D02*
X389125Y221262D01*
X389122Y221265D02*
Y224337D01*
X391422Y226637D01*
X397700D01*
X378729Y237551D02*
X395600D01*
X397700Y235451D01*
Y226637D02*
Y235451D01*
X399650Y252437D02*
Y254174D01*
Y252437D02*
X406400Y245687D01*
Y228037D02*
Y245687D01*
X392707Y223935D02*
X394335Y225563D01*
X392707Y222502D02*
Y223935D01*
X392402Y222197D02*
X392707Y222502D01*
X394335Y225563D02*
X403926D01*
X406400Y228037D01*
X339028Y186354D02*
X339039Y186343D01*
X339028Y186354D02*
Y186740D01*
X342600Y183788D02*
X346624D01*
X347313Y183098D01*
X347543D01*
X340786Y183197D02*
X342009D01*
X340077Y183905D02*
X340786Y183197D01*
X342009D02*
X342600Y183788D01*
X341496Y184575D02*
X358764D01*
X358878Y184689D01*
X341398Y184673D02*
X341496Y184575D01*
X358942Y188613D02*
X359193Y188362D01*
Y186940D02*
X360846Y185287D01*
X359193Y186940D02*
Y188362D01*
X360846Y181116D02*
Y185287D01*
X371500Y189426D02*
X372453Y190379D01*
Y191272D01*
X371500Y189244D02*
Y189426D01*
X361550Y186811D02*
X362559Y185801D01*
X362337Y187137D02*
Y190540D01*
X361212Y191664D02*
X362337Y190540D01*
X360202Y190877D02*
X361550Y189529D01*
Y186811D02*
Y189529D01*
X357405Y190877D02*
X360202D01*
X367451Y212456D02*
X370858Y215863D01*
Y222197D01*
X366368Y222161D02*
X366404Y222197D01*
X370858D01*
X373098Y227051D02*
X376385D01*
X377500Y225937D01*
X379791D01*
X911697Y234795D02*
X922563Y245661D01*
Y249368D01*
X913281Y233837D02*
X915362Y231756D01*
X922507Y249424D02*
X922563Y249368D01*
X922507Y249424D02*
Y253130D01*
X418617Y205520D02*
X419600Y204537D01*
X418502Y208302D02*
X418502Y207976D01*
X418617Y205520D01*
X408400Y197837D02*
Y205187D01*
X409650Y206437D01*
X922507Y253130D02*
X940861Y234776D01*
X956120Y239490D02*
X971809D01*
X951406Y234776D02*
X956120Y239490D01*
X971809D02*
X987532Y223768D01*
X940861Y234776D02*
X951406D01*
X917386Y253130D02*
X922507D01*
X911697Y234795D02*
X912655Y233837D01*
X999500Y225382D02*
X999846Y225036D01*
Y224788D02*
Y225036D01*
X996964Y225382D02*
X999500D01*
X999846Y224788D02*
X1000077Y224558D01*
X1000592D01*
X996618Y223998D02*
Y225036D01*
X912655Y233837D02*
X913281D01*
X996618Y225036D02*
X996964Y225382D01*
X438198Y250313D02*
Y254094D01*
X434441Y250337D02*
X438198Y254094D01*
X438374Y246457D02*
Y250137D01*
X438198Y250313D02*
X438374Y250137D01*
X422698Y247435D02*
X425600Y250337D01*
X434441D01*
X419600Y238278D02*
Y247435D01*
X420817D02*
X422698D01*
X419600D02*
X420817D01*
X408400Y236037D02*
X414272Y241909D01*
X1000592Y224558D02*
X1001382Y223768D01*
X996387D02*
X996618Y223998D01*
X987532Y223768D02*
X996387D01*
X902681Y223642D02*
X905000Y221323D01*
X902450Y223411D02*
X902681Y223642D01*
X540047Y223411D02*
X902450D01*
X535520Y222500D02*
X540047Y223411D01*
X530992Y222385D02*
X535520Y222500D01*
X905000Y221323D02*
X908051D01*
X528585Y222385D02*
X530992D01*
X525125Y218925D02*
X528585Y222385D01*
X502131Y218925D02*
X525125D01*
X492772Y219051D02*
X502005D01*
X502131Y218925D01*
X472831Y199110D02*
X492772Y219051D01*
X422331Y214810D02*
Y215766D01*
Y214810D02*
X429204Y207937D01*
Y207136D02*
Y207937D01*
Y204537D02*
Y207136D01*
X419600Y204537D02*
X429204D01*
X-125921Y240029D02*
Y243571D01*
X-127655Y241837D02*
X-125921Y243571D01*
X379791Y225937D02*
X381535Y227681D01*
X-125429Y236035D02*
Y239537D01*
X-125921Y240029D02*
X-125429Y239537D01*
X-134235Y242180D02*
X-132418D01*
X-134578Y241837D02*
X-134235Y242180D01*
X-132418D02*
X-132074Y241837D01*
X-127655D01*
X-134578Y230850D02*
Y241837D01*
X-141835Y227728D02*
X-137700D01*
X-134578Y230850D01*
X408400Y211437D02*
Y236037D01*
X389000Y202037D02*
X395500Y208537D01*
X381535Y194950D02*
Y227681D01*
X401047Y190484D02*
X408400Y197837D01*
X389000Y199500D02*
X389059D01*
X386002Y190484D02*
X401047D01*
X381535Y194950D02*
X386002Y190484D01*
X366368Y219113D02*
Y222161D01*
X364203Y216948D02*
X366368Y219113D01*
X361953Y196295D02*
X363968Y194280D01*
X361953Y196295D02*
Y200719D01*
X361491Y201180D02*
X361953Y200719D01*
X-128579Y235366D02*
Y236035D01*
X-130461Y234154D02*
X-129248Y235366D01*
X-130724Y233221D02*
X-130461Y233484D01*
X-128579Y233137D02*
Y235366D01*
X-130461Y233484D02*
Y234154D01*
X-218370Y250917D02*
X-192080D01*
X-223874Y245413D02*
X-218370Y250917D01*
X-135365Y243571D02*
X-129071D01*
X-223874Y232789D02*
Y245413D01*
X-135365Y241903D02*
Y243571D01*
X-135365D01*
X-128701Y232338D02*
X-128579Y233137D01*
X-149900Y238905D02*
X-144132Y233137D01*
X-160132Y238905D02*
X-150240D01*
X-149900D01*
X-144132Y233137D02*
X-135365Y241903D01*
X-167600Y231437D02*
X-160132Y238905D01*
X356814Y201180D02*
X361491D01*
X354776Y199142D02*
X356814Y201180D01*
X-128823Y225337D02*
X-128701Y225459D01*
Y229240D02*
Y232338D01*
Y225459D02*
Y229240D01*
X-128823Y221705D02*
Y225337D01*
X-149315Y221823D02*
X-148000D01*
X-192080Y250917D02*
X-172600Y231437D01*
X-167600D01*
X-231530Y225133D02*
X-223874Y232789D01*
X-239387Y225133D02*
X-231530D01*
X-239764Y224756D02*
X-239387Y225133D01*
X-130150Y220378D02*
X-128823Y221705D01*
X-148000Y220378D02*
Y221823D01*
Y220378D02*
X-130150D01*
X500961Y217965D02*
X892669D01*
X500662Y218264D02*
X500961Y217965D01*
X908051Y227228D02*
Y230204D01*
X494582Y218264D02*
X500662D01*
X474145Y197827D02*
X494582Y218264D01*
X-142756Y238909D02*
X-141185D01*
X-140358Y239736D02*
X-139992D01*
X-141185Y238909D02*
X-140358Y239736D01*
X-142760Y238905D02*
X-142756Y238909D01*
X1040402Y226439D02*
Y248118D01*
X1036955Y222992D02*
X1040402Y226439D01*
X422241Y207077D02*
X422301Y207136D01*
X394356Y188295D02*
X395104Y189043D01*
X387077Y188295D02*
X394356D01*
X395104Y189043D02*
X402756D01*
X379559Y196968D02*
X380748Y195780D01*
X379441Y196968D02*
X379559D01*
X380748Y194624D02*
Y195780D01*
X1028217Y222992D02*
X1036955D01*
X380748Y194624D02*
X387077Y188295D01*
X437985Y235122D02*
X441000Y238137D01*
X424382Y235122D02*
X437985D01*
X362197Y201819D02*
X364209D01*
X365075Y200457D02*
Y200597D01*
X364209Y201463D02*
Y201819D01*
Y201463D02*
X365075Y200597D01*
X434458Y256654D02*
X440900D01*
X441000Y238137D01*
X431899Y254094D02*
X434458Y256654D01*
X431899Y254094D02*
Y255537D01*
X416240D02*
X431899D01*
X416240Y253980D02*
Y255537D01*
X365075Y200457D02*
X368000Y197531D01*
X372130D01*
Y191595D02*
Y191626D01*
Y191595D02*
X372453Y191272D01*
X920772Y250114D02*
X921776Y249110D01*
X918991Y250114D02*
X920772D01*
X921776Y246713D02*
Y249110D01*
X914100Y239037D02*
X921776Y246713D01*
X918885Y250033D02*
X918991Y250114D01*
X918173Y249488D02*
X918885Y250033D01*
X917386Y249193D02*
X918173Y249488D01*
X912500Y239037D02*
X914100D01*
X1096458Y251178D02*
X1097382Y252102D01*
X1094292Y251178D02*
X1096458D01*
X1093248Y250134D02*
X1094292Y251178D01*
X355827Y189299D02*
X357405Y190877D01*
X354382Y189299D02*
X355827D01*
X499803Y221874D02*
X508000Y230071D01*
Y240000D01*
X510500Y242500D01*
X520165D01*
X344146Y186740D02*
X346705D01*
X343270Y207028D02*
X343467Y206830D01*
Y204273D02*
Y206830D01*
Y204273D02*
X343665Y204075D01*
X-137289Y223939D02*
X-137142Y224087D01*
X-141835Y223791D02*
X-141687Y223939D01*
X-137289D01*
X359150Y199037D02*
Y199146D01*
X357089Y196976D02*
X359150Y199037D01*
X363429Y199174D02*
X364054Y198549D01*
X363429Y199174D02*
Y199547D01*
X364054Y197922D02*
Y198549D01*
Y197922D02*
X366413Y195563D01*
X351823Y196976D02*
X357089D01*
X366413Y195563D02*
X372130D01*
X433787Y257441D02*
X441700D01*
X433000Y256654D02*
X433787Y257441D01*
X441700D02*
X442978Y256163D01*
X416088Y256654D02*
X433000D01*
X414272Y254837D02*
X416088Y256654D01*
X414272Y253980D02*
Y254837D01*
X442978Y236415D02*
Y256163D01*
X354382Y191858D02*
X354576Y191664D01*
X361212D01*
X919755Y247957D02*
X920075D01*
X917386Y247224D02*
X919023D01*
X919755Y247957D01*
X340783Y209646D02*
X345988Y214850D01*
X386414Y239674D02*
X388425Y241685D01*
X384869Y239674D02*
X386414D01*
X368397Y239279D02*
X384869Y239674D01*
X367727Y239279D02*
X368397D01*
X366998Y230835D02*
Y234409D01*
X366715Y234693D02*
X366998Y234409D01*
X366715Y238267D02*
X367727Y239279D01*
X366715Y234693D02*
Y238267D01*
X363652Y231032D02*
Y233005D01*
X369788Y193594D02*
X372130D01*
X507087Y219839D02*
X511835Y224587D01*
X491922Y219839D02*
X507087D01*
X511835Y224587D02*
X539662D01*
X905870Y225866D02*
Y228409D01*
X905063Y229217D02*
X905870Y228409D01*
Y225866D02*
X906477Y225260D01*
X490851Y218244D02*
X491398Y218791D01*
Y219314D01*
X491922Y219839D01*
X906477Y225260D02*
X908051D01*
X544292Y229217D02*
X905063D01*
X539662Y224587D02*
X544292Y229217D01*
X357578Y194417D02*
X358854Y193141D01*
X354382Y194417D02*
X357578D01*
X385221Y220370D02*
X388636Y216954D01*
X416400Y236849D02*
Y244017D01*
X416390Y244028D02*
X416400Y244017D01*
X-232087Y220346D02*
X-227248Y225185D01*
X-232087Y217768D02*
Y220346D01*
X-234744Y215110D02*
X-232087Y217768D01*
X-239764Y215110D02*
X-234744D01*
X-142756Y240878D02*
X-141181D01*
X-140012Y242047D01*
X-142760Y240874D02*
X-142756Y240878D01*
X-132705Y223693D02*
Y240374D01*
X-134575Y221823D02*
X-132705Y223693D01*
X-141835Y221823D02*
X-134575D01*
X412060Y197235D02*
X417996D01*
X418871Y198110D01*
X419209D01*
X411941Y197354D02*
X412060Y197235D01*
X366361Y200391D02*
X367251Y199500D01*
X366361Y200391D02*
Y207724D01*
X389850Y258637D02*
X395400D01*
X389619Y258406D02*
X389734Y258522D01*
X389727Y250578D02*
Y250689D01*
X389619Y258241D02*
X389673Y254473D01*
X389619Y258241D02*
Y258406D01*
X389734Y258522D02*
X389850Y258637D01*
X378320Y253813D02*
X380104D01*
X382311Y251606D01*
X378028Y254106D02*
X378320Y253813D01*
X405358Y249791D02*
X407200Y247950D01*
Y218937D02*
Y247950D01*
X378729Y241291D02*
X384145D01*
X367251Y199500D02*
X372130D01*
X394840Y230047D02*
X394931D01*
X393044Y231843D02*
Y231934D01*
Y231843D02*
X394840Y230047D01*
X369940Y237551D02*
X373700D01*
X395400Y248472D02*
Y258637D01*
Y248472D02*
X401835Y242037D01*
Y230047D02*
Y242037D01*
X1080102Y252366D02*
X1084400D01*
X1084664Y252102D01*
X1089114D01*
D70*
X389734Y258522D02*
D03*
D71*
X299835Y223165D02*
D03*
X308620Y223478D02*
D03*
D72*
X381535Y231067D02*
D03*
Y227681D02*
D03*
X382815Y229374D02*
D03*
X384094Y227681D02*
D03*
Y231067D02*
D03*
D73*
X501949Y247894D02*
D03*
Y207894D02*
D03*
X461949D02*
D03*
Y247894D02*
D03*
X984449Y246839D02*
D03*
Y206839D02*
D03*
X944449D02*
D03*
Y246839D02*
D03*
X-166154Y242590D02*
D03*
Y202590D02*
D03*
X-206154D02*
D03*
Y242590D02*
D03*
D74*
X-146500Y241858D02*
D03*
X913646Y250177D02*
D03*
X911792Y224276D02*
D03*
X-145575Y224776D02*
D03*
D75*
X299835Y223165D02*
X300309Y223639D01*
X319992Y233405D02*
X320008Y233421D01*
D76*
X300309Y223639D02*
Y236423D01*
X313791Y225516D02*
Y228646D01*
X311754Y223478D02*
X313791Y225516D01*
X308620Y223478D02*
X311754D01*
X384440Y231078D02*
X385769Y232406D01*
X386747D02*
X389244Y229909D01*
X385769Y232406D02*
X386747D01*
X352650Y240398D02*
X363963D01*
X365423Y238937D01*
X346862Y246185D02*
X352650Y240398D01*
X333059Y234216D02*
Y239270D01*
X336626Y242837D01*
Y246185D01*
X352123Y232018D02*
X355500D01*
X342321Y237142D02*
X347000D01*
X352123Y232018D01*
X336626Y242837D02*
X342321Y237142D01*
X336626Y249463D02*
X338438Y251275D01*
X344859D01*
X346271Y252687D01*
X336626Y246185D02*
Y249463D01*
X336961Y228496D02*
X341866Y233402D01*
X323519Y237264D02*
X332287Y228496D01*
X336961D01*
X308183Y240986D02*
Y252055D01*
Y240986D02*
X311905Y237264D01*
X319992D01*
X323519D01*
X320008Y233421D02*
X323721D01*
X303327Y233405D02*
X319992D01*
X300309Y236423D02*
Y252055D01*
Y236423D02*
X303327Y233405D01*
X346271Y252687D02*
Y257406D01*
X355500Y232018D02*
X361880D01*
X332024Y212594D02*
X334283Y210335D01*
X332024Y212594D02*
Y216079D01*
X369940Y249137D02*
X370728Y249925D01*
Y254106D01*
X366750Y245031D02*
X369940D01*
Y249137D01*
X365423Y238937D02*
Y243705D01*
Y232018D02*
Y238937D01*
Y243705D02*
X366750Y245031D01*
D77*
X-174700Y213540D02*
Y224437D01*
X-173377Y225760D01*
X-149315D01*
X-185650Y202590D02*
X-174700Y213540D01*
X-206154Y202590D02*
X-185650D01*
X-223370Y185374D02*
X-206154Y202590D01*
X-239673Y185374D02*
X-223370D01*
X404368Y205478D02*
X406216Y203630D01*
X396769Y205478D02*
X404368D01*
X-183200Y193937D02*
X-158200D01*
X-196688Y180449D02*
X-183200Y193937D01*
X-250061Y180449D02*
X-196688D01*
X-165301Y251758D02*
X-164131Y250589D01*
X-246954Y251758D02*
X-165301D01*
X-248123Y250589D02*
X-246954Y251758D01*
X-164131Y250589D02*
X-164008D01*
X-248247D02*
X-248123D01*
X-154777Y241358D02*
X-151217D01*
X-150732Y240874D01*
X-164008Y250589D02*
X-154777Y241358D01*
X-150732Y240874D02*
X-150240D01*
X-248730Y250105D02*
X-248247Y250589D01*
X-248730Y237445D02*
Y250105D01*
Y237445D02*
X-240106D01*
X-235993Y233947D02*
X-231966D01*
X-230482Y239994D02*
Y242486D01*
X-235993Y233866D02*
Y233947D01*
X-231589Y238888D02*
X-230482Y239994D01*
X-231966Y233947D02*
X-231589Y234324D01*
X-247492Y252758D02*
X-164763D01*
X-248409Y233866D02*
X-235993D01*
X-231589Y234324D02*
Y238888D01*
X-248954Y251296D02*
Y251296D01*
X-163301Y251296D02*
Y251296D01*
X-164763Y252758D02*
X-163301Y251296D01*
Y251296D02*
X-154847Y242842D01*
X-249730Y250519D02*
X-248954Y251296D01*
Y251296D02*
X-247492Y252758D01*
X-154847Y242842D02*
X-150240D01*
X-240106Y247091D02*
X-235087D01*
X-230482Y242486D01*
X-249730Y235187D02*
X-248409Y233866D01*
X-249730Y235187D02*
Y250519D01*
X1076799Y207159D02*
Y246331D01*
X1054900Y185260D02*
X1076799Y207159D01*
X922450Y232086D02*
X925618Y235254D01*
X922787Y233942D02*
Y236437D01*
X922005Y233159D02*
X922787Y233942D01*
X920133Y232086D02*
X922450D01*
X1027409Y243067D02*
X1028102Y243760D01*
Y247516D01*
X925618Y235254D02*
Y244219D01*
X925687Y244288D01*
X918696Y230649D02*
X920133Y232086D01*
X918696Y224724D02*
Y230649D01*
X915532Y223291D02*
X916024D01*
X916471Y223739D02*
X917711D01*
X916024Y223291D02*
X916471Y223739D01*
X917711D02*
X918696Y224724D01*
X1045902Y240606D02*
X1045925Y240583D01*
X1045902Y240606D02*
Y249935D01*
X1043124Y252713D02*
X1045902Y249935D01*
X919688Y233159D02*
X922005D01*
X917622Y231094D02*
X919688Y233159D01*
X917622Y225169D02*
Y231094D01*
X915532Y225260D02*
X916024D01*
X916471Y224812D01*
X917266D02*
X917622Y225169D01*
X916471Y224812D02*
X917266D01*
X1027409Y252713D02*
X1043124D01*
X909787Y251043D02*
X909905Y251161D01*
X907059Y250925D02*
X907177Y251043D01*
X909787D01*
X461752Y208780D02*
X462032Y208500D01*
X445299Y208780D02*
X461752D01*
X462016Y226811D02*
X462032Y226827D01*
Y248500D01*
X393677Y197824D02*
Y202386D01*
X396769Y205478D01*
X393384Y197531D02*
X393677Y197824D01*
X389059Y197531D02*
X393384D01*
X395813Y193644D02*
X395862Y193693D01*
X389059Y193594D02*
X389108Y193644D01*
X395813D01*
X-250354Y180742D02*
X-250061Y180449D01*
X-250354Y180742D02*
Y194727D01*
X-250061Y195020D01*
X-239673D01*
X954487Y257337D02*
X987700D01*
X949886Y252737D02*
X954487Y257337D01*
X949886Y252737D02*
Y252737D01*
X946532Y249382D02*
X949886Y252737D01*
X939343Y249319D02*
X939406Y249382D01*
X946532D01*
X931111Y257137D02*
X938929Y249319D01*
X939343D01*
X900000Y257137D02*
X931111D01*
X900141Y243159D02*
X906174Y249193D01*
X895969Y253106D02*
X900000Y257137D01*
X895969Y243998D02*
Y253106D01*
Y243998D02*
X896807Y243159D01*
X900141D01*
X987700Y257337D02*
X1014200Y230837D01*
X1018000Y194906D02*
X1028028D01*
X1014200Y198706D02*
Y230837D01*
Y198706D02*
X1018000Y194906D01*
X906174Y249193D02*
X909905D01*
X1028028Y185260D02*
X1054900D01*
X968374D02*
X1028028D01*
X944417Y209217D02*
X968374Y185260D01*
X-239673Y195020D02*
X-230800D01*
Y217944D01*
X-206154Y242590D01*
X-158200Y193937D02*
X-155700Y196437D01*
Y219091D01*
X-151000Y223791D01*
X-149315D01*
D78*
X373043Y179520D02*
X373055Y179508D01*
D79*
X308183Y252055D02*
D03*
D80*
X300309D02*
D03*
D81*
X-146500Y240283D02*
D03*
Y243433D02*
D03*
X913646Y248602D02*
D03*
Y251752D02*
D03*
X911792Y225850D02*
D03*
Y222701D02*
D03*
X-145575Y223201D02*
D03*
Y226350D02*
D03*
D82*
X912240Y244161D02*
D03*
X915142Y244284D02*
D03*
X417756Y250811D02*
D03*
X414272Y249618D02*
D03*
X313791Y228646D02*
D03*
X311905Y237264D02*
D03*
X388425Y245386D02*
D03*
X450236Y245634D02*
D03*
X381563Y233587D02*
D03*
X389244Y229909D02*
D03*
X353870Y234283D02*
D03*
X333059Y234216D02*
D03*
X323721Y233421D02*
D03*
X415428Y215766D02*
D03*
X428106Y213894D02*
D03*
X415795Y208858D02*
D03*
X414614Y230516D02*
D03*
X430318Y230055D02*
D03*
X418661Y226157D02*
D03*
X422162Y229519D02*
D03*
X428429Y222406D02*
D03*
X-118681Y247787D02*
D03*
X-131772Y247165D02*
D03*
X-138512Y245937D02*
D03*
X324177Y205244D02*
D03*
X327720Y206992D02*
D03*
X373055Y171787D02*
D03*
X393358Y175329D02*
D03*
X320685Y191831D02*
D03*
X391519Y181972D02*
D03*
X382461Y186882D02*
D03*
X328803Y203689D02*
D03*
X395933Y201658D02*
D03*
X406216Y203630D02*
D03*
X898008Y245831D02*
D03*
X927800Y242640D02*
D03*
X376377Y244498D02*
D03*
X369366Y227047D02*
D03*
X-151939Y228504D02*
D03*
X-126303Y225197D02*
D03*
X413346Y189709D02*
D03*
X315339Y167358D02*
D03*
X512347Y222268D02*
D03*
X509205Y226335D02*
D03*
X368791Y179937D02*
D03*
X334303Y186346D02*
D03*
X312421Y196957D02*
D03*
X346264Y207232D02*
D03*
X334283Y210335D02*
D03*
X288016Y227610D02*
D03*
X268803Y240756D02*
D03*
X295434Y211186D02*
D03*
X365823Y184924D02*
D03*
X338256Y204012D02*
D03*
X340783Y204075D02*
D03*
X333984Y203772D02*
D03*
X339039Y186343D02*
D03*
X358878Y184689D02*
D03*
X358942Y188613D02*
D03*
X421835Y187669D02*
D03*
X371500Y189244D02*
D03*
X341398Y184673D02*
D03*
X347543Y183098D02*
D03*
X370858Y222197D02*
D03*
X373098Y227051D02*
D03*
X915362Y231756D02*
D03*
X902681Y223642D02*
D03*
X363968Y194280D02*
D03*
X-130724Y233221D02*
D03*
X-144132Y233137D02*
D03*
X377594Y194961D02*
D03*
X892669Y217965D02*
D03*
X908051Y230204D02*
D03*
X-139992Y239736D02*
D03*
X1040402Y248118D02*
D03*
X422241Y207077D02*
D03*
Y200784D02*
D03*
X402756Y189043D02*
D03*
X379441Y196968D02*
D03*
X424382Y235122D02*
D03*
X364209Y201819D02*
D03*
X912500Y239037D02*
D03*
X1093248Y250134D02*
D03*
X499803Y221874D02*
D03*
X343270Y207028D02*
D03*
X343665Y204075D02*
D03*
X-137142Y224087D02*
D03*
X-135236Y218122D02*
D03*
X359150Y199146D02*
D03*
X363429Y199547D02*
D03*
X348949Y204075D02*
D03*
X920075Y247957D02*
D03*
X345988Y214850D02*
D03*
X410539Y211776D02*
D03*
X358854Y193141D02*
D03*
X385221Y220370D02*
D03*
X406787Y214835D02*
D03*
X416390Y244028D02*
D03*
X-227248Y225185D02*
D03*
X-140012Y242047D02*
D03*
X-132705Y240374D02*
D03*
X1076799Y246331D02*
D03*
X922787Y236437D02*
D03*
X1028102Y247516D02*
D03*
X925687Y244288D02*
D03*
X1045925Y240583D02*
D03*
X907059Y250925D02*
D03*
X445299Y208780D02*
D03*
X462016Y226811D02*
D03*
X395862Y193693D02*
D03*
X419209Y198110D02*
D03*
X382311Y251606D02*
D03*
X405358Y249791D02*
D03*
D83*
X333910Y194417D02*
D03*
X328791Y189299D02*
D03*
Y191858D02*
D03*
X339028Y189299D02*
D03*
X336469D02*
D03*
X333910Y191858D02*
D03*
X331350Y186740D02*
D03*
X346705Y196976D02*
D03*
X341587Y191858D02*
D03*
X351823Y194417D02*
D03*
X344146Y191858D02*
D03*
X336469Y196976D02*
D03*
X346705Y191858D02*
D03*
X339028D02*
D03*
M02*
