G04*
G04 #@! TF.GenerationSoftware,Altium Limited,Altium Designer,25.8.1 (18)*
G04*
G04 Layer_Physical_Order=2*
G04 Layer_Color=16711680*
%FSLAX25Y25*%
%MOIN*%
G70*
G04*
G04 #@! TF.SameCoordinates,0636D6F4-90F1-4F74-A5AB-28ACEA2C2FB7*
G04*
G04*
G04 #@! TF.FilePolarity,Positive*
G04*
G01*
G75*
%ADD64C,0.03543*%
%ADD65C,0.02953*%
%ADD69C,0.00394*%
%ADD76C,0.01181*%
%ADD77C,0.00500*%
%ADD78C,0.01000*%
%ADD79C,0.04724*%
%ADD80R,0.04724X0.04724*%
%ADD81C,0.01968*%
%ADD82C,0.01772*%
D64*
X328480Y224740D02*
D03*
X355252D02*
D03*
D65*
X379736Y179520D02*
D03*
D69*
X354780Y235578D02*
G03*
X353878Y235866I-910J-1295D01*
G01*
X327721Y208575D02*
G03*
X327670Y208574I-0J-1583D01*
G01*
X904468Y243837D02*
X904792Y244161D01*
X912240D01*
X918665Y246547D02*
X920075Y247957D01*
X899169Y249433D02*
X902055Y246547D01*
X918665D01*
X901547Y245760D02*
X924339D01*
X925028Y246449D01*
X899508Y247799D02*
X901547Y245760D01*
X915142Y244284D02*
X923083D01*
X924727Y242640D01*
X897869Y243837D02*
X904468D01*
X415694Y250811D02*
X417756D01*
X414501Y249618D02*
X415694Y250811D01*
X414272Y249618D02*
X414501D01*
X393772Y207937D02*
X410263D01*
X372490Y187768D02*
X396497Y211776D01*
X410539D01*
X372816Y186980D02*
X393772Y207937D01*
X-119054Y247839D02*
X-118681D01*
X-131772Y247264D02*
X-128476D01*
X308807Y252055D02*
X323909Y236953D01*
X423455Y238900D02*
X428392Y243837D01*
X383097Y242472D02*
X387196D01*
X390484Y243327D02*
X401842D01*
X367362Y237846D02*
X377028Y247512D01*
X401842Y243327D02*
X405283Y239886D01*
X683489Y247799D02*
X899508D01*
X681324Y245634D02*
X683489Y247799D01*
X450236Y245634D02*
X681324D01*
X381563Y236839D02*
X387196Y242472D01*
X428392Y243837D02*
X897869D01*
X369366Y228741D02*
X383097Y242472D01*
X387196D02*
X401233D01*
X378365D02*
X383097D01*
X381563Y233587D02*
Y236839D01*
X376358Y244479D02*
X376377Y244498D01*
X404804Y238900D02*
X423455D01*
X376358Y244479D02*
X378365Y242472D01*
X401233D02*
X404804Y238900D01*
X369366Y227047D02*
Y228741D01*
X308183Y252055D02*
X308807D01*
X897869Y243837D02*
Y245692D01*
X323909Y236953D02*
X367732D01*
X897869Y245692D02*
X898008Y245831D01*
X367732Y236953D02*
X369053Y237174D01*
X376358Y244479D01*
X388425Y245386D02*
X390484Y243327D01*
X405283Y239886D02*
X423279D01*
X432827Y249433D02*
X899169D01*
X423279Y239886D02*
X432827Y249433D01*
X312776Y249350D02*
Y253401D01*
X310244Y255933D02*
X312776Y253401D01*
X377028Y247512D02*
X408187D01*
X324280Y237846D02*
X367362D01*
X312776Y249350D02*
X324280Y237846D01*
X298627Y255933D02*
X310244D01*
X395508Y233087D02*
X416072D01*
X387236Y224815D02*
X395508Y233087D01*
X387236Y219783D02*
Y224815D01*
X367425Y212362D02*
X393000Y237937D01*
X326788Y212362D02*
X367425D01*
X393000Y237937D02*
X426000D01*
X361703Y230712D02*
X362074D01*
X353729Y236015D02*
X353878Y235866D01*
X323092Y236015D02*
X353729D01*
X347713Y228126D02*
X353870Y234283D01*
X354780Y235578D02*
X361703Y230712D01*
X313170Y245937D02*
X323092Y236015D01*
X-152098Y228504D02*
X-149846Y230756D01*
X416625Y211097D02*
X425310D01*
X415862Y210335D02*
X416625Y211097D01*
X425310D02*
X428106Y213894D01*
X415862Y208925D02*
Y210335D01*
X415795Y208858D02*
X415862Y208925D01*
X425038Y221598D02*
X427509D01*
X427700Y225374D02*
Y235537D01*
X410263Y207937D02*
X427700Y225374D01*
X397210Y206915D02*
X410355D01*
X425038Y221598D01*
X374668Y198409D02*
X406775Y230516D01*
X414614D01*
X430318Y203572D02*
Y230055D01*
X418598Y226221D02*
X418661Y226157D01*
X418598Y226221D02*
Y228585D01*
X421450Y231437D01*
X376294Y197622D02*
X402809Y224137D01*
X352370Y201040D02*
Y201040D01*
X420500Y224137D02*
X422200Y225837D01*
X402809Y224137D02*
X420500D01*
X421450Y231437D02*
X424700D01*
X422200Y225837D02*
Y229480D01*
X422162Y229519D02*
X422200Y229480D01*
X424700Y231437D02*
X426750Y233487D01*
Y237187D01*
X427509Y221598D02*
X428317Y222406D01*
X423911Y197165D02*
X430318Y203572D01*
X428317Y222406D02*
X428429D01*
X408648Y244028D02*
X416390D01*
X408417Y244258D02*
Y247281D01*
Y244258D02*
X408648Y244028D01*
X408187Y247512D02*
X408417Y247281D01*
X297808Y255114D02*
X298627Y255933D01*
X297658Y255114D02*
X297808D01*
X297444Y254900D02*
X297658Y255114D01*
X288763Y254900D02*
X297444D01*
X286800Y252937D02*
X288763Y254900D01*
X-222677Y245732D02*
X-215472Y252937D01*
X286800D01*
X-119542Y248327D02*
X-119054Y247839D01*
X-127413Y248327D02*
X-119542D01*
X-138512Y245937D02*
X-138273D01*
X-137592Y245256D01*
X-126841D01*
X-13359Y248905D02*
X297339D01*
X-16327Y245937D02*
X-13359Y248905D01*
X300307Y245937D02*
X313170D01*
X-126841Y245256D02*
X-126160Y245937D01*
X297339Y248905D02*
X300307Y245937D01*
X-128476Y247264D02*
X-127413Y248327D01*
X-126160Y245937D02*
X-16327D01*
X324227Y205294D02*
X332462D01*
X324177Y205244D02*
X324227Y205294D01*
X332462D02*
X333984Y203772D01*
X344925Y208571D02*
X345040Y208455D01*
X317528Y201988D02*
X323995Y208455D01*
X327670Y208574D01*
X329394Y206957D02*
X343199D01*
X327721Y208575D02*
X344925Y208571D01*
X327720Y206992D02*
X329394Y206957D01*
X345040Y208455D02*
X346264Y207232D01*
X389816Y171787D02*
X393358Y175329D01*
X373055Y171787D02*
X389816D01*
X320689Y191835D02*
Y193421D01*
X321685Y194417D01*
X320685Y191831D02*
X320689Y191835D01*
X321685Y194417D02*
X333910D01*
X316740Y191367D02*
X318816Y189291D01*
X317528Y191693D02*
X319142Y190079D01*
X316740Y191367D02*
Y202314D01*
X318816Y189291D02*
X327338D01*
X317528Y191693D02*
Y201988D01*
X319142Y190079D02*
X327012D01*
X328791Y191858D01*
X312421Y194337D02*
X318255Y188504D01*
X327338Y189291D02*
X327346Y189299D01*
X318255Y188504D02*
X327499D01*
X296910Y208735D02*
X317929Y187716D01*
X327173D01*
X327499Y188504D02*
X328180Y187823D01*
X327173Y187716D02*
X328149Y186740D01*
X317728Y186803D02*
X326972D01*
X273195Y231337D02*
X317728Y186803D01*
X-65700Y231337D02*
X273195D01*
X312421Y194337D02*
Y196957D01*
X296910Y208735D02*
Y211797D01*
X327346Y189299D02*
X328791D01*
X329874Y187823D02*
X333910Y191858D01*
X326972Y186803D02*
X328512Y185264D01*
X391519Y181972D02*
X459902D01*
X459818Y183976D02*
X499192Y223350D01*
X372831Y183976D02*
X459818D01*
X368791Y179937D02*
X372831Y183976D01*
X405474Y186720D02*
X406002Y186193D01*
X428481D01*
X442315Y200028D01*
X373142Y186193D02*
X375307Y188358D01*
X397827D01*
X367563Y185406D02*
X428807D01*
X382461Y186882D02*
X382622Y186720D01*
X405474D01*
X428807Y185406D02*
X442512Y199110D01*
X397827Y188358D02*
X398678Y187508D01*
X459902Y181972D02*
X499803Y221874D01*
X328803Y202083D02*
Y203689D01*
Y202083D02*
X339028Y191859D01*
X395661Y203834D02*
X395933Y203562D01*
X395661Y203834D02*
Y205366D01*
X395933Y201658D02*
Y203562D01*
X395661Y205366D02*
X397210Y206915D01*
X924727Y242640D02*
X927800D01*
X-138809Y230756D02*
X-138694Y230644D01*
X-149846Y230756D02*
X-138809D01*
X-138694Y230644D02*
X-133091Y225197D01*
X-126303D01*
X402756Y189043D02*
X412426D01*
X413092Y189709D02*
X413346D01*
X412426Y189043D02*
X413092Y189709D01*
X315339Y167358D02*
X364256D01*
X499192Y223350D02*
X511264D01*
X512347Y222268D01*
X897601Y224138D02*
X912500Y239037D01*
X498224Y224138D02*
X897601D01*
X507943Y224995D02*
X509205Y226257D01*
Y226335D01*
X506579Y224995D02*
X507943D01*
X506508Y224925D02*
X506579Y224995D01*
X497532Y224925D02*
X506508D01*
X473197Y199110D02*
X498224Y224138D01*
X472634Y200028D02*
X497532Y224925D01*
X366568Y186401D02*
X367563Y185406D01*
X334911Y185144D02*
X335189Y184866D01*
X334911Y185144D02*
Y185366D01*
X334303Y185974D02*
X334911Y185366D01*
X334303Y185974D02*
Y186346D01*
X335189Y184866D02*
X339117D01*
X343199Y206957D02*
X343270Y207028D01*
X281949Y227610D02*
X288016D01*
X268803Y240756D02*
X281949Y227610D01*
X283490Y225217D02*
X296910Y211797D01*
X283228Y225217D02*
X283490D01*
X269809Y238637D02*
X283228Y225217D01*
X-69400Y238637D02*
X269809D01*
X274495Y232124D02*
X295434Y211186D01*
X-64001Y232124D02*
X274495D01*
X316740Y202314D02*
X326788Y212362D01*
X343018Y183197D02*
X345987Y186165D01*
X360809D01*
X340786Y183197D02*
X343018D01*
X341398Y184673D02*
Y186313D01*
X339888Y187823D02*
X341398Y186313D01*
X333057Y187823D02*
X337182D01*
X332827Y187592D02*
X333057Y187823D01*
X332827Y186129D02*
Y187592D01*
X337182Y187823D02*
X337970Y187035D01*
X328512Y185264D02*
X331962D01*
X332827Y186129D01*
X328180Y187823D02*
X329874D01*
X328149Y186740D02*
X331350D01*
X356797Y183783D02*
X357368Y183213D01*
X360084D01*
X360809Y186165D02*
X362619Y187975D01*
X362293Y188763D02*
X367864D01*
X368859Y187768D02*
X372490D01*
X363272Y186401D02*
X366568D01*
X367889Y186193D02*
X373142D01*
X367220Y187975D02*
X368215Y186980D01*
X360551Y184794D02*
X362946Y187188D01*
X366894D02*
X367889Y186193D01*
X362619Y187975D02*
X367220D01*
X365890Y168992D02*
Y184857D01*
X365823Y184924D02*
X365890Y184857D01*
X367864Y188763D02*
X368859Y187768D01*
X360503Y186972D02*
X362293Y188763D01*
X368215Y186980D02*
X372816D01*
X360084Y183213D02*
X363272Y186401D01*
X362946Y187188D02*
X366894D01*
X364256Y167358D02*
X365890Y168992D01*
X338256Y200307D02*
Y204012D01*
Y200307D02*
X346705Y191858D01*
X340783Y199366D02*
Y204075D01*
Y199366D02*
X346815Y193335D01*
X337339Y205551D02*
X371055D01*
X336469Y196976D02*
Y204681D01*
X337339Y205551D01*
X337974Y187035D02*
X338667Y186343D01*
X339039D01*
X339117Y184866D02*
X340786Y183197D01*
X337970Y187035D02*
X337974D01*
X358983Y184794D02*
X360551D01*
X358878Y184689D02*
X358983Y184794D01*
X358898Y188657D02*
X358942Y188613D01*
X344425Y186972D02*
X360503D01*
X342098Y189299D02*
X344425Y186972D01*
X348463Y183783D02*
X356797D01*
X347778Y183098D02*
X348463Y183783D01*
X347543Y183098D02*
X347778D01*
X358898Y188657D02*
Y193097D01*
X338296Y187823D02*
X339888D01*
X336819Y189299D02*
X338296Y187823D01*
X336469Y189299D02*
X336819D01*
X339028D02*
X342098D01*
X352370Y200567D02*
Y201040D01*
X369331Y189177D02*
X371433D01*
X398678Y187508D02*
X421673D01*
X421835Y187669D01*
X371433Y189177D02*
X371500Y189244D01*
X358854Y193141D02*
X358898Y193097D01*
X367149Y225637D02*
X370589Y222197D01*
X370858D01*
X371618Y225571D02*
X373098Y227051D01*
X367149Y225637D02*
X368530D01*
X368596Y225571D02*
X371618D01*
X368530Y225637D02*
X368596Y225571D01*
X362074Y230712D02*
X367149Y225637D01*
X911882Y228276D02*
X915362Y231756D01*
X906638Y228276D02*
X911882D01*
X906201Y227839D02*
X906638Y228276D01*
X904790Y227839D02*
X906201D01*
X902681Y225730D02*
X904790Y227839D01*
X902681Y223642D02*
Y225730D01*
X377222Y194961D02*
X377594D01*
X376540Y194280D02*
X377222Y194961D01*
X363968Y194280D02*
X376540D01*
X-130766Y233179D02*
X-130724Y233221D01*
X-144090Y233179D02*
X-130766D01*
X-144132Y233137D02*
X-144090Y233179D01*
X904909Y230204D02*
X908051D01*
X892669Y217965D02*
X904909Y230204D01*
X-139992Y239736D02*
X-137858D01*
X-136177Y238055D01*
X-72418D01*
X-65700Y231337D01*
X346705Y196976D02*
X346762Y197034D01*
X354789D01*
X1009319Y246449D02*
X1011886Y249016D01*
X1040109Y248118D02*
X1040402D01*
X1011886Y249016D02*
X1039211D01*
X1040109Y248118D01*
X925028Y246449D02*
X1009319D01*
X422241Y200784D02*
Y207077D01*
X354789Y197034D02*
X355201Y196622D01*
X364086D02*
X364299Y196835D01*
X355201Y196622D02*
X364086D01*
X364299Y196835D02*
X379307D01*
X379441Y196968D01*
X369272Y201819D02*
X387236Y219783D01*
X364209Y201819D02*
X369272D01*
X418122Y235137D02*
X424367D01*
X424382Y235122D01*
X416072Y233087D02*
X418122Y235137D01*
X349138Y189437D02*
X354318Y194617D01*
X344008Y189437D02*
X349138D01*
X341587Y191858D02*
X344008Y189437D01*
X354318Y194617D02*
X360123D01*
X362949Y191791D01*
X366717D02*
X369331Y189177D01*
X362949Y191791D02*
X366717D01*
X442512Y199110D02*
X473197D01*
X1085451Y242337D02*
X1093248Y250134D01*
X931556Y242337D02*
X1085451D01*
X929900Y240681D02*
X931556Y242337D01*
X921561D02*
X923217Y240681D01*
X929900D01*
X449700Y242737D02*
X921561Y242337D01*
X434900Y242737D02*
X449700D01*
X427700Y235537D02*
X434900Y242737D01*
X346093Y195500D02*
X350740D01*
X351823Y194417D01*
X343665Y197928D02*
X346093Y195500D01*
X343665Y197928D02*
Y204075D01*
X-137295Y223933D02*
X-137142Y224087D01*
X-137295Y220181D02*
Y223933D01*
Y220181D02*
X-135236Y218122D01*
X363429Y199547D02*
X365984D01*
X359150Y199146D02*
X359350Y199346D01*
X363228D01*
X363429Y199547D01*
X365984D02*
X367122Y198409D01*
X374668D01*
X348949Y204075D02*
X351984Y201040D01*
X352370D01*
Y200567D02*
X355527Y197409D01*
X363760D02*
X363972Y197622D01*
X355527Y197409D02*
X363760D01*
X363972Y197622D02*
X376294D01*
X442315Y200028D02*
X472634D01*
X347316Y190382D02*
X348181Y191247D01*
X344146Y191858D02*
X345622Y190382D01*
X347316D01*
X347523Y193335D02*
X348181Y192677D01*
Y191247D02*
Y192677D01*
X346815Y193335D02*
X347523D01*
X345988Y214850D02*
X346055D01*
X347713Y216508D01*
Y228126D01*
X426000Y237937D02*
X426750Y237187D01*
X371055Y205551D02*
X378268Y212764D01*
Y213417D01*
X385221Y220370D01*
X406787Y214835D02*
X414496D01*
X415428Y215766D01*
X-222677Y229756D02*
Y245732D01*
X-227248Y225185D02*
X-222677Y229756D01*
X-138791Y241784D02*
X-135866Y238858D01*
X-140012Y242047D02*
X-139748Y241784D01*
X-138791D01*
X-70735Y238858D02*
X-64001Y232124D01*
X-135866Y238858D02*
X-70735D01*
X-102163Y240374D02*
X-101734Y240802D01*
X-71565D01*
X-132705Y240374D02*
X-102163D01*
X-71565Y240802D02*
X-69400Y238637D01*
X419407Y198110D02*
X420352Y197165D01*
X419209Y198110D02*
X419407D01*
X420352Y197165D02*
X423911D01*
X382311Y251606D02*
X384126Y249791D01*
X405358D01*
D76*
X334283Y210335D02*
X369669D01*
X389244Y229909D01*
X333059Y231440D02*
Y234216D01*
X326854Y230287D02*
X331906D01*
X323721Y233421D02*
X326854Y230287D01*
X331906D02*
X333059Y231440D01*
D77*
X406216Y196618D02*
X406509Y196325D01*
X424259D01*
X406216Y196618D02*
Y203630D01*
X397803Y191752D02*
X421836D01*
X395862Y193693D02*
X397803Y191752D01*
X421836D02*
X436290Y206206D01*
X1068400Y254837D02*
X1076799Y246438D01*
Y246331D02*
Y246438D01*
X908317Y254837D02*
X1068400D01*
X922787Y236437D02*
X925126Y238776D01*
X951739D02*
X953700Y240737D01*
X925126Y238776D02*
X951739D01*
X1028094Y247524D02*
X1028102Y247516D01*
X1012307Y247524D02*
X1028094D01*
X1009142Y244358D02*
X1012307Y247524D01*
X925757Y244358D02*
X1009142D01*
X925687Y244288D02*
X925757Y244358D01*
X1045771Y240737D02*
X1045925Y240583D01*
X953700Y240737D02*
X1045771D01*
X907059Y250925D02*
Y253579D01*
X908317Y254837D01*
X445720Y206206D02*
X462016Y222502D01*
X444039Y207726D02*
X445093Y208780D01*
X435661Y207726D02*
X444039D01*
X445093Y208780D02*
X445299D01*
X436290Y206206D02*
X445720D01*
X424259Y196325D02*
X435661Y207726D01*
X462016Y222502D02*
Y226811D01*
D78*
X311905Y230532D02*
X313791Y228646D01*
X311905Y230532D02*
Y237264D01*
D79*
X308183Y252055D02*
D03*
D80*
X300309D02*
D03*
D81*
X-146500Y240283D02*
D03*
Y243433D02*
D03*
X913646Y248602D02*
D03*
Y251752D02*
D03*
X911792Y225850D02*
D03*
Y222701D02*
D03*
X-145575Y223201D02*
D03*
Y226350D02*
D03*
D82*
X912240Y244161D02*
D03*
X915142Y244284D02*
D03*
X417756Y250811D02*
D03*
X414272Y249618D02*
D03*
X313791Y228646D02*
D03*
X311905Y237264D02*
D03*
X388425Y245386D02*
D03*
X450236Y245634D02*
D03*
X381563Y233587D02*
D03*
X389244Y229909D02*
D03*
X353870Y234283D02*
D03*
X333059Y234216D02*
D03*
X323721Y233421D02*
D03*
X415428Y215766D02*
D03*
X428106Y213894D02*
D03*
X415795Y208858D02*
D03*
X414614Y230516D02*
D03*
X430318Y230055D02*
D03*
X418661Y226157D02*
D03*
X422162Y229519D02*
D03*
X428429Y222406D02*
D03*
X-118681Y247787D02*
D03*
X-131772Y247165D02*
D03*
X-138512Y245937D02*
D03*
X324177Y205244D02*
D03*
X327720Y206992D02*
D03*
X373055Y171787D02*
D03*
X393358Y175329D02*
D03*
X320685Y191831D02*
D03*
X333910Y194417D02*
D03*
X391519Y181972D02*
D03*
X382461Y186882D02*
D03*
X328803Y203689D02*
D03*
X395933Y201658D02*
D03*
X406216Y203630D02*
D03*
X898008Y245831D02*
D03*
X927800Y242640D02*
D03*
X376377Y244498D02*
D03*
X369366Y227047D02*
D03*
X-151939Y228504D02*
D03*
X-126303Y225197D02*
D03*
X413346Y189709D02*
D03*
X315339Y167358D02*
D03*
X512347Y222268D02*
D03*
X509205Y226335D02*
D03*
X368791Y179937D02*
D03*
X334303Y186346D02*
D03*
X312421Y196957D02*
D03*
X346264Y207232D02*
D03*
X334283Y210335D02*
D03*
X288016Y227610D02*
D03*
X268803Y240756D02*
D03*
X295434Y211186D02*
D03*
X365823Y184924D02*
D03*
X338256Y204012D02*
D03*
X340783Y204075D02*
D03*
X333984Y203772D02*
D03*
X339039Y186343D02*
D03*
X358878Y184689D02*
D03*
X358942Y188613D02*
D03*
X328791Y189299D02*
D03*
Y191858D02*
D03*
X339028Y189299D02*
D03*
X336469D02*
D03*
X333910Y191858D02*
D03*
X421835Y187669D02*
D03*
X371500Y189244D02*
D03*
X341398Y184673D02*
D03*
X347543Y183098D02*
D03*
X331350Y186740D02*
D03*
X370858Y222197D02*
D03*
X373098Y227051D02*
D03*
X915362Y231756D02*
D03*
X902681Y223642D02*
D03*
X363968Y194280D02*
D03*
X-130724Y233221D02*
D03*
X-144132Y233137D02*
D03*
X377594Y194961D02*
D03*
X892669Y217965D02*
D03*
X908051Y230204D02*
D03*
X-139992Y239736D02*
D03*
X346705Y196976D02*
D03*
X1040402Y248118D02*
D03*
X422241Y207077D02*
D03*
Y200784D02*
D03*
X402756Y189043D02*
D03*
X379441Y196968D02*
D03*
X424382Y235122D02*
D03*
X364209Y201819D02*
D03*
X341587Y191858D02*
D03*
X912500Y239037D02*
D03*
X1093248Y250134D02*
D03*
X499803Y221874D02*
D03*
X343270Y207028D02*
D03*
X351823Y194417D02*
D03*
X343665Y204075D02*
D03*
X-137142Y224087D02*
D03*
X-135236Y218122D02*
D03*
X359150Y199146D02*
D03*
X363429Y199547D02*
D03*
X348949Y204075D02*
D03*
X344146Y191858D02*
D03*
X920075Y247957D02*
D03*
X345988Y214850D02*
D03*
X410539Y211776D02*
D03*
X358854Y193141D02*
D03*
X336469Y196976D02*
D03*
X385221Y220370D02*
D03*
X406787Y214835D02*
D03*
X416390Y244028D02*
D03*
X-227248Y225185D02*
D03*
X346705Y191858D02*
D03*
X-140012Y242047D02*
D03*
X339028Y191858D02*
D03*
X-132705Y240374D02*
D03*
X1076799Y246331D02*
D03*
X922787Y236437D02*
D03*
X1028102Y247516D02*
D03*
X925687Y244288D02*
D03*
X1045925Y240583D02*
D03*
X907059Y250925D02*
D03*
X445299Y208780D02*
D03*
X462016Y226811D02*
D03*
X395862Y193693D02*
D03*
X419209Y198110D02*
D03*
X382311Y251606D02*
D03*
X405358Y249791D02*
D03*
M02*
