G04*
G04 #@! TF.GenerationSoftware,Altium Limited,Altium Designer,25.8.1 (18)*
G04*
G04 Layer_Color=128*
%FSLAX25Y25*%
%MOIN*%
G70*
G04*
G04 #@! TF.SameCoordinates,0636D6F4-90F1-4F74-A5AB-28ACEA2C2FB7*
G04*
G04*
G04 #@! TF.FilePolarity,Positive*
G04*
G01*
G75*
%ADD77C,0.00500*%
D77*
X306805Y252055D02*
X309561D01*
X308183Y250677D02*
Y253433D01*
X298931Y252055D02*
X301687D01*
X300309Y250677D02*
Y253433D01*
X326709Y224740D02*
X330252D01*
X328480Y222969D02*
Y226512D01*
X353481Y224740D02*
X357024D01*
X355252Y222969D02*
Y226512D01*
X378260Y179520D02*
X381213D01*
X379736Y178043D02*
Y180996D01*
X-146900Y240283D02*
X-146100D01*
X-146500Y239883D02*
Y240683D01*
X-146900Y243433D02*
X-146100D01*
X-146500Y243033D02*
Y243833D01*
X913246Y248602D02*
X914046D01*
X913646Y248202D02*
Y249002D01*
X913246Y251752D02*
X914046D01*
X913646Y251352D02*
Y252152D01*
X911392Y225850D02*
X912192D01*
X911792Y225450D02*
Y226250D01*
X911392Y222701D02*
X912192D01*
X911792Y222301D02*
Y223101D01*
X-145975Y223201D02*
X-145175D01*
X-145575Y222801D02*
Y223601D01*
X-145975Y226350D02*
X-145175D01*
X-145575Y225950D02*
Y226750D01*
X911945Y244161D02*
X912535D01*
X912240Y243866D02*
Y244457D01*
X914847Y244284D02*
X915437D01*
X915142Y243988D02*
Y244579D01*
X417461Y250811D02*
X418051D01*
X417756Y250516D02*
Y251106D01*
X413976Y249618D02*
X414567D01*
X414272Y249323D02*
Y249913D01*
X313496Y228646D02*
X314087D01*
X313791Y228350D02*
Y228941D01*
X311610Y237264D02*
X312201D01*
X311905Y236968D02*
Y237559D01*
X388130Y245386D02*
X388720D01*
X388425Y245091D02*
Y245681D01*
X449941Y245634D02*
X450531D01*
X450236Y245339D02*
Y245929D01*
X381268Y233587D02*
X381858D01*
X381563Y233291D02*
Y233882D01*
X388949Y229909D02*
X389539D01*
X389244Y229614D02*
Y230205D01*
X353575Y234283D02*
X354165D01*
X353870Y233988D02*
Y234579D01*
X332764Y234216D02*
X333354D01*
X333059Y233921D02*
Y234512D01*
X323425Y233421D02*
X324016D01*
X323721Y233126D02*
Y233717D01*
X415132Y215766D02*
X415723D01*
X415428Y215471D02*
Y216061D01*
X427811Y213894D02*
X428402D01*
X428106Y213598D02*
Y214189D01*
X415500Y208858D02*
X416090D01*
X415795Y208563D02*
Y209154D01*
X414319Y230516D02*
X414909D01*
X414614Y230221D02*
Y230811D01*
X430023Y230055D02*
X430614D01*
X430318Y229760D02*
Y230350D01*
X418366Y226157D02*
X418957D01*
X418661Y225862D02*
Y226453D01*
X421866Y229519D02*
X422457D01*
X422162Y229223D02*
Y229814D01*
X428134Y222406D02*
X428724D01*
X428429Y222110D02*
Y222701D01*
X-118976Y247787D02*
X-118386D01*
X-118681Y247492D02*
Y248083D01*
X-132067Y247165D02*
X-131476D01*
X-131772Y246869D02*
Y247460D01*
X-138807Y245937D02*
X-138216D01*
X-138512Y245642D02*
Y246232D01*
X323882Y205244D02*
X324472D01*
X324177Y204949D02*
Y205539D01*
X327425Y206992D02*
X328016D01*
X327720Y206697D02*
Y207287D01*
X372760Y171787D02*
X373350D01*
X373055Y171492D02*
Y172083D01*
X393063Y175329D02*
X393653D01*
X393358Y175034D02*
Y175625D01*
X320390Y191831D02*
X320980D01*
X320685Y191535D02*
Y192126D01*
X333614Y194417D02*
X334205D01*
X333910Y194122D02*
Y194713D01*
X391224Y181972D02*
X391815D01*
X391519Y181677D02*
Y182268D01*
X382165Y186882D02*
X382756D01*
X382461Y186587D02*
Y187177D01*
X328508Y203689D02*
X329098D01*
X328803Y203394D02*
Y203984D01*
X395638Y201658D02*
X396228D01*
X395933Y201362D02*
Y201953D01*
X405921Y203630D02*
X406512D01*
X406216Y203335D02*
Y203925D01*
X897713Y245831D02*
X898303D01*
X898008Y245535D02*
Y246126D01*
X927505Y242640D02*
X928095D01*
X927800Y242345D02*
Y242935D01*
X376081Y244498D02*
X376672D01*
X376377Y244202D02*
Y244793D01*
X369071Y227047D02*
X369661D01*
X369366Y226752D02*
Y227343D01*
X-152234Y228504D02*
X-151643D01*
X-151939Y228209D02*
Y228799D01*
X-126598Y225197D02*
X-126008D01*
X-126303Y224902D02*
Y225492D01*
X413051Y189709D02*
X413641D01*
X413346Y189414D02*
Y190005D01*
X315043Y167358D02*
X315634D01*
X315339Y167063D02*
Y167654D01*
X512051Y222268D02*
X512642D01*
X512347Y221972D02*
Y222563D01*
X508910Y226335D02*
X509500D01*
X509205Y226039D02*
Y226630D01*
X368496Y179937D02*
X369087D01*
X368791Y179642D02*
Y180232D01*
X334008Y186346D02*
X334598D01*
X334303Y186051D02*
Y186642D01*
X312126Y196957D02*
X312717D01*
X312421Y196661D02*
Y197252D01*
X345969Y207232D02*
X346559D01*
X346264Y206937D02*
Y207528D01*
X333988Y210335D02*
X334579D01*
X334283Y210039D02*
Y210630D01*
X287720Y227610D02*
X288311D01*
X288016Y227315D02*
Y227906D01*
X268508Y240756D02*
X269098D01*
X268803Y240461D02*
Y241051D01*
X295139Y211186D02*
X295729D01*
X295434Y210890D02*
Y211481D01*
X365528Y184924D02*
X366118D01*
X365823Y184629D02*
Y185220D01*
X337961Y204012D02*
X338551D01*
X338256Y203716D02*
Y204307D01*
X340488Y204075D02*
X341079D01*
X340783Y203780D02*
Y204370D01*
X333689Y203772D02*
X334279D01*
X333984Y203476D02*
Y204067D01*
X338744Y186343D02*
X339335D01*
X339039Y186047D02*
Y186638D01*
X358583Y184689D02*
X359173D01*
X358878Y184394D02*
Y184984D01*
X358647Y188613D02*
X359237D01*
X358942Y188318D02*
Y188908D01*
X328496Y189299D02*
X329087D01*
X328791Y189004D02*
Y189594D01*
X328496Y191858D02*
X329087D01*
X328791Y191563D02*
Y192154D01*
X338732Y189299D02*
X339323D01*
X339028Y189004D02*
Y189594D01*
X336173Y189299D02*
X336764D01*
X336469Y189004D02*
Y189594D01*
X333614Y191858D02*
X334205D01*
X333910Y191563D02*
Y192154D01*
X421539Y187669D02*
X422130D01*
X421835Y187374D02*
Y187965D01*
X371205Y189244D02*
X371795D01*
X371500Y188949D02*
Y189539D01*
X341102Y184673D02*
X341693D01*
X341398Y184378D02*
Y184969D01*
X347248Y183098D02*
X347839D01*
X347543Y182803D02*
Y183394D01*
X331055Y186740D02*
X331646D01*
X331350Y186445D02*
Y187036D01*
X370563Y222197D02*
X371153D01*
X370858Y221902D02*
Y222492D01*
X372803Y227051D02*
X373394D01*
X373098Y226756D02*
Y227346D01*
X915067Y231756D02*
X915658D01*
X915362Y231461D02*
Y232051D01*
X902386Y223642D02*
X902976D01*
X902681Y223346D02*
Y223937D01*
X363673Y194280D02*
X364264D01*
X363968Y193984D02*
Y194575D01*
X-131020Y233221D02*
X-130429D01*
X-130724Y232925D02*
Y233516D01*
X-144427Y233137D02*
X-143836D01*
X-144132Y232842D02*
Y233432D01*
X377299Y194961D02*
X377890D01*
X377594Y194665D02*
Y195256D01*
X892374Y217965D02*
X892965D01*
X892669Y217669D02*
Y218260D01*
X907756Y230204D02*
X908347D01*
X908051Y229908D02*
Y230499D01*
X-140287Y239736D02*
X-139697D01*
X-139992Y239441D02*
Y240032D01*
X346410Y196976D02*
X347000D01*
X346705Y196681D02*
Y197272D01*
X1040106Y248118D02*
X1040697D01*
X1040402Y247823D02*
Y248413D01*
X421946Y207077D02*
X422536D01*
X422241Y206781D02*
Y207372D01*
X421946Y200784D02*
X422536D01*
X422241Y200489D02*
Y201079D01*
X402461Y189043D02*
X403051D01*
X402756Y188748D02*
Y189339D01*
X379146Y196968D02*
X379736D01*
X379441Y196673D02*
Y197264D01*
X424087Y235122D02*
X424677D01*
X424382Y234827D02*
Y235417D01*
X363913Y201819D02*
X364504D01*
X364209Y201524D02*
Y202114D01*
X341291Y191858D02*
X341882D01*
X341587Y191563D02*
Y192154D01*
X912205Y239037D02*
X912795D01*
X912500Y238742D02*
Y239332D01*
X1092953Y250134D02*
X1093543D01*
X1093248Y249839D02*
Y250429D01*
X499508Y221874D02*
X500098D01*
X499803Y221579D02*
Y222169D01*
X342974Y207028D02*
X343565D01*
X343270Y206732D02*
Y207323D01*
X351528Y194417D02*
X352118D01*
X351823Y194122D02*
Y194713D01*
X343370Y204075D02*
X343961D01*
X343665Y203780D02*
Y204370D01*
X-137437Y224087D02*
X-136846D01*
X-137142Y223791D02*
Y224382D01*
X-135531Y218122D02*
X-134941D01*
X-135236Y217827D02*
Y218417D01*
X358854Y199146D02*
X359445D01*
X359150Y198850D02*
Y199441D01*
X363134Y199547D02*
X363724D01*
X363429Y199252D02*
Y199843D01*
X348654Y204075D02*
X349244D01*
X348949Y203780D02*
Y204370D01*
X343850Y191858D02*
X344441D01*
X344146Y191563D02*
Y192154D01*
X919779Y247957D02*
X920370D01*
X920075Y247661D02*
Y248252D01*
X345693Y214850D02*
X346284D01*
X345988Y214555D02*
Y215146D01*
X410244Y211776D02*
X410835D01*
X410539Y211480D02*
Y212071D01*
X358559Y193141D02*
X359150D01*
X358854Y192845D02*
Y193436D01*
X336173Y196976D02*
X336764D01*
X336469Y196681D02*
Y197272D01*
X384925Y220370D02*
X385516D01*
X385221Y220075D02*
Y220665D01*
X406492Y214835D02*
X407083D01*
X406787Y214539D02*
Y215130D01*
X416094Y244028D02*
X416685D01*
X416390Y243732D02*
Y244323D01*
X-227543Y225185D02*
X-226953D01*
X-227248Y224890D02*
Y225480D01*
X346410Y191858D02*
X347000D01*
X346705Y191563D02*
Y192154D01*
X-140307Y242047D02*
X-139716D01*
X-140012Y241752D02*
Y242342D01*
X338732Y191858D02*
X339323D01*
X339028Y191563D02*
Y192154D01*
X-133000Y240374D02*
X-132409D01*
X-132705Y240079D02*
Y240669D01*
X1076504Y246331D02*
X1077094D01*
X1076799Y246035D02*
Y246626D01*
X922492Y236437D02*
X923083D01*
X922787Y236142D02*
Y236732D01*
X1027807Y247516D02*
X1028398D01*
X1028102Y247220D02*
Y247811D01*
X925392Y244288D02*
X925982D01*
X925687Y243993D02*
Y244583D01*
X1045630Y240583D02*
X1046220D01*
X1045925Y240287D02*
Y240878D01*
X906764Y250925D02*
X907354D01*
X907059Y250630D02*
Y251220D01*
X445004Y208780D02*
X445595D01*
X445299Y208484D02*
Y209075D01*
X461721Y226811D02*
X462311D01*
X462016Y226516D02*
Y227106D01*
X395567Y193693D02*
X396158D01*
X395862Y193398D02*
Y193988D01*
X418913Y198110D02*
X419504D01*
X419209Y197815D02*
Y198406D01*
X382016Y251606D02*
X382606D01*
X382311Y251311D02*
Y251902D01*
X405063Y249791D02*
X405653D01*
X405358Y249496D02*
Y250087D01*
M02*
