G04*
G04 #@! TF.GenerationSoftware,Altium Limited,Altium Designer,25.8.1 (18)*
G04*
G04 Layer_Color=8421504*
%FSLAX25Y25*%
%MOIN*%
G70*
G04*
G04 #@! TF.SameCoordinates,0636D6F4-90F1-4F74-A5AB-28ACEA2C2FB7*
G04*
G04*
G04 #@! TF.FilePolarity,Positive*
G04*
G01*
G75*
%ADD16R,0.04168X0.03985*%
%ADD17R,0.03504X0.03661*%
%ADD18R,0.02362X0.02362*%
%ADD19R,0.01575X0.01575*%
%ADD20R,0.04724X0.03543*%
%ADD21R,0.01968X0.00984*%
G04:AMPARAMS|DCode=22|XSize=52.69mil|YSize=22.75mil|CornerRadius=11.38mil|HoleSize=0mil|Usage=FLASHONLY|Rotation=180.000|XOffset=0mil|YOffset=0mil|HoleType=Round|Shape=RoundedRectangle|*
%AMROUNDEDRECTD22*
21,1,0.05269,0.00000,0,0,180.0*
21,1,0.02993,0.02275,0,0,180.0*
1,1,0.02275,-0.01497,0.00000*
1,1,0.02275,0.01497,0.00000*
1,1,0.02275,0.01497,0.00000*
1,1,0.02275,-0.01497,0.00000*
%
%ADD22ROUNDEDRECTD22*%
%ADD23R,0.02047X0.02047*%
%ADD24R,0.04724X0.05512*%
%ADD25R,0.02913X0.03071*%
G04:AMPARAMS|DCode=26|XSize=21.65mil|YSize=19.68mil|CornerRadius=2.46mil|HoleSize=0mil|Usage=FLASHONLY|Rotation=90.000|XOffset=0mil|YOffset=0mil|HoleType=Round|Shape=RoundedRectangle|*
%AMROUNDEDRECTD26*
21,1,0.02165,0.01476,0,0,90.0*
21,1,0.01673,0.01968,0,0,90.0*
1,1,0.00492,0.00738,0.00837*
1,1,0.00492,0.00738,-0.00837*
1,1,0.00492,-0.00738,-0.00837*
1,1,0.00492,-0.00738,0.00837*
%
%ADD26ROUNDEDRECTD26*%
%ADD27R,0.05269X0.02275*%
%ADD28R,0.04331X0.05709*%
%ADD29R,0.15748X0.05709*%
%ADD30R,0.02047X0.02047*%
%ADD31R,0.03937X0.03937*%
%ADD32R,0.01870X0.00984*%
%ADD33R,0.00984X0.01870*%
%ADD34R,0.09449X0.02992*%
G04:AMPARAMS|DCode=35|XSize=57.87mil|YSize=11.02mil|CornerRadius=1.38mil|HoleSize=0mil|Usage=FLASHONLY|Rotation=0.000|XOffset=0mil|YOffset=0mil|HoleType=Round|Shape=RoundedRectangle|*
%AMROUNDEDRECTD35*
21,1,0.05787,0.00827,0,0,0.0*
21,1,0.05512,0.01102,0,0,0.0*
1,1,0.00276,0.02756,-0.00413*
1,1,0.00276,-0.02756,-0.00413*
1,1,0.00276,-0.02756,0.00413*
1,1,0.00276,0.02756,0.00413*
%
%ADD35ROUNDEDRECTD35*%
%ADD36R,0.03071X0.02913*%
%ADD37R,0.03150X0.06693*%
%ADD38R,0.07087X0.07480*%
%ADD39R,0.01575X0.05512*%
%ADD40R,0.04331X0.05118*%
%ADD41R,0.09055X0.07480*%
%ADD42R,0.03400X0.04300*%
G36*
X915327Y247291D02*
X911965D01*
Y253063D01*
X915327D01*
Y247291D01*
D02*
G37*
G36*
X-144819Y238972D02*
X-148181D01*
Y244744D01*
X-144819D01*
Y238972D01*
D02*
G37*
G36*
X504608Y254468D02*
X508917Y250159D01*
X508720Y247106D01*
X500335Y238720D01*
X494744D01*
Y247854D01*
X501555Y254665D01*
X504608Y254468D01*
D02*
G37*
G36*
X469153Y247854D02*
Y238720D01*
X463563D01*
X455177Y247106D01*
Y254665D01*
X462343D01*
X469153Y247854D01*
D02*
G37*
G36*
X987108Y253413D02*
X991417Y249104D01*
X991220Y246051D01*
X982835Y237665D01*
X977244D01*
Y246799D01*
X984055Y253610D01*
X987108Y253413D01*
D02*
G37*
G36*
X951653Y246799D02*
Y237665D01*
X946063D01*
X937677Y246051D01*
Y253610D01*
X944843D01*
X951653Y246799D01*
D02*
G37*
G36*
X-163495Y249165D02*
X-159185Y244856D01*
X-159382Y241803D01*
X-167768Y233417D01*
X-173358D01*
Y242551D01*
X-166547Y249362D01*
X-163495Y249165D01*
D02*
G37*
G36*
X-198949Y242551D02*
Y233417D01*
X-204539D01*
X-212925Y241803D01*
Y249362D01*
X-205760D01*
X-198949Y242551D01*
D02*
G37*
G36*
X384508Y230358D02*
X384390D01*
X383682Y231067D01*
Y231933D01*
X384508D01*
Y230358D01*
D02*
G37*
G36*
X381949Y231067D02*
X381241Y230358D01*
X381122D01*
Y231933D01*
X381949D01*
Y231067D01*
D02*
G37*
G36*
X384068Y229374D02*
X382815Y228121D01*
X381563Y229374D01*
X382815Y230627D01*
X384068Y229374D01*
D02*
G37*
G36*
X384508Y226815D02*
X383682D01*
Y227681D01*
X384390Y228390D01*
X384508D01*
Y226815D01*
D02*
G37*
G36*
X381949Y227681D02*
Y226815D01*
X381122D01*
Y228390D01*
X381241D01*
X381949Y227681D01*
D02*
G37*
G36*
X-143894Y221890D02*
X-147256D01*
Y227662D01*
X-143894D01*
Y221890D01*
D02*
G37*
G36*
X913472Y221390D02*
X910110D01*
Y227161D01*
X913472D01*
Y221390D01*
D02*
G37*
G36*
X508720Y208681D02*
Y201122D01*
X501555D01*
X494744Y207933D01*
Y217067D01*
X500335D01*
X508720Y208681D01*
D02*
G37*
G36*
X469153Y207933D02*
X462343Y201122D01*
X455177D01*
Y208681D01*
X463563Y217067D01*
X469153D01*
Y207933D01*
D02*
G37*
G36*
X991220Y207626D02*
Y200067D01*
X984055D01*
X977244Y206878D01*
Y216012D01*
X982835D01*
X991220Y207626D01*
D02*
G37*
G36*
X951653Y206878D02*
X944843Y200067D01*
X937677D01*
Y207626D01*
X946063Y216012D01*
X951653D01*
Y206878D01*
D02*
G37*
G36*
X-159382Y203378D02*
Y195819D01*
X-166547D01*
X-173358Y202630D01*
Y211764D01*
X-167768D01*
X-159382Y203378D01*
D02*
G37*
G36*
X-198949Y202630D02*
X-205760Y195819D01*
X-212925D01*
Y203378D01*
X-204539Y211764D01*
X-198949D01*
Y202630D01*
D02*
G37*
D16*
X415428Y215766D02*
D03*
X422331D02*
D03*
X308502Y179602D02*
D03*
X315406D02*
D03*
X429204Y207136D02*
D03*
X422301D02*
D03*
X401835Y230047D02*
D03*
X394931D02*
D03*
D17*
X-300488Y248541D02*
D03*
X-306898D02*
D03*
X398264Y222197D02*
D03*
X391855D02*
D03*
X399457Y216067D02*
D03*
X432677Y199795D02*
D03*
X426267D02*
D03*
X425323Y223106D02*
D03*
X418913D02*
D03*
X425366Y230055D02*
D03*
X418957D02*
D03*
X1074240Y252366D02*
D03*
X1080650D02*
D03*
X393048Y216067D02*
D03*
D18*
X354776Y199142D02*
D03*
X328398D02*
D03*
X354776Y172764D02*
D03*
X328398D02*
D03*
D19*
X354382Y194417D02*
D03*
X351823D02*
D03*
Y196976D02*
D03*
Y199535D02*
D03*
Y191858D02*
D03*
X349264Y196976D02*
D03*
Y194417D02*
D03*
Y199535D02*
D03*
X346705D02*
D03*
Y196976D02*
D03*
Y194417D02*
D03*
X344146Y196976D02*
D03*
Y199535D02*
D03*
Y194417D02*
D03*
X341587Y199535D02*
D03*
Y196976D02*
D03*
Y194417D02*
D03*
X339028Y196976D02*
D03*
Y199535D02*
D03*
Y194417D02*
D03*
X336469Y199535D02*
D03*
Y196976D02*
D03*
Y194417D02*
D03*
X333910Y196976D02*
D03*
Y194417D02*
D03*
Y199535D02*
D03*
X331350Y196976D02*
D03*
Y199535D02*
D03*
Y194417D02*
D03*
X328791D02*
D03*
X354382Y191858D02*
D03*
Y189299D02*
D03*
Y176504D02*
D03*
Y186740D02*
D03*
Y181622D02*
D03*
X351823Y186740D02*
D03*
Y189299D02*
D03*
X349264Y186740D02*
D03*
Y189299D02*
D03*
Y172370D02*
D03*
Y191858D02*
D03*
X346705Y189299D02*
D03*
Y186740D02*
D03*
Y191858D02*
D03*
X344146Y189299D02*
D03*
Y191858D02*
D03*
X341587D02*
D03*
X339028D02*
D03*
X336469D02*
D03*
X333910D02*
D03*
X331350D02*
D03*
X328791D02*
D03*
X341587Y189299D02*
D03*
X339028D02*
D03*
X328791D02*
D03*
X336469D02*
D03*
X333910D02*
D03*
X331350D02*
D03*
X344146Y186740D02*
D03*
X341587D02*
D03*
X339028D02*
D03*
X331350D02*
D03*
X328791D02*
D03*
X336469D02*
D03*
X333910D02*
D03*
X328791Y181622D02*
D03*
Y176504D02*
D03*
X339028Y172370D02*
D03*
X333910D02*
D03*
X344146D02*
D03*
D20*
X411941Y203063D02*
D03*
X400918D02*
D03*
X411941Y197354D02*
D03*
X400918D02*
D03*
D21*
X909905Y253130D02*
D03*
X915532Y221323D02*
D03*
X-150240Y244811D02*
D03*
X-149315Y227728D02*
D03*
X-150240Y240874D02*
D03*
Y242842D02*
D03*
X917386Y253130D02*
D03*
X908051Y221323D02*
D03*
X-142760Y244811D02*
D03*
X-141835Y227728D02*
D03*
X909905Y247224D02*
D03*
X915532Y227228D02*
D03*
X-150240Y238905D02*
D03*
X-149315Y221823D02*
D03*
X908051Y227228D02*
D03*
X-142760Y238905D02*
D03*
X917386Y249193D02*
D03*
X-141835Y223791D02*
D03*
X917386Y247224D02*
D03*
X908051Y225260D02*
D03*
X-142760Y240874D02*
D03*
X-141835Y221823D02*
D03*
X915532Y223291D02*
D03*
Y225260D02*
D03*
X909905Y249193D02*
D03*
Y251161D02*
D03*
X-142760Y242842D02*
D03*
X917386Y251161D02*
D03*
X908051Y223291D02*
D03*
X-149315Y225760D02*
D03*
Y223791D02*
D03*
X-141835Y225760D02*
D03*
D22*
X378729Y245031D02*
D03*
X369940D02*
D03*
Y237551D02*
D03*
X378729Y241291D02*
D03*
D23*
X913394Y241720D02*
D03*
X998213Y219382D02*
D03*
X-125551Y229240D02*
D03*
X-125673Y221705D02*
D03*
X1001382Y223768D02*
D03*
X-125921Y243571D02*
D03*
X-125429Y236035D02*
D03*
X367451Y212456D02*
D03*
X364203Y216948D02*
D03*
X910244Y241720D02*
D03*
X1001362Y219382D02*
D03*
X998232Y223768D02*
D03*
X367353Y216948D02*
D03*
X364302Y212456D02*
D03*
X-129071Y243571D02*
D03*
X-128579Y236035D02*
D03*
X-128701Y229240D02*
D03*
X-128823Y221705D02*
D03*
D24*
X341866Y233402D02*
D03*
X332024Y216079D02*
D03*
X351709D02*
D03*
D25*
X319992Y237264D02*
D03*
Y233405D02*
D03*
D26*
X365461Y227075D02*
D03*
X361917D02*
D03*
X361880Y232018D02*
D03*
X365423D02*
D03*
D27*
X378729Y237551D02*
D03*
D28*
X399650Y254174D02*
D03*
X392563D02*
D03*
D29*
X-240106Y247091D02*
D03*
Y237445D02*
D03*
X1028217Y213347D02*
D03*
X-239764Y224756D02*
D03*
X1028217Y222992D02*
D03*
X-239764Y215110D02*
D03*
X1027409Y243067D02*
D03*
Y252713D02*
D03*
X1028028Y194906D02*
D03*
Y185260D02*
D03*
X-239673Y195020D02*
D03*
Y185374D02*
D03*
D30*
X911697Y234795D02*
D03*
Y231646D02*
D03*
D31*
X438198Y254094D02*
D03*
X438374Y246457D02*
D03*
X431899Y254094D02*
D03*
X432075Y246457D02*
D03*
D32*
X420817Y247435D02*
D03*
X411663Y253341D02*
D03*
X420817D02*
D03*
Y249404D02*
D03*
Y251372D02*
D03*
X411663Y247435D02*
D03*
Y249404D02*
D03*
Y251372D02*
D03*
D33*
X414272Y246795D02*
D03*
X418209D02*
D03*
X416240D02*
D03*
Y253980D02*
D03*
X414272D02*
D03*
X418209D02*
D03*
D34*
X535520Y222500D02*
D03*
Y242500D02*
D03*
Y232500D02*
D03*
Y227500D02*
D03*
X520165Y242500D02*
D03*
Y227500D02*
D03*
Y222500D02*
D03*
Y232500D02*
D03*
Y237500D02*
D03*
X535520D02*
D03*
D35*
X389059Y199500D02*
D03*
Y195563D02*
D03*
X372130Y197531D02*
D03*
Y191626D02*
D03*
Y195563D02*
D03*
Y193594D02*
D03*
X389059Y197531D02*
D03*
Y193594D02*
D03*
Y191626D02*
D03*
X372130Y199500D02*
D03*
D36*
X366368Y222161D02*
D03*
X362510D02*
D03*
X362502Y207724D02*
D03*
X366361D02*
D03*
D37*
X386429Y179520D02*
D03*
X373043D02*
D03*
D38*
X346271Y257406D02*
D03*
X337216D02*
D03*
D39*
X336626Y246185D02*
D03*
X339185D02*
D03*
X341744D02*
D03*
X344303D02*
D03*
X346862D02*
D03*
D40*
X1097382Y252102D02*
D03*
X-298650Y255327D02*
D03*
X1089114Y252102D02*
D03*
X-306917Y255327D02*
D03*
D41*
X326980Y257406D02*
D03*
X356508D02*
D03*
D42*
X370728Y254106D02*
D03*
X378028D02*
D03*
M02*
