G04*
G04 #@! TF.GenerationSoftware,Altium Limited,Altium Designer,25.8.1 (18)*
G04*
G04 Layer_Color=32768*
%FSLAX25Y25*%
%MOIN*%
G70*
G04*
G04 #@! TF.SameCoordinates,0636D6F4-90F1-4F74-A5AB-28ACEA2C2FB7*
G04*
G04*
G04 #@! TF.FilePolarity,Positive*
G04*
G01*
G75*
%ADD12C,0.00787*%
%ADD13C,0.00051*%
%ADD85C,0.00197*%
G36*
X379328Y257256D02*
X380728D01*
Y250956D01*
X379328D01*
Y250556D01*
X369428D01*
Y250956D01*
X368028D01*
Y257256D01*
X369428D01*
Y257656D01*
X379328D01*
Y257256D01*
D02*
G37*
D12*
X319458Y175642D02*
Y183563D01*
X304450D02*
X319458D01*
X304450Y175642D02*
Y183563D01*
Y175642D02*
X319458D01*
D13*
X411375Y219727D02*
X426383D01*
Y211805D02*
Y219727D01*
X411375Y211805D02*
X426383D01*
X411375D02*
Y219727D01*
X341587Y180047D02*
Y183984D01*
X339618Y182016D02*
X343555D01*
X398162Y193909D02*
Y206508D01*
Y193909D02*
X414697D01*
Y206508D01*
X398162D02*
X414697D01*
X-248964Y250929D02*
X-231248D01*
X-248964Y233606D02*
X-231248D01*
Y250929D01*
X-248964Y233606D02*
Y250929D01*
X-240106Y240299D02*
Y244236D01*
X-242075Y242268D02*
X-238138D01*
X1018551Y239228D02*
X1036268D01*
X1018551Y256551D02*
X1036268D01*
X1018551Y239228D02*
Y256551D01*
X1036268Y239228D02*
Y256551D01*
X1027409Y245921D02*
Y249858D01*
X1025441Y247890D02*
X1029378D01*
X453996Y255847D02*
X509902D01*
Y199941D02*
Y255847D01*
X453996Y199941D02*
X509902D01*
X453996D02*
Y255847D01*
X322059Y268626D02*
X361429D01*
X322059Y243036D02*
Y268626D01*
Y243036D02*
X361429D01*
Y268626D01*
X341744Y249827D02*
Y253764D01*
X339775Y251795D02*
X343712D01*
X380728Y250956D02*
Y257256D01*
X379328Y250956D02*
X380728D01*
X368028D02*
X369428D01*
X368028D02*
Y257256D01*
X369428D01*
X379328D02*
X380728D01*
X379328D02*
Y257656D01*
Y250556D02*
Y250956D01*
X369428Y250556D02*
X379328D01*
X369428D02*
Y250956D01*
Y257256D02*
Y257656D01*
X379328D01*
X936496Y254791D02*
X992402D01*
Y198886D02*
Y254791D01*
X936496Y198886D02*
X992402D01*
X936496D02*
Y254791D01*
X317630Y231004D02*
X322355D01*
X317630Y239665D02*
X322355D01*
X317630Y231004D02*
Y239665D01*
X322355Y231004D02*
Y239665D01*
X319992Y234154D02*
Y236516D01*
X318811Y235335D02*
X321173D01*
X324150Y236551D02*
X359583D01*
Y212929D02*
Y236551D01*
X324150Y212929D02*
X359583D01*
X324150D02*
Y236551D01*
X392937Y188673D02*
Y202453D01*
X368252Y188673D02*
Y202453D01*
Y188673D02*
X392937D01*
X368252Y202453D02*
X392937D01*
X409350Y244482D02*
Y256293D01*
Y244482D02*
X423130D01*
Y256293D01*
X409350D02*
X423130D01*
X371075Y185228D02*
X388398D01*
Y173811D02*
Y185228D01*
X371075Y173811D02*
X388398D01*
X371075D02*
Y185228D01*
X-214106Y250543D02*
X-158201D01*
Y194638D02*
Y250543D01*
X-214106Y194638D02*
X-158201D01*
X-214106D02*
Y250543D01*
X389413Y258111D02*
X402799D01*
X389413Y250237D02*
X402799D01*
X389413D02*
Y258111D01*
X402799Y250237D02*
Y258111D01*
X-241642Y190197D02*
X-237705D01*
X-239673Y188228D02*
Y192165D01*
X-230815Y181535D02*
Y198858D01*
X-248531Y181535D02*
Y198858D01*
X-230815D01*
X-248531Y181535D02*
X-230815D01*
X-241732Y219933D02*
X-237795D01*
X-239764Y217965D02*
Y221902D01*
X-230906Y211272D02*
Y228595D01*
X-248622Y211272D02*
Y228595D01*
X-230906D01*
X-248622Y211272D02*
X-230906D01*
X1086161Y248658D02*
Y255547D01*
Y248658D02*
X1100335D01*
Y255547D01*
X1086161D02*
X1100335D01*
X-130398Y220130D02*
Y223279D01*
X-124098Y220130D02*
Y223279D01*
X-130398D02*
X-124098D01*
X-130398Y220130D02*
X-124098D01*
X-128429Y221705D02*
X-126067D01*
X-127248Y220524D02*
Y222886D01*
X-309870Y251882D02*
Y258772D01*
Y251882D02*
X-295697D01*
Y258772D01*
X-309870D02*
X-295697D01*
X364431Y206543D02*
Y208905D01*
X363250Y207724D02*
X365612D01*
X360101Y205361D02*
X368762D01*
X360101Y210086D02*
X368762D01*
Y205361D02*
Y210086D01*
X360101Y205361D02*
Y210086D01*
X-130646Y241996D02*
Y245146D01*
X-124346Y241996D02*
Y245146D01*
X-130646D02*
X-124346D01*
X-130646Y241996D02*
X-124346D01*
X-128677Y243571D02*
X-126315D01*
X-127496Y242390D02*
Y244752D01*
X1002937Y217807D02*
Y220957D01*
X996638Y217807D02*
Y220957D01*
Y217807D02*
X1002937D01*
X996638Y220957D02*
X1002937D01*
X998606Y219382D02*
X1000969D01*
X999787Y218201D02*
Y220563D01*
X910122Y230071D02*
X913272D01*
X910122Y236370D02*
X913272D01*
X910122Y230071D02*
Y236370D01*
X913272Y230071D02*
Y236370D01*
X911697Y232039D02*
Y234402D01*
X910516Y233220D02*
X912878D01*
X363689Y225992D02*
Y228158D01*
X362606Y227075D02*
X364772D01*
X360146Y225303D02*
Y228847D01*
X367232Y225303D02*
Y228847D01*
X360146D02*
X367232D01*
X360146Y225303D02*
X367232D01*
X379862Y225791D02*
Y232957D01*
X385768D01*
Y225791D02*
Y232957D01*
X379862Y225791D02*
X385768D01*
X1026059Y190083D02*
X1029996D01*
X1028028Y188114D02*
Y192051D01*
X1036886Y181421D02*
Y198744D01*
X1019169Y181421D02*
Y198744D01*
X1036886D01*
X1019169Y181421D02*
X1036886D01*
X382348Y234598D02*
Y247984D01*
X366321D02*
X382348D01*
X366321Y234598D02*
Y247984D01*
Y234598D02*
X382348D01*
X364439Y220980D02*
Y223342D01*
X363258Y222161D02*
X365620D01*
X360108Y219799D02*
X368770D01*
X360108Y224524D02*
X368770D01*
Y219799D02*
Y224524D01*
X360108Y219799D02*
Y224524D01*
X304246Y240441D02*
Y244378D01*
X302277Y242409D02*
X306214D01*
X292238Y257763D02*
X316254D01*
Y227055D02*
Y257763D01*
X292238Y227055D02*
X316254D01*
X292238D02*
Y257763D01*
X368928Y215373D02*
Y218523D01*
X362628Y215373D02*
Y218523D01*
Y215373D02*
X368928D01*
X362628Y218523D02*
X368928D01*
X364597Y216948D02*
X366959D01*
X365778Y215767D02*
Y218129D01*
X-130276Y227665D02*
Y230815D01*
X-123976Y227665D02*
Y230815D01*
X-130276D02*
X-123976D01*
X-130276Y227665D02*
X-123976D01*
X-128307Y229240D02*
X-125945D01*
X-127126Y228059D02*
Y230421D01*
X1026248Y218169D02*
X1030185D01*
X1028217Y216201D02*
Y220138D01*
X1019358Y209508D02*
Y226831D01*
X1037075Y209508D02*
Y226831D01*
X1019358Y209508D02*
X1037075D01*
X1019358Y226831D02*
X1037075D01*
X-130154Y234461D02*
Y237610D01*
X-123854Y234461D02*
Y237610D01*
X-130154D02*
X-123854D01*
X-130154Y234461D02*
X-123854D01*
X-128185Y236035D02*
X-125823D01*
X-127004Y234854D02*
Y237217D01*
X418248Y203175D02*
Y211097D01*
Y203175D02*
X433256D01*
Y211097D01*
X418248D02*
X433256D01*
X429537Y251732D02*
Y256457D01*
Y251732D02*
X440560D01*
Y256457D01*
X429537D02*
X440560D01*
X429713Y244094D02*
Y248819D01*
Y244094D02*
X440736D01*
Y248819D01*
X429713D02*
X440736D01*
X363652Y230936D02*
Y233101D01*
X362569Y232018D02*
X364734D01*
X367195Y230247D02*
Y233790D01*
X360108Y230247D02*
Y233790D01*
Y230247D02*
X367195D01*
X360108Y233790D02*
X367195D01*
X996657Y222193D02*
Y225342D01*
X1002957Y222193D02*
Y225342D01*
X996657D02*
X1002957D01*
X996657Y222193D02*
X1002957D01*
X998626Y223768D02*
X1000988D01*
X999807Y222586D02*
Y224949D01*
X908669Y240146D02*
Y243295D01*
X914968Y240146D02*
Y243295D01*
X908669D02*
X914968D01*
X908669Y240146D02*
X914968D01*
X910638Y241720D02*
X913000D01*
X911819Y240539D02*
Y242902D01*
X390879Y226086D02*
Y234008D01*
Y226086D02*
X405887D01*
Y234008D01*
X390879D02*
X405887D01*
X362727Y210881D02*
Y214031D01*
X369026Y210881D02*
Y214031D01*
X362727D02*
X369026D01*
X362727Y210881D02*
X369026D01*
X364695Y212456D02*
X367058D01*
X365876Y211275D02*
Y213637D01*
D85*
X-297756Y245726D02*
Y251356D01*
X-309630Y245726D02*
Y251356D01*
X-297756D01*
X-309630Y245726D02*
X-297756D01*
X400996Y219382D02*
Y225012D01*
X389122Y219382D02*
Y225012D01*
X400996D01*
X389122Y219382D02*
X400996D01*
X435409Y196980D02*
Y202610D01*
X423535Y196980D02*
Y202610D01*
X435409D01*
X423535Y196980D02*
X435409D01*
X428055Y220291D02*
Y225921D01*
X416181Y220291D02*
Y225921D01*
X428055D01*
X416181Y220291D02*
X428055D01*
X428098Y227240D02*
Y232870D01*
X416224Y227240D02*
Y232870D01*
X428098D01*
X416224Y227240D02*
X428098D01*
X1071508Y249551D02*
Y255181D01*
X1083382Y249551D02*
Y255181D01*
X1071508Y249551D02*
X1083382D01*
X1071508Y255181D02*
X1083382D01*
X402189Y213252D02*
Y218882D01*
X390316Y213252D02*
Y218882D01*
X402189D01*
X390316Y213252D02*
X402189D01*
M02*
