G04*
G04 #@! TF.GenerationSoftware,Altium Limited,Altium Designer,25.8.1 (18)*
G04*
G04 Layer_Color=16711935*
%FSLAX25Y25*%
%MOIN*%
G70*
G04*
G04 #@! TF.SameCoordinates,0636D6F4-90F1-4F74-A5AB-28ACEA2C2FB7*
G04*
G04*
G04 #@! TF.FilePolarity,Negative*
G04*
G01*
G75*
%ADD62C,0.05124*%
%ADD63R,0.05124X0.05124*%
%ADD64C,0.03543*%
%ADD65C,0.02953*%
%ADD66C,0.02568*%
%ADD67C,0.02172*%
D62*
X308183Y252055D02*
D03*
D63*
X300309D02*
D03*
D64*
X328480Y224740D02*
D03*
X355252D02*
D03*
D65*
X379736Y179520D02*
D03*
D66*
X-146500Y240283D02*
D03*
Y243433D02*
D03*
X913646Y248602D02*
D03*
Y251752D02*
D03*
X911792Y225850D02*
D03*
Y222701D02*
D03*
X-145575Y223201D02*
D03*
Y226350D02*
D03*
D67*
X912240Y244161D02*
D03*
X915142Y244284D02*
D03*
X417756Y250811D02*
D03*
X414272Y249618D02*
D03*
X313791Y228646D02*
D03*
X311905Y237264D02*
D03*
X388425Y245386D02*
D03*
X450236Y245634D02*
D03*
X381563Y233587D02*
D03*
X389244Y229909D02*
D03*
X353870Y234283D02*
D03*
X333059Y234216D02*
D03*
X323721Y233421D02*
D03*
X415428Y215766D02*
D03*
X428106Y213894D02*
D03*
X415795Y208858D02*
D03*
X414614Y230516D02*
D03*
X430318Y230055D02*
D03*
X418661Y226157D02*
D03*
X422162Y229519D02*
D03*
X428429Y222406D02*
D03*
X-118681Y247787D02*
D03*
X-131772Y247165D02*
D03*
X-138512Y245937D02*
D03*
X324177Y205244D02*
D03*
X327720Y206992D02*
D03*
X373055Y171787D02*
D03*
X393358Y175329D02*
D03*
X320685Y191831D02*
D03*
X333910Y194417D02*
D03*
X391519Y181972D02*
D03*
X382461Y186882D02*
D03*
X328803Y203689D02*
D03*
X395933Y201658D02*
D03*
X406216Y203630D02*
D03*
X898008Y245831D02*
D03*
X927800Y242640D02*
D03*
X376377Y244498D02*
D03*
X369366Y227047D02*
D03*
X-151939Y228504D02*
D03*
X-126303Y225197D02*
D03*
X413346Y189709D02*
D03*
X315339Y167358D02*
D03*
X512347Y222268D02*
D03*
X509205Y226335D02*
D03*
X368791Y179937D02*
D03*
X334303Y186346D02*
D03*
X312421Y196957D02*
D03*
X346264Y207232D02*
D03*
X334283Y210335D02*
D03*
X288016Y227610D02*
D03*
X268803Y240756D02*
D03*
X295434Y211186D02*
D03*
X365823Y184924D02*
D03*
X338256Y204012D02*
D03*
X340783Y204075D02*
D03*
X333984Y203772D02*
D03*
X339039Y186343D02*
D03*
X358878Y184689D02*
D03*
X358942Y188613D02*
D03*
X328791Y189299D02*
D03*
Y191858D02*
D03*
X339028Y189299D02*
D03*
X336469D02*
D03*
X333910Y191858D02*
D03*
X421835Y187669D02*
D03*
X371500Y189244D02*
D03*
X341398Y184673D02*
D03*
X347543Y183098D02*
D03*
X331350Y186740D02*
D03*
X370858Y222197D02*
D03*
X373098Y227051D02*
D03*
X915362Y231756D02*
D03*
X902681Y223642D02*
D03*
X363968Y194280D02*
D03*
X-130724Y233221D02*
D03*
X-144132Y233137D02*
D03*
X377594Y194961D02*
D03*
X892669Y217965D02*
D03*
X908051Y230204D02*
D03*
X-139992Y239736D02*
D03*
X346705Y196976D02*
D03*
X1040402Y248118D02*
D03*
X422241Y207077D02*
D03*
Y200784D02*
D03*
X402756Y189043D02*
D03*
X379441Y196968D02*
D03*
X424382Y235122D02*
D03*
X364209Y201819D02*
D03*
X341587Y191858D02*
D03*
X912500Y239037D02*
D03*
X1093248Y250134D02*
D03*
X499803Y221874D02*
D03*
X343270Y207028D02*
D03*
X351823Y194417D02*
D03*
X343665Y204075D02*
D03*
X-137142Y224087D02*
D03*
X-135236Y218122D02*
D03*
X359150Y199146D02*
D03*
X363429Y199547D02*
D03*
X348949Y204075D02*
D03*
X344146Y191858D02*
D03*
X920075Y247957D02*
D03*
X345988Y214850D02*
D03*
X410539Y211776D02*
D03*
X358854Y193141D02*
D03*
X336469Y196976D02*
D03*
X385221Y220370D02*
D03*
X406787Y214835D02*
D03*
X416390Y244028D02*
D03*
X-227248Y225185D02*
D03*
X346705Y191858D02*
D03*
X-140012Y242047D02*
D03*
X339028Y191858D02*
D03*
X-132705Y240374D02*
D03*
X1076799Y246331D02*
D03*
X922787Y236437D02*
D03*
X1028102Y247516D02*
D03*
X925687Y244288D02*
D03*
X1045925Y240583D02*
D03*
X907059Y250925D02*
D03*
X445299Y208780D02*
D03*
X462016Y226811D02*
D03*
X395862Y193693D02*
D03*
X419209Y198110D02*
D03*
X382311Y251606D02*
D03*
X405358Y249791D02*
D03*
M02*
