M48
;Layer_Color=9474304
;FILE_FORMAT=2:5
INCH,TZ
;TYPE=PLATED
T01F00S00C0.00591
T02F00S00C0.00800
T03F00S00C0.02756
;TYPE=NON_PLATED
T04F00S00C0.02953
T05F00S00C0.03543
%
T01
X315339Y167358
X373055Y171787
X368791Y179937
X393358Y175329
X-227248Y225185
X-151939Y228504
X-144132Y233137
X-139992Y239736
X-140012Y242047
X-138512Y245937
X-131772Y247165
X-132705Y240374
X-130724Y233221
X-126303Y225197
X-137142Y224087
X-135236Y218122
X-118681Y247787
X268803Y240756
X288016Y227610
X295434Y211186
X312421Y196957
X320685Y191831
X328791Y191858
Y189299
X331350Y186740
X334303Y186346
X339039Y186343
X339028Y189299
X336469
X333910Y191858
Y194417
X336469Y196976
X339028Y191858
X341587
X344146
X346705
Y196976
X351823Y194417
X358854Y193141
X358942Y188613
X358878Y184689
X365823Y184924
X371500Y189244
X377594Y194961
X379441Y196968
X382461Y186882
X391519Y181972
X395862Y193693
X395933Y201658
X406216Y203630
X406787Y214835
X410539Y211776
X415795Y208858
X415428Y215766
X418661Y226157
X422162Y229519
X424382Y235122
X430318Y230055
X428429Y222406
X428106Y213894
X422241Y207077
Y200784
X419209Y198110
X421835Y187669
X413346Y189709
X402756Y189043
X363968Y194280
X363429Y199547
X364209Y201819
X359150Y199146
X348949Y204075
X343665
X340783
X338256Y204012
X333984Y203772
X328803Y203689
X327720Y206992
X324177Y205244
X334283Y210335
X343270Y207028
X346264Y207232
X345988Y214850
X353870Y234283
X333059Y234216
X323721Y233421
X313791Y228646
X311905Y237264
X369366Y227047
X373098Y227051
X370858Y222197
X385221Y220370
X389244Y229909
X381563Y233587
X376377Y244498
X388425Y245386
X382311Y251606
X405358Y249791
X414272Y249618
X417756Y250811
X416390Y244028
X414614Y230516
X450236Y245634
X445299Y208780
X347543Y183098
X341398Y184673
X462016Y226811
X499803Y221874
X512347Y222268
X509205Y226335
X892669Y217965
X902681Y223642
X908051Y230204
X915362Y231756
X912500Y239037
X912240Y244161
X915142Y244284
X920075Y247957
X907059Y250925
X898008Y245831
X925687Y244288
X927800Y242640
X922787Y236437
X1028102Y247516
X1040402Y248118
X1045925Y240583
X1076799Y246331
X1093248Y250134
T02
X-145575Y223201
Y226350
X-146500Y240283
Y243433
X913646Y248602
Y251752
X911792Y225850
Y222701
T03
X300309Y252055
X308183
T04
X379736Y179520
T05
X328480Y224740
X355252
M30
