G04*
G04 #@! TF.GenerationSoftware,Altium Limited,Altium Designer,25.8.1 (18)*
G04*
G04 Layer_Color=32768*
%FSLAX25Y25*%
%MOIN*%
G70*
G04*
G04 #@! TF.SameCoordinates,0636D6F4-90F1-4F74-A5AB-28ACEA2C2FB7*
G04*
G04*
G04 #@! TF.FilePolarity,Positive*
G04*
G01*
G75*
%ADD13C,0.00051*%
%ADD69C,0.00394*%
%ADD86C,0.00300*%
D13*
X520953Y244311D02*
X534732D01*
X520953Y220689D02*
X534732D01*
X518163Y241713D02*
X518984D01*
X518163Y243287D02*
X520953D01*
X518163Y236713D02*
X518984D01*
X518163Y238287D02*
X518984D01*
X518163Y231713D02*
X518984D01*
X518163Y233287D02*
X518984D01*
X518163Y226713D02*
X518984D01*
X518163Y228287D02*
X518984D01*
X518163Y221713D02*
X520953D01*
X518163Y223287D02*
X518984D01*
X534732Y243287D02*
X537522D01*
X536701Y241713D02*
X537522D01*
X536701Y238287D02*
X537522D01*
X536701Y236713D02*
X537522D01*
X536701Y223287D02*
X537522D01*
X534732Y221713D02*
X537522D01*
X536701Y228287D02*
X537522D01*
X536701Y226713D02*
X537522D01*
X536701Y233287D02*
X537522D01*
X536701Y231713D02*
X537522D01*
X520953Y220689D02*
Y244311D01*
X534732Y220689D02*
Y244311D01*
X518984Y222658D02*
X520953D01*
X518984Y242343D02*
X520953D01*
X536701Y237421D02*
Y242343D01*
X534732Y237421D02*
X536701D01*
X534732Y242343D02*
X536701D01*
X534732Y227579D02*
X536701D01*
X534732Y222658D02*
X536701D01*
Y227579D01*
X518984Y222658D02*
Y242343D01*
X536701Y227579D02*
Y237421D01*
X529555Y231673D02*
X531130D01*
Y233248D01*
X529555D02*
X531130D01*
X529555Y231673D02*
Y233248D01*
Y226673D02*
X531130D01*
Y228248D01*
X529555D02*
X531130D01*
X529555Y226673D02*
Y228248D01*
Y221673D02*
X531130D01*
Y223248D01*
X529555D02*
X531130D01*
X529555Y221673D02*
Y223248D01*
Y236673D02*
X531130D01*
Y238248D01*
X529555D02*
X531130D01*
X529555Y236673D02*
Y238248D01*
Y241673D02*
X531130D01*
Y243248D01*
X529555D02*
X531130D01*
X529555Y241673D02*
Y243248D01*
X524555Y223327D02*
X526130D01*
X524555Y221752D02*
Y223327D01*
Y221752D02*
X526130D01*
Y223327D01*
X524555Y228327D02*
X526130D01*
X524555Y226752D02*
Y228327D01*
Y226752D02*
X526130D01*
Y228327D01*
X524555Y233327D02*
X526130D01*
X524555Y231752D02*
Y233327D01*
Y231752D02*
X526130D01*
Y233327D01*
X524555Y238327D02*
X526130D01*
X524555Y236752D02*
Y238327D01*
Y236752D02*
X526130D01*
Y238327D01*
X524555Y243327D02*
X526130D01*
X524555Y241752D02*
Y243327D01*
Y241752D02*
X526130D01*
Y243327D01*
D69*
X302591Y223165D02*
G03*
X302591Y223165I-2756J0D01*
G01*
X301803D02*
G03*
X301803Y223165I-1969J0D01*
G01*
X311376Y223478D02*
G03*
X311376Y223478I-2756J0D01*
G01*
X310589D02*
G03*
X310589Y223478I-1969J0D01*
G01*
X518163Y243287D02*
G03*
X518163Y241713I0J-787D01*
G01*
Y238287D02*
G03*
X518163Y236713I0J-787D01*
G01*
Y233287D02*
G03*
X518163Y231713I0J-787D01*
G01*
Y228287D02*
G03*
X518163Y226713I0J-787D01*
G01*
Y223287D02*
G03*
X518163Y221713I0J-787D01*
G01*
X537522Y241713D02*
G03*
X537522Y243287I0J787D01*
G01*
Y236713D02*
G03*
X537522Y238287I0J787D01*
G01*
Y221713D02*
G03*
X537522Y223287I0J787D01*
G01*
Y226713D02*
G03*
X537522Y228287I0J787D01*
G01*
Y231713D02*
G03*
X537522Y233287I0J787D01*
G01*
D86*
X296935Y219765D02*
Y218765D01*
X297434Y218265D01*
X297934Y218765D01*
Y219765D01*
X298434D02*
Y218265D01*
X299184D01*
X299434Y218515D01*
Y218765D01*
X299184Y219015D01*
X298434D01*
X299184D01*
X299434Y219265D01*
Y219515D01*
X299184Y219765D01*
X298434D01*
X299934Y218265D02*
X300433D01*
X300184D01*
Y219265D01*
X299934D01*
X301183Y218265D02*
Y219265D01*
X301933D01*
X302183Y219015D01*
Y218265D01*
X302683Y218015D02*
X303682D01*
X304182Y218265D02*
Y219765D01*
X305182Y218265D01*
Y219765D01*
X305720Y220078D02*
Y219078D01*
X306220Y218578D01*
X306720Y219078D01*
Y220078D01*
X307220D02*
Y218578D01*
X307969D01*
X308219Y218828D01*
Y219078D01*
X307969Y219328D01*
X307220D01*
X307969D01*
X308219Y219578D01*
Y219828D01*
X307969Y220078D01*
X307220D01*
X308719Y218578D02*
X309219D01*
X308969D01*
Y219578D01*
X308719D01*
X309969Y218578D02*
Y219578D01*
X310718D01*
X310968Y219328D01*
Y218578D01*
X311468Y218328D02*
X312468D01*
X312968Y218578D02*
Y220078D01*
X313718D01*
X313967Y219828D01*
Y219328D01*
X313718Y219078D01*
X312968D01*
X528643Y230700D02*
X527143D01*
Y231450D01*
X527393Y231700D01*
X527893D01*
X528143Y231450D01*
Y230700D01*
X528643Y232200D02*
Y232699D01*
Y232449D01*
X527143D01*
X527393Y232200D01*
M02*
