G04*
G04 #@! TF.GenerationSoftware,Altium Limited,Altium Designer,25.8.1 (18)*
G04*
G04 Layer_Color=0*
%FSLAX25Y25*%
%MOIN*%
G70*
G04*
G04 #@! TF.SameCoordinates,0636D6F4-90F1-4F74-A5AB-28ACEA2C2FB7*
G04*
G04*
G04 #@! TF.FilePolarity,Positive*
G04*
G01*
G75*
%ADD13C,0.00051*%
%ADD69C,0.00394*%
D13*
X416911Y215766D02*
X420848D01*
X418879Y213797D02*
Y217734D01*
X406429Y198240D02*
Y202177D01*
X404461Y200209D02*
X408398D01*
X339898Y224740D02*
X343835D01*
X341866Y222772D02*
Y226709D01*
X377768Y179520D02*
X381705D01*
X379736Y177551D02*
Y181488D01*
X1093248Y250134D02*
Y254071D01*
X1091280Y252102D02*
X1095217D01*
X-302783Y253358D02*
Y257295D01*
X-304752Y255327D02*
X-300815D01*
X374334Y239323D02*
Y243260D01*
X372366Y241291D02*
X376303D01*
X425752Y205168D02*
Y209105D01*
X423784Y207136D02*
X427721D01*
X435049Y252126D02*
Y256063D01*
X433080Y254094D02*
X437017D01*
X435224Y244488D02*
Y248425D01*
X433256Y246457D02*
X437193D01*
X398383Y228079D02*
Y232016D01*
X396414Y230047D02*
X400351D01*
D69*
X311954Y177634D02*
Y181571D01*
X309985Y179602D02*
X313922D01*
M02*
